M48
; DRILL file {KiCad (5.1.5)-2} date 05/02/2020 11:48:54
; FORMAT={-:-/ absolute / inch / decimal}
; #@! TF.CreationDate,2020-02-05T11:48:54+00:00
; #@! TF.GenerationSoftware,Kicad,Pcbnew,(5.1.5)-2
; #@! TF.FileFunction,Plated,1,2,PTH
FMAT,2
INCH
T1C0.0118
T2C0.0157
T3C0.0197
T4C0.0315
T5C0.0598
%
G90
G05
T1
X5.6299Y-5.5217
X5.6299Y-5.5807
X5.6496Y-5.5512
X5.6693Y-5.5217
X5.6693Y-5.5807
T2
X5.035Y-5.025
X5.21Y-5.8553
X5.3661Y-5.4134
X5.3661Y-5.5039
X5.3661Y-5.5984
X5.3661Y-5.6929
X5.4528Y-5.3268
X5.5433Y-5.3268
X5.55Y-5.605
X5.5561Y-5.4919
X5.755Y-5.6698
X5.755Y-5.595
X5.8Y-5.9
T3
X5.385Y-5.875
X5.925Y-5.365
X5.17Y-5.635
X5.275Y-5.205
X5.965Y-5.855
T4
X4.9528Y-5.4331
X4.9528Y-5.6331
X5.0528Y-5.5331
T5
X6.1929Y-5.5866
X6.1929Y-5.7866
X5.5Y-4.9882
X5.7Y-4.9882
X5.9Y-4.9882
T0
M30
