G04 #@! TF.GenerationSoftware,KiCad,Pcbnew,(5.1.5)-2*
G04 #@! TF.CreationDate,2020-02-05T11:48:52+00:00*
G04 #@! TF.ProjectId,OPA1622_eval,4f504131-3632-4325-9f65-76616c2e6b69,rev?*
G04 #@! TF.SameCoordinates,Original*
G04 #@! TF.FileFunction,Soldermask,Top*
G04 #@! TF.FilePolarity,Negative*
%FSLAX46Y46*%
G04 Gerber Fmt 4.6, Leading zero omitted, Abs format (unit mm)*
G04 Created by KiCad (PCBNEW (5.1.5)-2) date 2020-02-05 11:48:52*
%MOMM*%
%LPD*%
G04 APERTURE LIST*
%ADD10C,0.100000*%
G04 APERTURE END LIST*
D10*
G36*
X132806674Y-149113465D02*
G01*
X132844367Y-149124899D01*
X132879103Y-149143466D01*
X132909548Y-149168452D01*
X132934534Y-149198897D01*
X132953101Y-149233633D01*
X132964535Y-149271326D01*
X132969000Y-149316661D01*
X132969000Y-150403339D01*
X132964535Y-150448674D01*
X132953101Y-150486367D01*
X132934534Y-150521103D01*
X132909548Y-150551548D01*
X132879103Y-150576534D01*
X132844367Y-150595101D01*
X132806674Y-150606535D01*
X132761339Y-150611000D01*
X131924661Y-150611000D01*
X131879326Y-150606535D01*
X131841633Y-150595101D01*
X131806897Y-150576534D01*
X131776452Y-150551548D01*
X131751466Y-150521103D01*
X131732899Y-150486367D01*
X131721465Y-150448674D01*
X131717000Y-150403339D01*
X131717000Y-149316661D01*
X131721465Y-149271326D01*
X131732899Y-149233633D01*
X131751466Y-149198897D01*
X131776452Y-149168452D01*
X131806897Y-149143466D01*
X131841633Y-149124899D01*
X131879326Y-149113465D01*
X131924661Y-149109000D01*
X132761339Y-149109000D01*
X132806674Y-149113465D01*
G37*
G36*
X130756674Y-149113465D02*
G01*
X130794367Y-149124899D01*
X130829103Y-149143466D01*
X130859548Y-149168452D01*
X130884534Y-149198897D01*
X130903101Y-149233633D01*
X130914535Y-149271326D01*
X130919000Y-149316661D01*
X130919000Y-150403339D01*
X130914535Y-150448674D01*
X130903101Y-150486367D01*
X130884534Y-150521103D01*
X130859548Y-150551548D01*
X130829103Y-150576534D01*
X130794367Y-150595101D01*
X130756674Y-150606535D01*
X130711339Y-150611000D01*
X129874661Y-150611000D01*
X129829326Y-150606535D01*
X129791633Y-150595101D01*
X129756897Y-150576534D01*
X129726452Y-150551548D01*
X129701466Y-150521103D01*
X129682899Y-150486367D01*
X129671465Y-150448674D01*
X129667000Y-150403339D01*
X129667000Y-149316661D01*
X129671465Y-149271326D01*
X129682899Y-149233633D01*
X129701466Y-149198897D01*
X129726452Y-149168452D01*
X129756897Y-149143466D01*
X129791633Y-149124899D01*
X129829326Y-149113465D01*
X129874661Y-149109000D01*
X130711339Y-149109000D01*
X130756674Y-149113465D01*
G37*
G36*
X128543499Y-149465445D02*
G01*
X128580995Y-149476820D01*
X128615554Y-149495292D01*
X128645847Y-149520153D01*
X128670708Y-149550446D01*
X128689180Y-149585005D01*
X128700555Y-149622501D01*
X128705000Y-149667638D01*
X128705000Y-150306362D01*
X128700555Y-150351499D01*
X128689180Y-150388995D01*
X128670708Y-150423554D01*
X128645847Y-150453847D01*
X128615554Y-150478708D01*
X128580995Y-150497180D01*
X128543499Y-150508555D01*
X128498362Y-150513000D01*
X127759638Y-150513000D01*
X127714501Y-150508555D01*
X127677005Y-150497180D01*
X127642446Y-150478708D01*
X127612153Y-150453847D01*
X127587292Y-150423554D01*
X127568820Y-150388995D01*
X127557445Y-150351499D01*
X127553000Y-150306362D01*
X127553000Y-149667638D01*
X127557445Y-149622501D01*
X127568820Y-149585005D01*
X127587292Y-149550446D01*
X127612153Y-149520153D01*
X127642446Y-149495292D01*
X127677005Y-149476820D01*
X127714501Y-149465445D01*
X127759638Y-149461000D01*
X128498362Y-149461000D01*
X128543499Y-149465445D01*
G37*
G36*
X126793499Y-149465445D02*
G01*
X126830995Y-149476820D01*
X126865554Y-149495292D01*
X126895847Y-149520153D01*
X126920708Y-149550446D01*
X126939180Y-149585005D01*
X126950555Y-149622501D01*
X126955000Y-149667638D01*
X126955000Y-150306362D01*
X126950555Y-150351499D01*
X126939180Y-150388995D01*
X126920708Y-150423554D01*
X126895847Y-150453847D01*
X126865554Y-150478708D01*
X126830995Y-150497180D01*
X126793499Y-150508555D01*
X126748362Y-150513000D01*
X126009638Y-150513000D01*
X125964501Y-150508555D01*
X125927005Y-150497180D01*
X125892446Y-150478708D01*
X125862153Y-150453847D01*
X125837292Y-150423554D01*
X125818820Y-150388995D01*
X125807445Y-150351499D01*
X125803000Y-150306362D01*
X125803000Y-149667638D01*
X125807445Y-149622501D01*
X125818820Y-149585005D01*
X125837292Y-149550446D01*
X125862153Y-149520153D01*
X125892446Y-149495292D01*
X125927005Y-149476820D01*
X125964501Y-149465445D01*
X126009638Y-149461000D01*
X126748362Y-149461000D01*
X126793499Y-149465445D01*
G37*
G36*
X137330000Y-149776000D02*
G01*
X136228000Y-149776000D01*
X136228000Y-148674000D01*
X137330000Y-148674000D01*
X137330000Y-149776000D01*
G37*
G36*
X152062000Y-149268000D02*
G01*
X150960000Y-149268000D01*
X150960000Y-148166000D01*
X152062000Y-148166000D01*
X152062000Y-149268000D01*
G37*
G36*
X145742674Y-147716465D02*
G01*
X145780367Y-147727899D01*
X145815103Y-147746466D01*
X145845548Y-147771452D01*
X145870534Y-147801897D01*
X145889101Y-147836633D01*
X145900535Y-147874326D01*
X145905000Y-147919661D01*
X145905000Y-149006339D01*
X145900535Y-149051674D01*
X145889101Y-149089367D01*
X145870534Y-149124103D01*
X145845548Y-149154548D01*
X145815103Y-149179534D01*
X145780367Y-149198101D01*
X145742674Y-149209535D01*
X145697339Y-149214000D01*
X144860661Y-149214000D01*
X144815326Y-149209535D01*
X144777633Y-149198101D01*
X144742897Y-149179534D01*
X144712452Y-149154548D01*
X144687466Y-149124103D01*
X144668899Y-149089367D01*
X144657465Y-149051674D01*
X144653000Y-149006339D01*
X144653000Y-147919661D01*
X144657465Y-147874326D01*
X144668899Y-147836633D01*
X144687466Y-147801897D01*
X144712452Y-147771452D01*
X144742897Y-147746466D01*
X144777633Y-147727899D01*
X144815326Y-147716465D01*
X144860661Y-147712000D01*
X145697339Y-147712000D01*
X145742674Y-147716465D01*
G37*
G36*
X147792674Y-147716465D02*
G01*
X147830367Y-147727899D01*
X147865103Y-147746466D01*
X147895548Y-147771452D01*
X147920534Y-147801897D01*
X147939101Y-147836633D01*
X147950535Y-147874326D01*
X147955000Y-147919661D01*
X147955000Y-149006339D01*
X147950535Y-149051674D01*
X147939101Y-149089367D01*
X147920534Y-149124103D01*
X147895548Y-149154548D01*
X147865103Y-149179534D01*
X147830367Y-149198101D01*
X147792674Y-149209535D01*
X147747339Y-149214000D01*
X146910661Y-149214000D01*
X146865326Y-149209535D01*
X146827633Y-149198101D01*
X146792897Y-149179534D01*
X146762452Y-149154548D01*
X146737466Y-149124103D01*
X146718899Y-149089367D01*
X146707465Y-149051674D01*
X146703000Y-149006339D01*
X146703000Y-147919661D01*
X146707465Y-147874326D01*
X146718899Y-147836633D01*
X146737466Y-147801897D01*
X146762452Y-147771452D01*
X146792897Y-147746466D01*
X146827633Y-147727899D01*
X146865326Y-147716465D01*
X146910661Y-147712000D01*
X147747339Y-147712000D01*
X147792674Y-147716465D01*
G37*
G36*
X143229674Y-147716465D02*
G01*
X143267367Y-147727899D01*
X143302103Y-147746466D01*
X143332548Y-147771452D01*
X143357534Y-147801897D01*
X143376101Y-147836633D01*
X143387535Y-147874326D01*
X143392000Y-147919661D01*
X143392000Y-149006339D01*
X143387535Y-149051674D01*
X143376101Y-149089367D01*
X143357534Y-149124103D01*
X143332548Y-149154548D01*
X143302103Y-149179534D01*
X143267367Y-149198101D01*
X143229674Y-149209535D01*
X143184339Y-149214000D01*
X142347661Y-149214000D01*
X142302326Y-149209535D01*
X142264633Y-149198101D01*
X142229897Y-149179534D01*
X142199452Y-149154548D01*
X142174466Y-149124103D01*
X142155899Y-149089367D01*
X142144465Y-149051674D01*
X142140000Y-149006339D01*
X142140000Y-147919661D01*
X142144465Y-147874326D01*
X142155899Y-147836633D01*
X142174466Y-147801897D01*
X142199452Y-147771452D01*
X142229897Y-147746466D01*
X142264633Y-147727899D01*
X142302326Y-147716465D01*
X142347661Y-147712000D01*
X143184339Y-147712000D01*
X143229674Y-147716465D01*
G37*
G36*
X141179674Y-147716465D02*
G01*
X141217367Y-147727899D01*
X141252103Y-147746466D01*
X141282548Y-147771452D01*
X141307534Y-147801897D01*
X141326101Y-147836633D01*
X141337535Y-147874326D01*
X141342000Y-147919661D01*
X141342000Y-149006339D01*
X141337535Y-149051674D01*
X141326101Y-149089367D01*
X141307534Y-149124103D01*
X141282548Y-149154548D01*
X141252103Y-149179534D01*
X141217367Y-149198101D01*
X141179674Y-149209535D01*
X141134339Y-149214000D01*
X140297661Y-149214000D01*
X140252326Y-149209535D01*
X140214633Y-149198101D01*
X140179897Y-149179534D01*
X140149452Y-149154548D01*
X140124466Y-149124103D01*
X140105899Y-149089367D01*
X140094465Y-149051674D01*
X140090000Y-149006339D01*
X140090000Y-147919661D01*
X140094465Y-147874326D01*
X140105899Y-147836633D01*
X140124466Y-147801897D01*
X140149452Y-147771452D01*
X140179897Y-147746466D01*
X140214633Y-147727899D01*
X140252326Y-147716465D01*
X140297661Y-147712000D01*
X141134339Y-147712000D01*
X141179674Y-147716465D01*
G37*
G36*
X126538674Y-147253465D02*
G01*
X126576367Y-147264899D01*
X126611103Y-147283466D01*
X126641548Y-147308452D01*
X126666534Y-147338897D01*
X126685101Y-147373633D01*
X126696535Y-147411326D01*
X126701000Y-147456661D01*
X126701000Y-148543339D01*
X126696535Y-148588674D01*
X126685101Y-148626367D01*
X126666534Y-148661103D01*
X126641548Y-148691548D01*
X126611103Y-148716534D01*
X126576367Y-148735101D01*
X126538674Y-148746535D01*
X126493339Y-148751000D01*
X125656661Y-148751000D01*
X125611326Y-148746535D01*
X125573633Y-148735101D01*
X125538897Y-148716534D01*
X125508452Y-148691548D01*
X125483466Y-148661103D01*
X125464899Y-148626367D01*
X125453465Y-148588674D01*
X125449000Y-148543339D01*
X125449000Y-147456661D01*
X125453465Y-147411326D01*
X125464899Y-147373633D01*
X125483466Y-147338897D01*
X125508452Y-147308452D01*
X125538897Y-147283466D01*
X125573633Y-147264899D01*
X125611326Y-147253465D01*
X125656661Y-147249000D01*
X126493339Y-147249000D01*
X126538674Y-147253465D01*
G37*
G36*
X128588674Y-147253465D02*
G01*
X128626367Y-147264899D01*
X128661103Y-147283466D01*
X128691548Y-147308452D01*
X128716534Y-147338897D01*
X128735101Y-147373633D01*
X128746535Y-147411326D01*
X128751000Y-147456661D01*
X128751000Y-148543339D01*
X128746535Y-148588674D01*
X128735101Y-148626367D01*
X128716534Y-148661103D01*
X128691548Y-148691548D01*
X128661103Y-148716534D01*
X128626367Y-148735101D01*
X128588674Y-148746535D01*
X128543339Y-148751000D01*
X127706661Y-148751000D01*
X127661326Y-148746535D01*
X127623633Y-148735101D01*
X127588897Y-148716534D01*
X127558452Y-148691548D01*
X127533466Y-148661103D01*
X127514899Y-148626367D01*
X127503465Y-148588674D01*
X127499000Y-148543339D01*
X127499000Y-147456661D01*
X127503465Y-147411326D01*
X127514899Y-147373633D01*
X127533466Y-147338897D01*
X127558452Y-147308452D01*
X127588897Y-147283466D01*
X127623633Y-147264899D01*
X127661326Y-147253465D01*
X127706661Y-147249000D01*
X128543339Y-147249000D01*
X128588674Y-147253465D01*
G37*
G36*
X157602585Y-145458802D02*
G01*
X157752410Y-145488604D01*
X158034674Y-145605521D01*
X158288705Y-145775259D01*
X158504741Y-145991295D01*
X158674479Y-146245326D01*
X158791396Y-146527590D01*
X158791396Y-146527591D01*
X158851000Y-146827239D01*
X158851000Y-147132761D01*
X158826990Y-147253465D01*
X158791396Y-147432410D01*
X158674479Y-147714674D01*
X158504741Y-147968705D01*
X158288705Y-148184741D01*
X158034674Y-148354479D01*
X157752410Y-148471396D01*
X157602585Y-148501198D01*
X157452761Y-148531000D01*
X157147239Y-148531000D01*
X156997415Y-148501198D01*
X156847590Y-148471396D01*
X156565326Y-148354479D01*
X156311295Y-148184741D01*
X156095259Y-147968705D01*
X155925521Y-147714674D01*
X155808604Y-147432410D01*
X155773010Y-147253465D01*
X155749000Y-147132761D01*
X155749000Y-146827239D01*
X155808604Y-146527591D01*
X155808604Y-146527590D01*
X155925521Y-146245326D01*
X156095259Y-145991295D01*
X156311295Y-145775259D01*
X156565326Y-145605521D01*
X156847590Y-145488604D01*
X156997415Y-145458802D01*
X157147239Y-145429000D01*
X157452761Y-145429000D01*
X157602585Y-145458802D01*
G37*
G36*
X140188674Y-143853465D02*
G01*
X140226367Y-143864899D01*
X140261103Y-143883466D01*
X140291548Y-143908452D01*
X140316534Y-143938897D01*
X140335101Y-143973633D01*
X140346535Y-144011326D01*
X140351000Y-144056661D01*
X140351000Y-145143339D01*
X140346535Y-145188674D01*
X140335101Y-145226367D01*
X140316534Y-145261103D01*
X140291548Y-145291548D01*
X140261103Y-145316534D01*
X140226367Y-145335101D01*
X140188674Y-145346535D01*
X140143339Y-145351000D01*
X139306661Y-145351000D01*
X139261326Y-145346535D01*
X139223633Y-145335101D01*
X139188897Y-145316534D01*
X139158452Y-145291548D01*
X139133466Y-145261103D01*
X139114899Y-145226367D01*
X139103465Y-145188674D01*
X139099000Y-145143339D01*
X139099000Y-144056661D01*
X139103465Y-144011326D01*
X139114899Y-143973633D01*
X139133466Y-143938897D01*
X139158452Y-143908452D01*
X139188897Y-143883466D01*
X139223633Y-143864899D01*
X139261326Y-143853465D01*
X139306661Y-143849000D01*
X140143339Y-143849000D01*
X140188674Y-143853465D01*
G37*
G36*
X138138674Y-143853465D02*
G01*
X138176367Y-143864899D01*
X138211103Y-143883466D01*
X138241548Y-143908452D01*
X138266534Y-143938897D01*
X138285101Y-143973633D01*
X138296535Y-144011326D01*
X138301000Y-144056661D01*
X138301000Y-145143339D01*
X138296535Y-145188674D01*
X138285101Y-145226367D01*
X138266534Y-145261103D01*
X138241548Y-145291548D01*
X138211103Y-145316534D01*
X138176367Y-145335101D01*
X138138674Y-145346535D01*
X138093339Y-145351000D01*
X137256661Y-145351000D01*
X137211326Y-145346535D01*
X137173633Y-145335101D01*
X137138897Y-145316534D01*
X137108452Y-145291548D01*
X137083466Y-145261103D01*
X137064899Y-145226367D01*
X137053465Y-145188674D01*
X137049000Y-145143339D01*
X137049000Y-144056661D01*
X137053465Y-144011326D01*
X137064899Y-143973633D01*
X137083466Y-143938897D01*
X137108452Y-143908452D01*
X137138897Y-143883466D01*
X137173633Y-143864899D01*
X137211326Y-143853465D01*
X137256661Y-143849000D01*
X138093339Y-143849000D01*
X138138674Y-143853465D01*
G37*
G36*
X125925589Y-142318876D02*
G01*
X126024893Y-142338629D01*
X126165206Y-142396748D01*
X126291484Y-142481125D01*
X126398875Y-142588516D01*
X126483252Y-142714794D01*
X126541371Y-142855107D01*
X126571000Y-143004063D01*
X126571000Y-143155937D01*
X126541371Y-143304893D01*
X126483252Y-143445206D01*
X126398875Y-143571484D01*
X126291484Y-143678875D01*
X126165206Y-143763252D01*
X126024893Y-143821371D01*
X125925589Y-143841124D01*
X125875938Y-143851000D01*
X125724062Y-143851000D01*
X125674411Y-143841124D01*
X125575107Y-143821371D01*
X125434794Y-143763252D01*
X125308516Y-143678875D01*
X125201125Y-143571484D01*
X125116748Y-143445206D01*
X125058629Y-143304893D01*
X125029000Y-143155937D01*
X125029000Y-143004063D01*
X125058629Y-142855107D01*
X125116748Y-142714794D01*
X125201125Y-142588516D01*
X125308516Y-142481125D01*
X125434794Y-142396748D01*
X125575107Y-142338629D01*
X125674411Y-142318876D01*
X125724062Y-142309000D01*
X125875938Y-142309000D01*
X125925589Y-142318876D01*
G37*
G36*
X131869000Y-143680000D02*
G01*
X130767000Y-143680000D01*
X130767000Y-142578000D01*
X131869000Y-142578000D01*
X131869000Y-143680000D01*
G37*
G36*
X158851000Y-143451000D02*
G01*
X155749000Y-143451000D01*
X155749000Y-140349000D01*
X158851000Y-140349000D01*
X158851000Y-143451000D01*
G37*
G36*
X148038674Y-141453465D02*
G01*
X148076367Y-141464899D01*
X148111103Y-141483466D01*
X148141548Y-141508452D01*
X148166534Y-141538897D01*
X148185101Y-141573633D01*
X148196535Y-141611326D01*
X148201000Y-141656661D01*
X148201000Y-142743339D01*
X148196535Y-142788674D01*
X148185101Y-142826367D01*
X148166534Y-142861103D01*
X148141548Y-142891548D01*
X148111103Y-142916534D01*
X148076367Y-142935101D01*
X148038674Y-142946535D01*
X147993339Y-142951000D01*
X147156661Y-142951000D01*
X147111326Y-142946535D01*
X147073633Y-142935101D01*
X147038897Y-142916534D01*
X147008452Y-142891548D01*
X146983466Y-142861103D01*
X146964899Y-142826367D01*
X146953465Y-142788674D01*
X146949000Y-142743339D01*
X146949000Y-141656661D01*
X146953465Y-141611326D01*
X146964899Y-141573633D01*
X146983466Y-141538897D01*
X147008452Y-141508452D01*
X147038897Y-141483466D01*
X147073633Y-141464899D01*
X147111326Y-141453465D01*
X147156661Y-141449000D01*
X147993339Y-141449000D01*
X148038674Y-141453465D01*
G37*
G36*
X150088674Y-141453465D02*
G01*
X150126367Y-141464899D01*
X150161103Y-141483466D01*
X150191548Y-141508452D01*
X150216534Y-141538897D01*
X150235101Y-141573633D01*
X150246535Y-141611326D01*
X150251000Y-141656661D01*
X150251000Y-142743339D01*
X150246535Y-142788674D01*
X150235101Y-142826367D01*
X150216534Y-142861103D01*
X150191548Y-142891548D01*
X150161103Y-142916534D01*
X150126367Y-142935101D01*
X150088674Y-142946535D01*
X150043339Y-142951000D01*
X149206661Y-142951000D01*
X149161326Y-142946535D01*
X149123633Y-142935101D01*
X149088897Y-142916534D01*
X149058452Y-142891548D01*
X149033466Y-142861103D01*
X149014899Y-142826367D01*
X149003465Y-142788674D01*
X148999000Y-142743339D01*
X148999000Y-141656661D01*
X149003465Y-141611326D01*
X149014899Y-141573633D01*
X149033466Y-141538897D01*
X149058452Y-141508452D01*
X149088897Y-141483466D01*
X149123633Y-141464899D01*
X149161326Y-141453465D01*
X149206661Y-141449000D01*
X150043339Y-141449000D01*
X150088674Y-141453465D01*
G37*
G36*
X143941000Y-139624001D02*
G01*
X143943402Y-139648387D01*
X143950515Y-139671836D01*
X143962066Y-139693447D01*
X143977611Y-139712389D01*
X143996553Y-139727934D01*
X144018164Y-139739485D01*
X144041613Y-139746598D01*
X144065999Y-139749000D01*
X144379273Y-139749000D01*
X144385515Y-139769577D01*
X144397066Y-139791188D01*
X144412611Y-139810130D01*
X144431553Y-139825675D01*
X144453164Y-139837226D01*
X144476613Y-139844339D01*
X144500999Y-139846741D01*
X144525385Y-139844339D01*
X144548834Y-139837226D01*
X144561863Y-139830262D01*
X144561910Y-139830351D01*
X144572762Y-139824550D01*
X144572766Y-139824547D01*
X144609248Y-139805047D01*
X144630405Y-139798629D01*
X144648832Y-139793039D01*
X144652689Y-139792659D01*
X144679685Y-139790000D01*
X145470000Y-139790000D01*
X145470000Y-139983552D01*
X145470601Y-139995790D01*
X145471016Y-140000000D01*
X145470601Y-140004210D01*
X145470000Y-140016448D01*
X145470000Y-140483552D01*
X145470601Y-140495790D01*
X145471016Y-140500000D01*
X145470601Y-140504210D01*
X145470000Y-140516448D01*
X145470000Y-140983552D01*
X145470601Y-140995790D01*
X145471016Y-141000000D01*
X145470601Y-141004210D01*
X145470000Y-141016448D01*
X145470000Y-141483552D01*
X145470601Y-141495790D01*
X145471016Y-141500000D01*
X145470601Y-141504210D01*
X145470000Y-141516448D01*
X145470000Y-141983552D01*
X145470601Y-141995790D01*
X145471016Y-142000000D01*
X145470601Y-142004210D01*
X145470000Y-142016448D01*
X145470000Y-142210000D01*
X144679685Y-142210000D01*
X144652690Y-142207341D01*
X144648832Y-142206961D01*
X144609251Y-142194954D01*
X144609248Y-142194953D01*
X144572766Y-142175453D01*
X144572760Y-142175448D01*
X144564175Y-142170859D01*
X144559927Y-142168021D01*
X144537289Y-142158643D01*
X144513256Y-142153861D01*
X144488752Y-142153860D01*
X144464718Y-142158640D01*
X144442079Y-142168016D01*
X144421704Y-142181629D01*
X144404377Y-142198956D01*
X144390762Y-142219330D01*
X144381384Y-142241968D01*
X144379587Y-142251000D01*
X144065999Y-142251000D01*
X144041613Y-142253402D01*
X144018164Y-142260515D01*
X143996553Y-142272066D01*
X143977611Y-142287611D01*
X143962066Y-142306553D01*
X143950515Y-142328164D01*
X143943402Y-142351613D01*
X143941000Y-142375999D01*
X143941000Y-142951000D01*
X143059000Y-142951000D01*
X143059000Y-142375999D01*
X143056598Y-142351613D01*
X143049485Y-142328164D01*
X143037934Y-142306553D01*
X143022389Y-142287611D01*
X143003447Y-142272066D01*
X142981836Y-142260515D01*
X142958387Y-142253402D01*
X142934001Y-142251000D01*
X142620727Y-142251000D01*
X142614485Y-142230423D01*
X142602934Y-142208812D01*
X142587389Y-142189870D01*
X142568447Y-142174325D01*
X142546836Y-142162774D01*
X142523387Y-142155661D01*
X142499001Y-142153259D01*
X142474615Y-142155661D01*
X142451166Y-142162774D01*
X142438137Y-142169738D01*
X142438090Y-142169649D01*
X142427238Y-142175450D01*
X142427234Y-142175453D01*
X142390752Y-142194953D01*
X142390749Y-142194954D01*
X142351168Y-142206961D01*
X142347310Y-142207341D01*
X142320315Y-142210000D01*
X141530000Y-142210000D01*
X141530000Y-142016448D01*
X141529399Y-142004210D01*
X141528984Y-142000000D01*
X141529399Y-141995790D01*
X141530000Y-141983552D01*
X141530000Y-141516448D01*
X141529399Y-141504210D01*
X141528984Y-141500000D01*
X141529399Y-141495790D01*
X141530000Y-141483552D01*
X141530000Y-141016448D01*
X141529399Y-141004210D01*
X141528984Y-141000000D01*
X141529399Y-140995790D01*
X141530000Y-140983552D01*
X141530000Y-140516448D01*
X141529399Y-140504210D01*
X141528984Y-140500000D01*
X141529399Y-140495790D01*
X141530000Y-140483552D01*
X141530000Y-140016448D01*
X141529399Y-140004210D01*
X141528984Y-140000000D01*
X141529399Y-139995790D01*
X141530000Y-139983552D01*
X141530000Y-139790000D01*
X142320315Y-139790000D01*
X142347311Y-139792659D01*
X142351168Y-139793039D01*
X142369595Y-139798629D01*
X142390752Y-139805047D01*
X142427234Y-139824547D01*
X142427240Y-139824552D01*
X142435825Y-139829141D01*
X142440073Y-139831979D01*
X142462711Y-139841357D01*
X142486744Y-139846139D01*
X142511248Y-139846140D01*
X142535282Y-139841360D01*
X142557921Y-139831984D01*
X142578296Y-139818371D01*
X142595623Y-139801044D01*
X142609238Y-139780670D01*
X142618616Y-139758032D01*
X142620413Y-139749000D01*
X142934001Y-139749000D01*
X142958387Y-139746598D01*
X142981836Y-139739485D01*
X143003447Y-139727934D01*
X143022389Y-139712389D01*
X143037934Y-139693447D01*
X143049485Y-139671836D01*
X143056598Y-139648387D01*
X143059000Y-139624001D01*
X143059000Y-139049000D01*
X143941000Y-139049000D01*
X143941000Y-139624001D01*
G37*
G36*
X138138674Y-141453465D02*
G01*
X138176367Y-141464899D01*
X138211103Y-141483466D01*
X138241548Y-141508452D01*
X138266534Y-141538897D01*
X138285101Y-141573633D01*
X138296535Y-141611326D01*
X138301000Y-141656661D01*
X138301000Y-142743339D01*
X138296535Y-142788674D01*
X138285101Y-142826367D01*
X138266534Y-142861103D01*
X138241548Y-142891548D01*
X138211103Y-142916534D01*
X138176367Y-142935101D01*
X138138674Y-142946535D01*
X138093339Y-142951000D01*
X137256661Y-142951000D01*
X137211326Y-142946535D01*
X137173633Y-142935101D01*
X137138897Y-142916534D01*
X137108452Y-142891548D01*
X137083466Y-142861103D01*
X137064899Y-142826367D01*
X137053465Y-142788674D01*
X137049000Y-142743339D01*
X137049000Y-141656661D01*
X137053465Y-141611326D01*
X137064899Y-141573633D01*
X137083466Y-141538897D01*
X137108452Y-141508452D01*
X137138897Y-141483466D01*
X137173633Y-141464899D01*
X137211326Y-141453465D01*
X137256661Y-141449000D01*
X138093339Y-141449000D01*
X138138674Y-141453465D01*
G37*
G36*
X140188674Y-141453465D02*
G01*
X140226367Y-141464899D01*
X140261103Y-141483466D01*
X140291548Y-141508452D01*
X140316534Y-141538897D01*
X140335101Y-141573633D01*
X140346535Y-141611326D01*
X140351000Y-141656661D01*
X140351000Y-142743339D01*
X140346535Y-142788674D01*
X140335101Y-142826367D01*
X140316534Y-142861103D01*
X140291548Y-142891548D01*
X140261103Y-142916534D01*
X140226367Y-142935101D01*
X140188674Y-142946535D01*
X140143339Y-142951000D01*
X139306661Y-142951000D01*
X139261326Y-142946535D01*
X139223633Y-142935101D01*
X139188897Y-142916534D01*
X139158452Y-142891548D01*
X139133466Y-142861103D01*
X139114899Y-142826367D01*
X139103465Y-142788674D01*
X139099000Y-142743339D01*
X139099000Y-141656661D01*
X139103465Y-141611326D01*
X139114899Y-141573633D01*
X139133466Y-141538897D01*
X139158452Y-141508452D01*
X139188897Y-141483466D01*
X139223633Y-141464899D01*
X139261326Y-141453465D01*
X139306661Y-141449000D01*
X140143339Y-141449000D01*
X140188674Y-141453465D01*
G37*
G36*
X128465589Y-139778876D02*
G01*
X128564893Y-139798629D01*
X128705206Y-139856748D01*
X128831484Y-139941125D01*
X128938875Y-140048516D01*
X129023252Y-140174794D01*
X129081371Y-140315107D01*
X129111000Y-140464063D01*
X129111000Y-140615937D01*
X129081371Y-140764893D01*
X129023252Y-140905206D01*
X128938875Y-141031484D01*
X128831484Y-141138875D01*
X128705206Y-141223252D01*
X128564893Y-141281371D01*
X128465589Y-141301124D01*
X128415938Y-141311000D01*
X128264062Y-141311000D01*
X128214411Y-141301124D01*
X128115107Y-141281371D01*
X127974794Y-141223252D01*
X127848516Y-141138875D01*
X127741125Y-141031484D01*
X127656748Y-140905206D01*
X127598629Y-140764893D01*
X127569000Y-140615937D01*
X127569000Y-140464063D01*
X127598629Y-140315107D01*
X127656748Y-140174794D01*
X127741125Y-140048516D01*
X127848516Y-139941125D01*
X127974794Y-139856748D01*
X128115107Y-139798629D01*
X128214411Y-139778876D01*
X128264062Y-139769000D01*
X128415938Y-139769000D01*
X128465589Y-139778876D01*
G37*
G36*
X138138674Y-139053465D02*
G01*
X138176367Y-139064899D01*
X138211103Y-139083466D01*
X138241548Y-139108452D01*
X138266534Y-139138897D01*
X138285101Y-139173633D01*
X138296535Y-139211326D01*
X138301000Y-139256661D01*
X138301000Y-140343339D01*
X138296535Y-140388674D01*
X138285101Y-140426367D01*
X138266534Y-140461103D01*
X138241548Y-140491548D01*
X138211103Y-140516534D01*
X138176367Y-140535101D01*
X138138674Y-140546535D01*
X138093339Y-140551000D01*
X137256661Y-140551000D01*
X137211326Y-140546535D01*
X137173633Y-140535101D01*
X137138897Y-140516534D01*
X137108452Y-140491548D01*
X137083466Y-140461103D01*
X137064899Y-140426367D01*
X137053465Y-140388674D01*
X137049000Y-140343339D01*
X137049000Y-139256661D01*
X137053465Y-139211326D01*
X137064899Y-139173633D01*
X137083466Y-139138897D01*
X137108452Y-139108452D01*
X137138897Y-139083466D01*
X137173633Y-139064899D01*
X137211326Y-139053465D01*
X137256661Y-139049000D01*
X138093339Y-139049000D01*
X138138674Y-139053465D01*
G37*
G36*
X150088674Y-139053465D02*
G01*
X150126367Y-139064899D01*
X150161103Y-139083466D01*
X150191548Y-139108452D01*
X150216534Y-139138897D01*
X150235101Y-139173633D01*
X150246535Y-139211326D01*
X150251000Y-139256661D01*
X150251000Y-140343339D01*
X150246535Y-140388674D01*
X150235101Y-140426367D01*
X150216534Y-140461103D01*
X150191548Y-140491548D01*
X150161103Y-140516534D01*
X150126367Y-140535101D01*
X150088674Y-140546535D01*
X150043339Y-140551000D01*
X149206661Y-140551000D01*
X149161326Y-140546535D01*
X149123633Y-140535101D01*
X149088897Y-140516534D01*
X149058452Y-140491548D01*
X149033466Y-140461103D01*
X149014899Y-140426367D01*
X149003465Y-140388674D01*
X148999000Y-140343339D01*
X148999000Y-139256661D01*
X149003465Y-139211326D01*
X149014899Y-139173633D01*
X149033466Y-139138897D01*
X149058452Y-139108452D01*
X149088897Y-139083466D01*
X149123633Y-139064899D01*
X149161326Y-139053465D01*
X149206661Y-139049000D01*
X150043339Y-139049000D01*
X150088674Y-139053465D01*
G37*
G36*
X148038674Y-139053465D02*
G01*
X148076367Y-139064899D01*
X148111103Y-139083466D01*
X148141548Y-139108452D01*
X148166534Y-139138897D01*
X148185101Y-139173633D01*
X148196535Y-139211326D01*
X148201000Y-139256661D01*
X148201000Y-140343339D01*
X148196535Y-140388674D01*
X148185101Y-140426367D01*
X148166534Y-140461103D01*
X148141548Y-140491548D01*
X148111103Y-140516534D01*
X148076367Y-140535101D01*
X148038674Y-140546535D01*
X147993339Y-140551000D01*
X147156661Y-140551000D01*
X147111326Y-140546535D01*
X147073633Y-140535101D01*
X147038897Y-140516534D01*
X147008452Y-140491548D01*
X146983466Y-140461103D01*
X146964899Y-140426367D01*
X146953465Y-140388674D01*
X146949000Y-140343339D01*
X146949000Y-139256661D01*
X146953465Y-139211326D01*
X146964899Y-139173633D01*
X146983466Y-139138897D01*
X147008452Y-139108452D01*
X147038897Y-139083466D01*
X147073633Y-139064899D01*
X147111326Y-139053465D01*
X147156661Y-139049000D01*
X147993339Y-139049000D01*
X148038674Y-139053465D01*
G37*
G36*
X140188674Y-139053465D02*
G01*
X140226367Y-139064899D01*
X140261103Y-139083466D01*
X140291548Y-139108452D01*
X140316534Y-139138897D01*
X140335101Y-139173633D01*
X140346535Y-139211326D01*
X140351000Y-139256661D01*
X140351000Y-140343339D01*
X140346535Y-140388674D01*
X140335101Y-140426367D01*
X140316534Y-140461103D01*
X140291548Y-140491548D01*
X140261103Y-140516534D01*
X140226367Y-140535101D01*
X140188674Y-140546535D01*
X140143339Y-140551000D01*
X139306661Y-140551000D01*
X139261326Y-140546535D01*
X139223633Y-140535101D01*
X139188897Y-140516534D01*
X139158452Y-140491548D01*
X139133466Y-140461103D01*
X139114899Y-140426367D01*
X139103465Y-140388674D01*
X139099000Y-140343339D01*
X139099000Y-139256661D01*
X139103465Y-139211326D01*
X139114899Y-139173633D01*
X139133466Y-139138897D01*
X139158452Y-139108452D01*
X139188897Y-139083466D01*
X139223633Y-139064899D01*
X139261326Y-139053465D01*
X139306661Y-139049000D01*
X140143339Y-139049000D01*
X140188674Y-139053465D01*
G37*
G36*
X125925589Y-137238876D02*
G01*
X126024893Y-137258629D01*
X126165206Y-137316748D01*
X126291484Y-137401125D01*
X126398875Y-137508516D01*
X126483252Y-137634794D01*
X126541371Y-137775107D01*
X126541371Y-137775109D01*
X126571000Y-137924062D01*
X126571000Y-138075938D01*
X126561124Y-138125589D01*
X126541371Y-138224893D01*
X126483252Y-138365206D01*
X126398875Y-138491484D01*
X126291484Y-138598875D01*
X126165206Y-138683252D01*
X126024893Y-138741371D01*
X125925589Y-138761124D01*
X125875938Y-138771000D01*
X125724062Y-138771000D01*
X125674411Y-138761124D01*
X125575107Y-138741371D01*
X125434794Y-138683252D01*
X125308516Y-138598875D01*
X125201125Y-138491484D01*
X125116748Y-138365206D01*
X125058629Y-138224893D01*
X125038876Y-138125589D01*
X125029000Y-138075938D01*
X125029000Y-137924062D01*
X125058629Y-137775109D01*
X125058629Y-137775107D01*
X125116748Y-137634794D01*
X125201125Y-137508516D01*
X125308516Y-137401125D01*
X125434794Y-137316748D01*
X125575107Y-137258629D01*
X125674411Y-137238876D01*
X125724062Y-137229000D01*
X125875938Y-137229000D01*
X125925589Y-137238876D01*
G37*
G36*
X138138674Y-136753465D02*
G01*
X138176367Y-136764899D01*
X138211103Y-136783466D01*
X138241548Y-136808452D01*
X138266534Y-136838897D01*
X138285101Y-136873633D01*
X138296535Y-136911326D01*
X138301000Y-136956661D01*
X138301000Y-138043339D01*
X138296535Y-138088674D01*
X138285101Y-138126367D01*
X138266534Y-138161103D01*
X138241548Y-138191548D01*
X138211103Y-138216534D01*
X138176367Y-138235101D01*
X138138674Y-138246535D01*
X138093339Y-138251000D01*
X137256661Y-138251000D01*
X137211326Y-138246535D01*
X137173633Y-138235101D01*
X137138897Y-138216534D01*
X137108452Y-138191548D01*
X137083466Y-138161103D01*
X137064899Y-138126367D01*
X137053465Y-138088674D01*
X137049000Y-138043339D01*
X137049000Y-136956661D01*
X137053465Y-136911326D01*
X137064899Y-136873633D01*
X137083466Y-136838897D01*
X137108452Y-136808452D01*
X137138897Y-136783466D01*
X137173633Y-136764899D01*
X137211326Y-136753465D01*
X137256661Y-136749000D01*
X138093339Y-136749000D01*
X138138674Y-136753465D01*
G37*
G36*
X140188674Y-136753465D02*
G01*
X140226367Y-136764899D01*
X140261103Y-136783466D01*
X140291548Y-136808452D01*
X140316534Y-136838897D01*
X140335101Y-136873633D01*
X140346535Y-136911326D01*
X140351000Y-136956661D01*
X140351000Y-138043339D01*
X140346535Y-138088674D01*
X140335101Y-138126367D01*
X140316534Y-138161103D01*
X140291548Y-138191548D01*
X140261103Y-138216534D01*
X140226367Y-138235101D01*
X140188674Y-138246535D01*
X140143339Y-138251000D01*
X139306661Y-138251000D01*
X139261326Y-138246535D01*
X139223633Y-138235101D01*
X139188897Y-138216534D01*
X139158452Y-138191548D01*
X139133466Y-138161103D01*
X139114899Y-138126367D01*
X139103465Y-138088674D01*
X139099000Y-138043339D01*
X139099000Y-136956661D01*
X139103465Y-136911326D01*
X139114899Y-136873633D01*
X139133466Y-136838897D01*
X139158452Y-136808452D01*
X139188897Y-136783466D01*
X139223633Y-136764899D01*
X139261326Y-136753465D01*
X139306661Y-136749000D01*
X140143339Y-136749000D01*
X140188674Y-136753465D01*
G37*
G36*
X159300562Y-135648181D02*
G01*
X159335481Y-135658774D01*
X159367663Y-135675976D01*
X159395873Y-135699127D01*
X159419024Y-135727337D01*
X159436226Y-135759519D01*
X159446819Y-135794438D01*
X159451000Y-135836895D01*
X159451000Y-137303105D01*
X159446819Y-137345562D01*
X159436226Y-137380481D01*
X159419024Y-137412663D01*
X159395873Y-137440873D01*
X159367663Y-137464024D01*
X159335481Y-137481226D01*
X159300562Y-137491819D01*
X159258105Y-137496000D01*
X158116895Y-137496000D01*
X158074438Y-137491819D01*
X158039519Y-137481226D01*
X158007337Y-137464024D01*
X157979127Y-137440873D01*
X157955976Y-137412663D01*
X157938774Y-137380481D01*
X157928181Y-137345562D01*
X157924000Y-137303105D01*
X157924000Y-135836895D01*
X157928181Y-135794438D01*
X157938774Y-135759519D01*
X157955976Y-135727337D01*
X157979127Y-135699127D01*
X158007337Y-135675976D01*
X158039519Y-135658774D01*
X158074438Y-135648181D01*
X158116895Y-135644000D01*
X159258105Y-135644000D01*
X159300562Y-135648181D01*
G37*
G36*
X156325562Y-135648181D02*
G01*
X156360481Y-135658774D01*
X156392663Y-135675976D01*
X156420873Y-135699127D01*
X156444024Y-135727337D01*
X156461226Y-135759519D01*
X156471819Y-135794438D01*
X156476000Y-135836895D01*
X156476000Y-137303105D01*
X156471819Y-137345562D01*
X156461226Y-137380481D01*
X156444024Y-137412663D01*
X156420873Y-137440873D01*
X156392663Y-137464024D01*
X156360481Y-137481226D01*
X156325562Y-137491819D01*
X156283105Y-137496000D01*
X155141895Y-137496000D01*
X155099438Y-137491819D01*
X155064519Y-137481226D01*
X155032337Y-137464024D01*
X155004127Y-137440873D01*
X154980976Y-137412663D01*
X154963774Y-137380481D01*
X154953181Y-137345562D01*
X154949000Y-137303105D01*
X154949000Y-135836895D01*
X154953181Y-135794438D01*
X154963774Y-135759519D01*
X154980976Y-135727337D01*
X155004127Y-135699127D01*
X155032337Y-135675976D01*
X155064519Y-135658774D01*
X155099438Y-135648181D01*
X155141895Y-135644000D01*
X156283105Y-135644000D01*
X156325562Y-135648181D01*
G37*
G36*
X151046000Y-136822000D02*
G01*
X149944000Y-136822000D01*
X149944000Y-135720000D01*
X151046000Y-135720000D01*
X151046000Y-136822000D01*
G37*
G36*
X156325562Y-132358181D02*
G01*
X156360481Y-132368774D01*
X156392663Y-132385976D01*
X156420873Y-132409127D01*
X156444024Y-132437337D01*
X156461226Y-132469519D01*
X156471819Y-132504438D01*
X156476000Y-132546895D01*
X156476000Y-134013105D01*
X156471819Y-134055562D01*
X156461226Y-134090481D01*
X156444024Y-134122663D01*
X156420873Y-134150873D01*
X156392663Y-134174024D01*
X156360481Y-134191226D01*
X156325562Y-134201819D01*
X156283105Y-134206000D01*
X155141895Y-134206000D01*
X155099438Y-134201819D01*
X155064519Y-134191226D01*
X155032337Y-134174024D01*
X155004127Y-134150873D01*
X154980976Y-134122663D01*
X154963774Y-134090481D01*
X154953181Y-134055562D01*
X154949000Y-134013105D01*
X154949000Y-132546895D01*
X154953181Y-132504438D01*
X154963774Y-132469519D01*
X154980976Y-132437337D01*
X155004127Y-132409127D01*
X155032337Y-132385976D01*
X155064519Y-132368774D01*
X155099438Y-132358181D01*
X155141895Y-132354000D01*
X156283105Y-132354000D01*
X156325562Y-132358181D01*
G37*
G36*
X159300562Y-132358181D02*
G01*
X159335481Y-132368774D01*
X159367663Y-132385976D01*
X159395873Y-132409127D01*
X159419024Y-132437337D01*
X159436226Y-132469519D01*
X159446819Y-132504438D01*
X159451000Y-132546895D01*
X159451000Y-134013105D01*
X159446819Y-134055562D01*
X159436226Y-134090481D01*
X159419024Y-134122663D01*
X159395873Y-134150873D01*
X159367663Y-134174024D01*
X159335481Y-134191226D01*
X159300562Y-134201819D01*
X159258105Y-134206000D01*
X158116895Y-134206000D01*
X158074438Y-134201819D01*
X158039519Y-134191226D01*
X158007337Y-134174024D01*
X157979127Y-134150873D01*
X157955976Y-134122663D01*
X157938774Y-134090481D01*
X157928181Y-134055562D01*
X157924000Y-134013105D01*
X157924000Y-132546895D01*
X157928181Y-132504438D01*
X157938774Y-132469519D01*
X157955976Y-132437337D01*
X157979127Y-132409127D01*
X158007337Y-132385976D01*
X158039519Y-132368774D01*
X158074438Y-132358181D01*
X158116895Y-132354000D01*
X159258105Y-132354000D01*
X159300562Y-132358181D01*
G37*
G36*
X126438674Y-132453465D02*
G01*
X126476367Y-132464899D01*
X126511103Y-132483466D01*
X126541548Y-132508452D01*
X126566534Y-132538897D01*
X126585101Y-132573633D01*
X126596535Y-132611326D01*
X126601000Y-132656661D01*
X126601000Y-133743339D01*
X126596535Y-133788674D01*
X126585101Y-133826367D01*
X126566534Y-133861103D01*
X126541548Y-133891548D01*
X126511103Y-133916534D01*
X126476367Y-133935101D01*
X126438674Y-133946535D01*
X126393339Y-133951000D01*
X125556661Y-133951000D01*
X125511326Y-133946535D01*
X125473633Y-133935101D01*
X125438897Y-133916534D01*
X125408452Y-133891548D01*
X125383466Y-133861103D01*
X125364899Y-133826367D01*
X125353465Y-133788674D01*
X125349000Y-133743339D01*
X125349000Y-132656661D01*
X125353465Y-132611326D01*
X125364899Y-132573633D01*
X125383466Y-132538897D01*
X125408452Y-132508452D01*
X125438897Y-132483466D01*
X125473633Y-132464899D01*
X125511326Y-132453465D01*
X125556661Y-132449000D01*
X126393339Y-132449000D01*
X126438674Y-132453465D01*
G37*
G36*
X128488674Y-132453465D02*
G01*
X128526367Y-132464899D01*
X128561103Y-132483466D01*
X128591548Y-132508452D01*
X128616534Y-132538897D01*
X128635101Y-132573633D01*
X128646535Y-132611326D01*
X128651000Y-132656661D01*
X128651000Y-133743339D01*
X128646535Y-133788674D01*
X128635101Y-133826367D01*
X128616534Y-133861103D01*
X128591548Y-133891548D01*
X128561103Y-133916534D01*
X128526367Y-133935101D01*
X128488674Y-133946535D01*
X128443339Y-133951000D01*
X127606661Y-133951000D01*
X127561326Y-133946535D01*
X127523633Y-133935101D01*
X127488897Y-133916534D01*
X127458452Y-133891548D01*
X127433466Y-133861103D01*
X127414899Y-133826367D01*
X127403465Y-133788674D01*
X127399000Y-133743339D01*
X127399000Y-132656661D01*
X127403465Y-132611326D01*
X127414899Y-132573633D01*
X127433466Y-132538897D01*
X127458452Y-132508452D01*
X127488897Y-132483466D01*
X127523633Y-132464899D01*
X127561326Y-132453465D01*
X127606661Y-132449000D01*
X128443339Y-132449000D01*
X128488674Y-132453465D01*
G37*
G36*
X134536000Y-132758000D02*
G01*
X133434000Y-132758000D01*
X133434000Y-131656000D01*
X134536000Y-131656000D01*
X134536000Y-132758000D01*
G37*
G36*
X126438674Y-130190465D02*
G01*
X126476367Y-130201899D01*
X126511103Y-130220466D01*
X126541548Y-130245452D01*
X126566534Y-130275897D01*
X126585101Y-130310633D01*
X126596535Y-130348326D01*
X126601000Y-130393661D01*
X126601000Y-131480339D01*
X126596535Y-131525674D01*
X126585101Y-131563367D01*
X126566534Y-131598103D01*
X126541548Y-131628548D01*
X126511103Y-131653534D01*
X126476367Y-131672101D01*
X126438674Y-131683535D01*
X126393339Y-131688000D01*
X125556661Y-131688000D01*
X125511326Y-131683535D01*
X125473633Y-131672101D01*
X125438897Y-131653534D01*
X125408452Y-131628548D01*
X125383466Y-131598103D01*
X125364899Y-131563367D01*
X125353465Y-131525674D01*
X125349000Y-131480339D01*
X125349000Y-130393661D01*
X125353465Y-130348326D01*
X125364899Y-130310633D01*
X125383466Y-130275897D01*
X125408452Y-130245452D01*
X125438897Y-130220466D01*
X125473633Y-130201899D01*
X125511326Y-130190465D01*
X125556661Y-130186000D01*
X126393339Y-130186000D01*
X126438674Y-130190465D01*
G37*
G36*
X128488674Y-130190465D02*
G01*
X128526367Y-130201899D01*
X128561103Y-130220466D01*
X128591548Y-130245452D01*
X128616534Y-130275897D01*
X128635101Y-130310633D01*
X128646535Y-130348326D01*
X128651000Y-130393661D01*
X128651000Y-131480339D01*
X128646535Y-131525674D01*
X128635101Y-131563367D01*
X128616534Y-131598103D01*
X128591548Y-131628548D01*
X128561103Y-131653534D01*
X128526367Y-131672101D01*
X128488674Y-131683535D01*
X128443339Y-131688000D01*
X127606661Y-131688000D01*
X127561326Y-131683535D01*
X127523633Y-131672101D01*
X127488897Y-131653534D01*
X127458452Y-131628548D01*
X127433466Y-131598103D01*
X127414899Y-131563367D01*
X127403465Y-131525674D01*
X127399000Y-131480339D01*
X127399000Y-130393661D01*
X127403465Y-130348326D01*
X127414899Y-130310633D01*
X127433466Y-130275897D01*
X127458452Y-130245452D01*
X127488897Y-130220466D01*
X127523633Y-130201899D01*
X127561326Y-130190465D01*
X127606661Y-130186000D01*
X128443339Y-130186000D01*
X128488674Y-130190465D01*
G37*
G36*
X156325562Y-128778181D02*
G01*
X156360481Y-128788774D01*
X156392663Y-128805976D01*
X156420873Y-128829127D01*
X156444024Y-128857337D01*
X156461226Y-128889519D01*
X156471819Y-128924438D01*
X156476000Y-128966895D01*
X156476000Y-130433105D01*
X156471819Y-130475562D01*
X156461226Y-130510481D01*
X156444024Y-130542663D01*
X156420873Y-130570873D01*
X156392663Y-130594024D01*
X156360481Y-130611226D01*
X156325562Y-130621819D01*
X156283105Y-130626000D01*
X155141895Y-130626000D01*
X155099438Y-130621819D01*
X155064519Y-130611226D01*
X155032337Y-130594024D01*
X155004127Y-130570873D01*
X154980976Y-130542663D01*
X154963774Y-130510481D01*
X154953181Y-130475562D01*
X154949000Y-130433105D01*
X154949000Y-128966895D01*
X154953181Y-128924438D01*
X154963774Y-128889519D01*
X154980976Y-128857337D01*
X155004127Y-128829127D01*
X155032337Y-128805976D01*
X155064519Y-128788774D01*
X155099438Y-128778181D01*
X155141895Y-128774000D01*
X156283105Y-128774000D01*
X156325562Y-128778181D01*
G37*
G36*
X159300562Y-128778181D02*
G01*
X159335481Y-128788774D01*
X159367663Y-128805976D01*
X159395873Y-128829127D01*
X159419024Y-128857337D01*
X159436226Y-128889519D01*
X159446819Y-128924438D01*
X159451000Y-128966895D01*
X159451000Y-130433105D01*
X159446819Y-130475562D01*
X159436226Y-130510481D01*
X159419024Y-130542663D01*
X159395873Y-130570873D01*
X159367663Y-130594024D01*
X159335481Y-130611226D01*
X159300562Y-130621819D01*
X159258105Y-130626000D01*
X158116895Y-130626000D01*
X158074438Y-130621819D01*
X158039519Y-130611226D01*
X158007337Y-130594024D01*
X157979127Y-130570873D01*
X157955976Y-130542663D01*
X157938774Y-130510481D01*
X157928181Y-130475562D01*
X157924000Y-130433105D01*
X157924000Y-128966895D01*
X157928181Y-128924438D01*
X157938774Y-128889519D01*
X157955976Y-128857337D01*
X157979127Y-128829127D01*
X158007337Y-128805976D01*
X158039519Y-128788774D01*
X158074438Y-128778181D01*
X158116895Y-128774000D01*
X159258105Y-128774000D01*
X159300562Y-128778181D01*
G37*
G36*
X128289499Y-128510445D02*
G01*
X128326995Y-128521820D01*
X128361554Y-128540292D01*
X128391847Y-128565153D01*
X128416708Y-128595446D01*
X128435180Y-128630005D01*
X128446555Y-128667501D01*
X128451000Y-128712638D01*
X128451000Y-129351362D01*
X128446555Y-129396499D01*
X128435180Y-129433995D01*
X128416708Y-129468554D01*
X128391847Y-129498847D01*
X128361554Y-129523708D01*
X128326995Y-129542180D01*
X128289499Y-129553555D01*
X128244362Y-129558000D01*
X127505638Y-129558000D01*
X127460501Y-129553555D01*
X127423005Y-129542180D01*
X127388446Y-129523708D01*
X127358153Y-129498847D01*
X127333292Y-129468554D01*
X127314820Y-129433995D01*
X127303445Y-129396499D01*
X127299000Y-129351362D01*
X127299000Y-128712638D01*
X127303445Y-128667501D01*
X127314820Y-128630005D01*
X127333292Y-128595446D01*
X127358153Y-128565153D01*
X127388446Y-128540292D01*
X127423005Y-128521820D01*
X127460501Y-128510445D01*
X127505638Y-128506000D01*
X128244362Y-128506000D01*
X128289499Y-128510445D01*
G37*
G36*
X126539499Y-128510445D02*
G01*
X126576995Y-128521820D01*
X126611554Y-128540292D01*
X126641847Y-128565153D01*
X126666708Y-128595446D01*
X126685180Y-128630005D01*
X126696555Y-128667501D01*
X126701000Y-128712638D01*
X126701000Y-129351362D01*
X126696555Y-129396499D01*
X126685180Y-129433995D01*
X126666708Y-129468554D01*
X126641847Y-129498847D01*
X126611554Y-129523708D01*
X126576995Y-129542180D01*
X126539499Y-129553555D01*
X126494362Y-129558000D01*
X125755638Y-129558000D01*
X125710501Y-129553555D01*
X125673005Y-129542180D01*
X125638446Y-129523708D01*
X125608153Y-129498847D01*
X125583292Y-129468554D01*
X125564820Y-129433995D01*
X125553445Y-129396499D01*
X125549000Y-129351362D01*
X125549000Y-128712638D01*
X125553445Y-128667501D01*
X125564820Y-128630005D01*
X125583292Y-128595446D01*
X125608153Y-128565153D01*
X125638446Y-128540292D01*
X125673005Y-128521820D01*
X125710501Y-128510445D01*
X125755638Y-128506000D01*
X126494362Y-128506000D01*
X126539499Y-128510445D01*
G37*
G36*
X141251000Y-128251000D02*
G01*
X138149000Y-128251000D01*
X138149000Y-125149000D01*
X141251000Y-125149000D01*
X141251000Y-128251000D01*
G37*
G36*
X145082585Y-125178802D02*
G01*
X145232410Y-125208604D01*
X145514674Y-125325521D01*
X145768705Y-125495259D01*
X145984741Y-125711295D01*
X146154479Y-125965326D01*
X146271396Y-126247590D01*
X146331000Y-126547240D01*
X146331000Y-126852760D01*
X146271396Y-127152410D01*
X146154479Y-127434674D01*
X145984741Y-127688705D01*
X145768705Y-127904741D01*
X145514674Y-128074479D01*
X145232410Y-128191396D01*
X145082585Y-128221198D01*
X144932761Y-128251000D01*
X144627239Y-128251000D01*
X144477415Y-128221198D01*
X144327590Y-128191396D01*
X144045326Y-128074479D01*
X143791295Y-127904741D01*
X143575259Y-127688705D01*
X143405521Y-127434674D01*
X143288604Y-127152410D01*
X143229000Y-126852760D01*
X143229000Y-126547240D01*
X143288604Y-126247590D01*
X143405521Y-125965326D01*
X143575259Y-125711295D01*
X143791295Y-125495259D01*
X144045326Y-125325521D01*
X144327590Y-125208604D01*
X144477415Y-125178802D01*
X144627239Y-125149000D01*
X144932761Y-125149000D01*
X145082585Y-125178802D01*
G37*
G36*
X150162585Y-125178802D02*
G01*
X150312410Y-125208604D01*
X150594674Y-125325521D01*
X150848705Y-125495259D01*
X151064741Y-125711295D01*
X151234479Y-125965326D01*
X151351396Y-126247590D01*
X151411000Y-126547240D01*
X151411000Y-126852760D01*
X151351396Y-127152410D01*
X151234479Y-127434674D01*
X151064741Y-127688705D01*
X150848705Y-127904741D01*
X150594674Y-128074479D01*
X150312410Y-128191396D01*
X150162585Y-128221198D01*
X150012761Y-128251000D01*
X149707239Y-128251000D01*
X149557415Y-128221198D01*
X149407590Y-128191396D01*
X149125326Y-128074479D01*
X148871295Y-127904741D01*
X148655259Y-127688705D01*
X148485521Y-127434674D01*
X148368604Y-127152410D01*
X148309000Y-126852760D01*
X148309000Y-126547240D01*
X148368604Y-126247590D01*
X148485521Y-125965326D01*
X148655259Y-125711295D01*
X148871295Y-125495259D01*
X149125326Y-125325521D01*
X149407590Y-125208604D01*
X149557415Y-125178802D01*
X149707239Y-125149000D01*
X150012761Y-125149000D01*
X150162585Y-125178802D01*
G37*
G36*
X156325562Y-125578181D02*
G01*
X156360481Y-125588774D01*
X156392663Y-125605976D01*
X156420873Y-125629127D01*
X156444024Y-125657337D01*
X156461226Y-125689519D01*
X156471819Y-125724438D01*
X156476000Y-125766895D01*
X156476000Y-127233105D01*
X156471819Y-127275562D01*
X156461226Y-127310481D01*
X156444024Y-127342663D01*
X156420873Y-127370873D01*
X156392663Y-127394024D01*
X156360481Y-127411226D01*
X156325562Y-127421819D01*
X156283105Y-127426000D01*
X155141895Y-127426000D01*
X155099438Y-127421819D01*
X155064519Y-127411226D01*
X155032337Y-127394024D01*
X155004127Y-127370873D01*
X154980976Y-127342663D01*
X154963774Y-127310481D01*
X154953181Y-127275562D01*
X154949000Y-127233105D01*
X154949000Y-125766895D01*
X154953181Y-125724438D01*
X154963774Y-125689519D01*
X154980976Y-125657337D01*
X155004127Y-125629127D01*
X155032337Y-125605976D01*
X155064519Y-125588774D01*
X155099438Y-125578181D01*
X155141895Y-125574000D01*
X156283105Y-125574000D01*
X156325562Y-125578181D01*
G37*
G36*
X159300562Y-125578181D02*
G01*
X159335481Y-125588774D01*
X159367663Y-125605976D01*
X159395873Y-125629127D01*
X159419024Y-125657337D01*
X159436226Y-125689519D01*
X159446819Y-125724438D01*
X159451000Y-125766895D01*
X159451000Y-127233105D01*
X159446819Y-127275562D01*
X159436226Y-127310481D01*
X159419024Y-127342663D01*
X159395873Y-127370873D01*
X159367663Y-127394024D01*
X159335481Y-127411226D01*
X159300562Y-127421819D01*
X159258105Y-127426000D01*
X158116895Y-127426000D01*
X158074438Y-127421819D01*
X158039519Y-127411226D01*
X158007337Y-127394024D01*
X157979127Y-127370873D01*
X157955976Y-127342663D01*
X157938774Y-127310481D01*
X157928181Y-127275562D01*
X157924000Y-127233105D01*
X157924000Y-125766895D01*
X157928181Y-125724438D01*
X157938774Y-125689519D01*
X157955976Y-125657337D01*
X157979127Y-125629127D01*
X158007337Y-125605976D01*
X158039519Y-125588774D01*
X158074438Y-125578181D01*
X158116895Y-125574000D01*
X159258105Y-125574000D01*
X159300562Y-125578181D01*
G37*
M02*
