G04 #@! TF.GenerationSoftware,KiCad,Pcbnew,(5.1.5)-2*
G04 #@! TF.CreationDate,2020-02-05T11:48:52+00:00*
G04 #@! TF.ProjectId,OPA1622_eval,4f504131-3632-4325-9f65-76616c2e6b69,rev?*
G04 #@! TF.SameCoordinates,Original*
G04 #@! TF.FileFunction,Copper,L1,Top*
G04 #@! TF.FilePolarity,Positive*
%FSLAX46Y46*%
G04 Gerber Fmt 4.6, Leading zero omitted, Abs format (unit mm)*
G04 Created by KiCad (PCBNEW (5.1.5)-2) date 2020-02-05 11:48:52*
%MOMM*%
%LPD*%
G04 APERTURE LIST*
%ADD10R,1.000000X1.000000*%
%ADD11C,0.100000*%
%ADD12O,0.850000X0.280000*%
%ADD13R,0.280000X0.280000*%
%ADD14R,0.680000X1.050000*%
%ADD15R,0.280000X0.700000*%
%ADD16R,0.260000X0.500000*%
%ADD17R,1.650000X2.400000*%
%ADD18C,0.600000*%
%ADD19C,1.440000*%
%ADD20R,3.000000X3.000000*%
%ADD21C,3.000000*%
%ADD22C,0.800000*%
%ADD23C,0.250000*%
%ADD24C,1.250000*%
%ADD25C,1.500000*%
%ADD26C,1.000000*%
%ADD27C,0.500000*%
%ADD28C,0.254000*%
G04 APERTURE END LIST*
D10*
X150495000Y-136271000D03*
X151511000Y-148717000D03*
X131318000Y-143129000D03*
X136779000Y-149225000D03*
X133985000Y-132207000D03*
G04 #@! TA.AperFunction,SMDPad,CuDef*
D11*
G36*
X130642505Y-149161204D02*
G01*
X130666773Y-149164804D01*
X130690572Y-149170765D01*
X130713671Y-149179030D01*
X130735850Y-149189520D01*
X130756893Y-149202132D01*
X130776599Y-149216747D01*
X130794777Y-149233223D01*
X130811253Y-149251401D01*
X130825868Y-149271107D01*
X130838480Y-149292150D01*
X130848970Y-149314329D01*
X130857235Y-149337428D01*
X130863196Y-149361227D01*
X130866796Y-149385495D01*
X130868000Y-149409999D01*
X130868000Y-150310001D01*
X130866796Y-150334505D01*
X130863196Y-150358773D01*
X130857235Y-150382572D01*
X130848970Y-150405671D01*
X130838480Y-150427850D01*
X130825868Y-150448893D01*
X130811253Y-150468599D01*
X130794777Y-150486777D01*
X130776599Y-150503253D01*
X130756893Y-150517868D01*
X130735850Y-150530480D01*
X130713671Y-150540970D01*
X130690572Y-150549235D01*
X130666773Y-150555196D01*
X130642505Y-150558796D01*
X130618001Y-150560000D01*
X129967999Y-150560000D01*
X129943495Y-150558796D01*
X129919227Y-150555196D01*
X129895428Y-150549235D01*
X129872329Y-150540970D01*
X129850150Y-150530480D01*
X129829107Y-150517868D01*
X129809401Y-150503253D01*
X129791223Y-150486777D01*
X129774747Y-150468599D01*
X129760132Y-150448893D01*
X129747520Y-150427850D01*
X129737030Y-150405671D01*
X129728765Y-150382572D01*
X129722804Y-150358773D01*
X129719204Y-150334505D01*
X129718000Y-150310001D01*
X129718000Y-149409999D01*
X129719204Y-149385495D01*
X129722804Y-149361227D01*
X129728765Y-149337428D01*
X129737030Y-149314329D01*
X129747520Y-149292150D01*
X129760132Y-149271107D01*
X129774747Y-149251401D01*
X129791223Y-149233223D01*
X129809401Y-149216747D01*
X129829107Y-149202132D01*
X129850150Y-149189520D01*
X129872329Y-149179030D01*
X129895428Y-149170765D01*
X129919227Y-149164804D01*
X129943495Y-149161204D01*
X129967999Y-149160000D01*
X130618001Y-149160000D01*
X130642505Y-149161204D01*
G37*
G04 #@! TD.AperFunction*
G04 #@! TA.AperFunction,SMDPad,CuDef*
G36*
X132692505Y-149161204D02*
G01*
X132716773Y-149164804D01*
X132740572Y-149170765D01*
X132763671Y-149179030D01*
X132785850Y-149189520D01*
X132806893Y-149202132D01*
X132826599Y-149216747D01*
X132844777Y-149233223D01*
X132861253Y-149251401D01*
X132875868Y-149271107D01*
X132888480Y-149292150D01*
X132898970Y-149314329D01*
X132907235Y-149337428D01*
X132913196Y-149361227D01*
X132916796Y-149385495D01*
X132918000Y-149409999D01*
X132918000Y-150310001D01*
X132916796Y-150334505D01*
X132913196Y-150358773D01*
X132907235Y-150382572D01*
X132898970Y-150405671D01*
X132888480Y-150427850D01*
X132875868Y-150448893D01*
X132861253Y-150468599D01*
X132844777Y-150486777D01*
X132826599Y-150503253D01*
X132806893Y-150517868D01*
X132785850Y-150530480D01*
X132763671Y-150540970D01*
X132740572Y-150549235D01*
X132716773Y-150555196D01*
X132692505Y-150558796D01*
X132668001Y-150560000D01*
X132017999Y-150560000D01*
X131993495Y-150558796D01*
X131969227Y-150555196D01*
X131945428Y-150549235D01*
X131922329Y-150540970D01*
X131900150Y-150530480D01*
X131879107Y-150517868D01*
X131859401Y-150503253D01*
X131841223Y-150486777D01*
X131824747Y-150468599D01*
X131810132Y-150448893D01*
X131797520Y-150427850D01*
X131787030Y-150405671D01*
X131778765Y-150382572D01*
X131772804Y-150358773D01*
X131769204Y-150334505D01*
X131768000Y-150310001D01*
X131768000Y-149409999D01*
X131769204Y-149385495D01*
X131772804Y-149361227D01*
X131778765Y-149337428D01*
X131787030Y-149314329D01*
X131797520Y-149292150D01*
X131810132Y-149271107D01*
X131824747Y-149251401D01*
X131841223Y-149233223D01*
X131859401Y-149216747D01*
X131879107Y-149202132D01*
X131900150Y-149189520D01*
X131922329Y-149179030D01*
X131945428Y-149170765D01*
X131969227Y-149164804D01*
X131993495Y-149161204D01*
X132017999Y-149160000D01*
X132668001Y-149160000D01*
X132692505Y-149161204D01*
G37*
G04 #@! TD.AperFunction*
G04 #@! TA.AperFunction,SMDPad,CuDef*
G36*
X126324505Y-130238204D02*
G01*
X126348773Y-130241804D01*
X126372572Y-130247765D01*
X126395671Y-130256030D01*
X126417850Y-130266520D01*
X126438893Y-130279132D01*
X126458599Y-130293747D01*
X126476777Y-130310223D01*
X126493253Y-130328401D01*
X126507868Y-130348107D01*
X126520480Y-130369150D01*
X126530970Y-130391329D01*
X126539235Y-130414428D01*
X126545196Y-130438227D01*
X126548796Y-130462495D01*
X126550000Y-130486999D01*
X126550000Y-131387001D01*
X126548796Y-131411505D01*
X126545196Y-131435773D01*
X126539235Y-131459572D01*
X126530970Y-131482671D01*
X126520480Y-131504850D01*
X126507868Y-131525893D01*
X126493253Y-131545599D01*
X126476777Y-131563777D01*
X126458599Y-131580253D01*
X126438893Y-131594868D01*
X126417850Y-131607480D01*
X126395671Y-131617970D01*
X126372572Y-131626235D01*
X126348773Y-131632196D01*
X126324505Y-131635796D01*
X126300001Y-131637000D01*
X125649999Y-131637000D01*
X125625495Y-131635796D01*
X125601227Y-131632196D01*
X125577428Y-131626235D01*
X125554329Y-131617970D01*
X125532150Y-131607480D01*
X125511107Y-131594868D01*
X125491401Y-131580253D01*
X125473223Y-131563777D01*
X125456747Y-131545599D01*
X125442132Y-131525893D01*
X125429520Y-131504850D01*
X125419030Y-131482671D01*
X125410765Y-131459572D01*
X125404804Y-131435773D01*
X125401204Y-131411505D01*
X125400000Y-131387001D01*
X125400000Y-130486999D01*
X125401204Y-130462495D01*
X125404804Y-130438227D01*
X125410765Y-130414428D01*
X125419030Y-130391329D01*
X125429520Y-130369150D01*
X125442132Y-130348107D01*
X125456747Y-130328401D01*
X125473223Y-130310223D01*
X125491401Y-130293747D01*
X125511107Y-130279132D01*
X125532150Y-130266520D01*
X125554329Y-130256030D01*
X125577428Y-130247765D01*
X125601227Y-130241804D01*
X125625495Y-130238204D01*
X125649999Y-130237000D01*
X126300001Y-130237000D01*
X126324505Y-130238204D01*
G37*
G04 #@! TD.AperFunction*
G04 #@! TA.AperFunction,SMDPad,CuDef*
G36*
X128374505Y-130238204D02*
G01*
X128398773Y-130241804D01*
X128422572Y-130247765D01*
X128445671Y-130256030D01*
X128467850Y-130266520D01*
X128488893Y-130279132D01*
X128508599Y-130293747D01*
X128526777Y-130310223D01*
X128543253Y-130328401D01*
X128557868Y-130348107D01*
X128570480Y-130369150D01*
X128580970Y-130391329D01*
X128589235Y-130414428D01*
X128595196Y-130438227D01*
X128598796Y-130462495D01*
X128600000Y-130486999D01*
X128600000Y-131387001D01*
X128598796Y-131411505D01*
X128595196Y-131435773D01*
X128589235Y-131459572D01*
X128580970Y-131482671D01*
X128570480Y-131504850D01*
X128557868Y-131525893D01*
X128543253Y-131545599D01*
X128526777Y-131563777D01*
X128508599Y-131580253D01*
X128488893Y-131594868D01*
X128467850Y-131607480D01*
X128445671Y-131617970D01*
X128422572Y-131626235D01*
X128398773Y-131632196D01*
X128374505Y-131635796D01*
X128350001Y-131637000D01*
X127699999Y-131637000D01*
X127675495Y-131635796D01*
X127651227Y-131632196D01*
X127627428Y-131626235D01*
X127604329Y-131617970D01*
X127582150Y-131607480D01*
X127561107Y-131594868D01*
X127541401Y-131580253D01*
X127523223Y-131563777D01*
X127506747Y-131545599D01*
X127492132Y-131525893D01*
X127479520Y-131504850D01*
X127469030Y-131482671D01*
X127460765Y-131459572D01*
X127454804Y-131435773D01*
X127451204Y-131411505D01*
X127450000Y-131387001D01*
X127450000Y-130486999D01*
X127451204Y-130462495D01*
X127454804Y-130438227D01*
X127460765Y-130414428D01*
X127469030Y-130391329D01*
X127479520Y-130369150D01*
X127492132Y-130348107D01*
X127506747Y-130328401D01*
X127523223Y-130310223D01*
X127541401Y-130293747D01*
X127561107Y-130279132D01*
X127582150Y-130266520D01*
X127604329Y-130256030D01*
X127627428Y-130247765D01*
X127651227Y-130241804D01*
X127675495Y-130238204D01*
X127699999Y-130237000D01*
X128350001Y-130237000D01*
X128374505Y-130238204D01*
G37*
G04 #@! TD.AperFunction*
G04 #@! TA.AperFunction,SMDPad,CuDef*
G36*
X147678505Y-147764204D02*
G01*
X147702773Y-147767804D01*
X147726572Y-147773765D01*
X147749671Y-147782030D01*
X147771850Y-147792520D01*
X147792893Y-147805132D01*
X147812599Y-147819747D01*
X147830777Y-147836223D01*
X147847253Y-147854401D01*
X147861868Y-147874107D01*
X147874480Y-147895150D01*
X147884970Y-147917329D01*
X147893235Y-147940428D01*
X147899196Y-147964227D01*
X147902796Y-147988495D01*
X147904000Y-148012999D01*
X147904000Y-148913001D01*
X147902796Y-148937505D01*
X147899196Y-148961773D01*
X147893235Y-148985572D01*
X147884970Y-149008671D01*
X147874480Y-149030850D01*
X147861868Y-149051893D01*
X147847253Y-149071599D01*
X147830777Y-149089777D01*
X147812599Y-149106253D01*
X147792893Y-149120868D01*
X147771850Y-149133480D01*
X147749671Y-149143970D01*
X147726572Y-149152235D01*
X147702773Y-149158196D01*
X147678505Y-149161796D01*
X147654001Y-149163000D01*
X147003999Y-149163000D01*
X146979495Y-149161796D01*
X146955227Y-149158196D01*
X146931428Y-149152235D01*
X146908329Y-149143970D01*
X146886150Y-149133480D01*
X146865107Y-149120868D01*
X146845401Y-149106253D01*
X146827223Y-149089777D01*
X146810747Y-149071599D01*
X146796132Y-149051893D01*
X146783520Y-149030850D01*
X146773030Y-149008671D01*
X146764765Y-148985572D01*
X146758804Y-148961773D01*
X146755204Y-148937505D01*
X146754000Y-148913001D01*
X146754000Y-148012999D01*
X146755204Y-147988495D01*
X146758804Y-147964227D01*
X146764765Y-147940428D01*
X146773030Y-147917329D01*
X146783520Y-147895150D01*
X146796132Y-147874107D01*
X146810747Y-147854401D01*
X146827223Y-147836223D01*
X146845401Y-147819747D01*
X146865107Y-147805132D01*
X146886150Y-147792520D01*
X146908329Y-147782030D01*
X146931428Y-147773765D01*
X146955227Y-147767804D01*
X146979495Y-147764204D01*
X147003999Y-147763000D01*
X147654001Y-147763000D01*
X147678505Y-147764204D01*
G37*
G04 #@! TD.AperFunction*
G04 #@! TA.AperFunction,SMDPad,CuDef*
G36*
X145628505Y-147764204D02*
G01*
X145652773Y-147767804D01*
X145676572Y-147773765D01*
X145699671Y-147782030D01*
X145721850Y-147792520D01*
X145742893Y-147805132D01*
X145762599Y-147819747D01*
X145780777Y-147836223D01*
X145797253Y-147854401D01*
X145811868Y-147874107D01*
X145824480Y-147895150D01*
X145834970Y-147917329D01*
X145843235Y-147940428D01*
X145849196Y-147964227D01*
X145852796Y-147988495D01*
X145854000Y-148012999D01*
X145854000Y-148913001D01*
X145852796Y-148937505D01*
X145849196Y-148961773D01*
X145843235Y-148985572D01*
X145834970Y-149008671D01*
X145824480Y-149030850D01*
X145811868Y-149051893D01*
X145797253Y-149071599D01*
X145780777Y-149089777D01*
X145762599Y-149106253D01*
X145742893Y-149120868D01*
X145721850Y-149133480D01*
X145699671Y-149143970D01*
X145676572Y-149152235D01*
X145652773Y-149158196D01*
X145628505Y-149161796D01*
X145604001Y-149163000D01*
X144953999Y-149163000D01*
X144929495Y-149161796D01*
X144905227Y-149158196D01*
X144881428Y-149152235D01*
X144858329Y-149143970D01*
X144836150Y-149133480D01*
X144815107Y-149120868D01*
X144795401Y-149106253D01*
X144777223Y-149089777D01*
X144760747Y-149071599D01*
X144746132Y-149051893D01*
X144733520Y-149030850D01*
X144723030Y-149008671D01*
X144714765Y-148985572D01*
X144708804Y-148961773D01*
X144705204Y-148937505D01*
X144704000Y-148913001D01*
X144704000Y-148012999D01*
X144705204Y-147988495D01*
X144708804Y-147964227D01*
X144714765Y-147940428D01*
X144723030Y-147917329D01*
X144733520Y-147895150D01*
X144746132Y-147874107D01*
X144760747Y-147854401D01*
X144777223Y-147836223D01*
X144795401Y-147819747D01*
X144815107Y-147805132D01*
X144836150Y-147792520D01*
X144858329Y-147782030D01*
X144881428Y-147773765D01*
X144905227Y-147767804D01*
X144929495Y-147764204D01*
X144953999Y-147763000D01*
X145604001Y-147763000D01*
X145628505Y-147764204D01*
G37*
G04 #@! TD.AperFunction*
G04 #@! TA.AperFunction,SMDPad,CuDef*
G36*
X143115505Y-147764204D02*
G01*
X143139773Y-147767804D01*
X143163572Y-147773765D01*
X143186671Y-147782030D01*
X143208850Y-147792520D01*
X143229893Y-147805132D01*
X143249599Y-147819747D01*
X143267777Y-147836223D01*
X143284253Y-147854401D01*
X143298868Y-147874107D01*
X143311480Y-147895150D01*
X143321970Y-147917329D01*
X143330235Y-147940428D01*
X143336196Y-147964227D01*
X143339796Y-147988495D01*
X143341000Y-148012999D01*
X143341000Y-148913001D01*
X143339796Y-148937505D01*
X143336196Y-148961773D01*
X143330235Y-148985572D01*
X143321970Y-149008671D01*
X143311480Y-149030850D01*
X143298868Y-149051893D01*
X143284253Y-149071599D01*
X143267777Y-149089777D01*
X143249599Y-149106253D01*
X143229893Y-149120868D01*
X143208850Y-149133480D01*
X143186671Y-149143970D01*
X143163572Y-149152235D01*
X143139773Y-149158196D01*
X143115505Y-149161796D01*
X143091001Y-149163000D01*
X142440999Y-149163000D01*
X142416495Y-149161796D01*
X142392227Y-149158196D01*
X142368428Y-149152235D01*
X142345329Y-149143970D01*
X142323150Y-149133480D01*
X142302107Y-149120868D01*
X142282401Y-149106253D01*
X142264223Y-149089777D01*
X142247747Y-149071599D01*
X142233132Y-149051893D01*
X142220520Y-149030850D01*
X142210030Y-149008671D01*
X142201765Y-148985572D01*
X142195804Y-148961773D01*
X142192204Y-148937505D01*
X142191000Y-148913001D01*
X142191000Y-148012999D01*
X142192204Y-147988495D01*
X142195804Y-147964227D01*
X142201765Y-147940428D01*
X142210030Y-147917329D01*
X142220520Y-147895150D01*
X142233132Y-147874107D01*
X142247747Y-147854401D01*
X142264223Y-147836223D01*
X142282401Y-147819747D01*
X142302107Y-147805132D01*
X142323150Y-147792520D01*
X142345329Y-147782030D01*
X142368428Y-147773765D01*
X142392227Y-147767804D01*
X142416495Y-147764204D01*
X142440999Y-147763000D01*
X143091001Y-147763000D01*
X143115505Y-147764204D01*
G37*
G04 #@! TD.AperFunction*
G04 #@! TA.AperFunction,SMDPad,CuDef*
G36*
X141065505Y-147764204D02*
G01*
X141089773Y-147767804D01*
X141113572Y-147773765D01*
X141136671Y-147782030D01*
X141158850Y-147792520D01*
X141179893Y-147805132D01*
X141199599Y-147819747D01*
X141217777Y-147836223D01*
X141234253Y-147854401D01*
X141248868Y-147874107D01*
X141261480Y-147895150D01*
X141271970Y-147917329D01*
X141280235Y-147940428D01*
X141286196Y-147964227D01*
X141289796Y-147988495D01*
X141291000Y-148012999D01*
X141291000Y-148913001D01*
X141289796Y-148937505D01*
X141286196Y-148961773D01*
X141280235Y-148985572D01*
X141271970Y-149008671D01*
X141261480Y-149030850D01*
X141248868Y-149051893D01*
X141234253Y-149071599D01*
X141217777Y-149089777D01*
X141199599Y-149106253D01*
X141179893Y-149120868D01*
X141158850Y-149133480D01*
X141136671Y-149143970D01*
X141113572Y-149152235D01*
X141089773Y-149158196D01*
X141065505Y-149161796D01*
X141041001Y-149163000D01*
X140390999Y-149163000D01*
X140366495Y-149161796D01*
X140342227Y-149158196D01*
X140318428Y-149152235D01*
X140295329Y-149143970D01*
X140273150Y-149133480D01*
X140252107Y-149120868D01*
X140232401Y-149106253D01*
X140214223Y-149089777D01*
X140197747Y-149071599D01*
X140183132Y-149051893D01*
X140170520Y-149030850D01*
X140160030Y-149008671D01*
X140151765Y-148985572D01*
X140145804Y-148961773D01*
X140142204Y-148937505D01*
X140141000Y-148913001D01*
X140141000Y-148012999D01*
X140142204Y-147988495D01*
X140145804Y-147964227D01*
X140151765Y-147940428D01*
X140160030Y-147917329D01*
X140170520Y-147895150D01*
X140183132Y-147874107D01*
X140197747Y-147854401D01*
X140214223Y-147836223D01*
X140232401Y-147819747D01*
X140252107Y-147805132D01*
X140273150Y-147792520D01*
X140295329Y-147782030D01*
X140318428Y-147773765D01*
X140342227Y-147767804D01*
X140366495Y-147764204D01*
X140390999Y-147763000D01*
X141041001Y-147763000D01*
X141065505Y-147764204D01*
G37*
G04 #@! TD.AperFunction*
G04 #@! TA.AperFunction,SMDPad,CuDef*
G36*
X128439779Y-149513144D02*
G01*
X128462834Y-149516563D01*
X128485443Y-149522227D01*
X128507387Y-149530079D01*
X128528457Y-149540044D01*
X128548448Y-149552026D01*
X128567168Y-149565910D01*
X128584438Y-149581562D01*
X128600090Y-149598832D01*
X128613974Y-149617552D01*
X128625956Y-149637543D01*
X128635921Y-149658613D01*
X128643773Y-149680557D01*
X128649437Y-149703166D01*
X128652856Y-149726221D01*
X128654000Y-149749500D01*
X128654000Y-150224500D01*
X128652856Y-150247779D01*
X128649437Y-150270834D01*
X128643773Y-150293443D01*
X128635921Y-150315387D01*
X128625956Y-150336457D01*
X128613974Y-150356448D01*
X128600090Y-150375168D01*
X128584438Y-150392438D01*
X128567168Y-150408090D01*
X128548448Y-150421974D01*
X128528457Y-150433956D01*
X128507387Y-150443921D01*
X128485443Y-150451773D01*
X128462834Y-150457437D01*
X128439779Y-150460856D01*
X128416500Y-150462000D01*
X127841500Y-150462000D01*
X127818221Y-150460856D01*
X127795166Y-150457437D01*
X127772557Y-150451773D01*
X127750613Y-150443921D01*
X127729543Y-150433956D01*
X127709552Y-150421974D01*
X127690832Y-150408090D01*
X127673562Y-150392438D01*
X127657910Y-150375168D01*
X127644026Y-150356448D01*
X127632044Y-150336457D01*
X127622079Y-150315387D01*
X127614227Y-150293443D01*
X127608563Y-150270834D01*
X127605144Y-150247779D01*
X127604000Y-150224500D01*
X127604000Y-149749500D01*
X127605144Y-149726221D01*
X127608563Y-149703166D01*
X127614227Y-149680557D01*
X127622079Y-149658613D01*
X127632044Y-149637543D01*
X127644026Y-149617552D01*
X127657910Y-149598832D01*
X127673562Y-149581562D01*
X127690832Y-149565910D01*
X127709552Y-149552026D01*
X127729543Y-149540044D01*
X127750613Y-149530079D01*
X127772557Y-149522227D01*
X127795166Y-149516563D01*
X127818221Y-149513144D01*
X127841500Y-149512000D01*
X128416500Y-149512000D01*
X128439779Y-149513144D01*
G37*
G04 #@! TD.AperFunction*
G04 #@! TA.AperFunction,SMDPad,CuDef*
G36*
X126689779Y-149513144D02*
G01*
X126712834Y-149516563D01*
X126735443Y-149522227D01*
X126757387Y-149530079D01*
X126778457Y-149540044D01*
X126798448Y-149552026D01*
X126817168Y-149565910D01*
X126834438Y-149581562D01*
X126850090Y-149598832D01*
X126863974Y-149617552D01*
X126875956Y-149637543D01*
X126885921Y-149658613D01*
X126893773Y-149680557D01*
X126899437Y-149703166D01*
X126902856Y-149726221D01*
X126904000Y-149749500D01*
X126904000Y-150224500D01*
X126902856Y-150247779D01*
X126899437Y-150270834D01*
X126893773Y-150293443D01*
X126885921Y-150315387D01*
X126875956Y-150336457D01*
X126863974Y-150356448D01*
X126850090Y-150375168D01*
X126834438Y-150392438D01*
X126817168Y-150408090D01*
X126798448Y-150421974D01*
X126778457Y-150433956D01*
X126757387Y-150443921D01*
X126735443Y-150451773D01*
X126712834Y-150457437D01*
X126689779Y-150460856D01*
X126666500Y-150462000D01*
X126091500Y-150462000D01*
X126068221Y-150460856D01*
X126045166Y-150457437D01*
X126022557Y-150451773D01*
X126000613Y-150443921D01*
X125979543Y-150433956D01*
X125959552Y-150421974D01*
X125940832Y-150408090D01*
X125923562Y-150392438D01*
X125907910Y-150375168D01*
X125894026Y-150356448D01*
X125882044Y-150336457D01*
X125872079Y-150315387D01*
X125864227Y-150293443D01*
X125858563Y-150270834D01*
X125855144Y-150247779D01*
X125854000Y-150224500D01*
X125854000Y-149749500D01*
X125855144Y-149726221D01*
X125858563Y-149703166D01*
X125864227Y-149680557D01*
X125872079Y-149658613D01*
X125882044Y-149637543D01*
X125894026Y-149617552D01*
X125907910Y-149598832D01*
X125923562Y-149581562D01*
X125940832Y-149565910D01*
X125959552Y-149552026D01*
X125979543Y-149540044D01*
X126000613Y-149530079D01*
X126022557Y-149522227D01*
X126045166Y-149516563D01*
X126068221Y-149513144D01*
X126091500Y-149512000D01*
X126666500Y-149512000D01*
X126689779Y-149513144D01*
G37*
G04 #@! TD.AperFunction*
G04 #@! TA.AperFunction,SMDPad,CuDef*
G36*
X126435779Y-128558144D02*
G01*
X126458834Y-128561563D01*
X126481443Y-128567227D01*
X126503387Y-128575079D01*
X126524457Y-128585044D01*
X126544448Y-128597026D01*
X126563168Y-128610910D01*
X126580438Y-128626562D01*
X126596090Y-128643832D01*
X126609974Y-128662552D01*
X126621956Y-128682543D01*
X126631921Y-128703613D01*
X126639773Y-128725557D01*
X126645437Y-128748166D01*
X126648856Y-128771221D01*
X126650000Y-128794500D01*
X126650000Y-129269500D01*
X126648856Y-129292779D01*
X126645437Y-129315834D01*
X126639773Y-129338443D01*
X126631921Y-129360387D01*
X126621956Y-129381457D01*
X126609974Y-129401448D01*
X126596090Y-129420168D01*
X126580438Y-129437438D01*
X126563168Y-129453090D01*
X126544448Y-129466974D01*
X126524457Y-129478956D01*
X126503387Y-129488921D01*
X126481443Y-129496773D01*
X126458834Y-129502437D01*
X126435779Y-129505856D01*
X126412500Y-129507000D01*
X125837500Y-129507000D01*
X125814221Y-129505856D01*
X125791166Y-129502437D01*
X125768557Y-129496773D01*
X125746613Y-129488921D01*
X125725543Y-129478956D01*
X125705552Y-129466974D01*
X125686832Y-129453090D01*
X125669562Y-129437438D01*
X125653910Y-129420168D01*
X125640026Y-129401448D01*
X125628044Y-129381457D01*
X125618079Y-129360387D01*
X125610227Y-129338443D01*
X125604563Y-129315834D01*
X125601144Y-129292779D01*
X125600000Y-129269500D01*
X125600000Y-128794500D01*
X125601144Y-128771221D01*
X125604563Y-128748166D01*
X125610227Y-128725557D01*
X125618079Y-128703613D01*
X125628044Y-128682543D01*
X125640026Y-128662552D01*
X125653910Y-128643832D01*
X125669562Y-128626562D01*
X125686832Y-128610910D01*
X125705552Y-128597026D01*
X125725543Y-128585044D01*
X125746613Y-128575079D01*
X125768557Y-128567227D01*
X125791166Y-128561563D01*
X125814221Y-128558144D01*
X125837500Y-128557000D01*
X126412500Y-128557000D01*
X126435779Y-128558144D01*
G37*
G04 #@! TD.AperFunction*
G04 #@! TA.AperFunction,SMDPad,CuDef*
G36*
X128185779Y-128558144D02*
G01*
X128208834Y-128561563D01*
X128231443Y-128567227D01*
X128253387Y-128575079D01*
X128274457Y-128585044D01*
X128294448Y-128597026D01*
X128313168Y-128610910D01*
X128330438Y-128626562D01*
X128346090Y-128643832D01*
X128359974Y-128662552D01*
X128371956Y-128682543D01*
X128381921Y-128703613D01*
X128389773Y-128725557D01*
X128395437Y-128748166D01*
X128398856Y-128771221D01*
X128400000Y-128794500D01*
X128400000Y-129269500D01*
X128398856Y-129292779D01*
X128395437Y-129315834D01*
X128389773Y-129338443D01*
X128381921Y-129360387D01*
X128371956Y-129381457D01*
X128359974Y-129401448D01*
X128346090Y-129420168D01*
X128330438Y-129437438D01*
X128313168Y-129453090D01*
X128294448Y-129466974D01*
X128274457Y-129478956D01*
X128253387Y-129488921D01*
X128231443Y-129496773D01*
X128208834Y-129502437D01*
X128185779Y-129505856D01*
X128162500Y-129507000D01*
X127587500Y-129507000D01*
X127564221Y-129505856D01*
X127541166Y-129502437D01*
X127518557Y-129496773D01*
X127496613Y-129488921D01*
X127475543Y-129478956D01*
X127455552Y-129466974D01*
X127436832Y-129453090D01*
X127419562Y-129437438D01*
X127403910Y-129420168D01*
X127390026Y-129401448D01*
X127378044Y-129381457D01*
X127368079Y-129360387D01*
X127360227Y-129338443D01*
X127354563Y-129315834D01*
X127351144Y-129292779D01*
X127350000Y-129269500D01*
X127350000Y-128794500D01*
X127351144Y-128771221D01*
X127354563Y-128748166D01*
X127360227Y-128725557D01*
X127368079Y-128703613D01*
X127378044Y-128682543D01*
X127390026Y-128662552D01*
X127403910Y-128643832D01*
X127419562Y-128626562D01*
X127436832Y-128610910D01*
X127455552Y-128597026D01*
X127475543Y-128585044D01*
X127496613Y-128575079D01*
X127518557Y-128567227D01*
X127541166Y-128561563D01*
X127564221Y-128558144D01*
X127587500Y-128557000D01*
X128162500Y-128557000D01*
X128185779Y-128558144D01*
G37*
G04 #@! TD.AperFunction*
D12*
X142025000Y-140000000D03*
X142025000Y-140500000D03*
D13*
X141740000Y-141000000D03*
D12*
X142025000Y-141500000D03*
D13*
X141740000Y-142000000D03*
D12*
X144975000Y-142000000D03*
X144975000Y-141500000D03*
D13*
X145260000Y-141000000D03*
X145260000Y-140500000D03*
X145260000Y-140000000D03*
D14*
X143050000Y-140365000D03*
D15*
X143250000Y-139450000D03*
D16*
X143250000Y-139370000D03*
D15*
X143750000Y-139450000D03*
X143250000Y-142550000D03*
X143750000Y-142550000D03*
D16*
X143750000Y-139370000D03*
X143250000Y-142630000D03*
X143750000Y-142630000D03*
D14*
X143950000Y-140365000D03*
X143050000Y-141635000D03*
X143950000Y-141635000D03*
D17*
X143500000Y-141000000D03*
D13*
X141740000Y-140000000D03*
X141740000Y-140500000D03*
D12*
X142025000Y-141000000D03*
D13*
X141740000Y-141500000D03*
D12*
X142025000Y-142000000D03*
D13*
X145260000Y-142000000D03*
X145260000Y-141500000D03*
D12*
X144975000Y-141000000D03*
X144975000Y-140500000D03*
X144975000Y-140000000D03*
D18*
X144000000Y-141750000D03*
X143500000Y-141000000D03*
X144000000Y-140250000D03*
X143000000Y-140250000D03*
X143000000Y-141750000D03*
D19*
X125800000Y-138000000D03*
X128340000Y-140540000D03*
X125800000Y-143080000D03*
G04 #@! TA.AperFunction,SMDPad,CuDef*
D11*
G36*
X156199504Y-132406204D02*
G01*
X156223773Y-132409804D01*
X156247571Y-132415765D01*
X156270671Y-132424030D01*
X156292849Y-132434520D01*
X156313893Y-132447133D01*
X156333598Y-132461747D01*
X156351777Y-132478223D01*
X156368253Y-132496402D01*
X156382867Y-132516107D01*
X156395480Y-132537151D01*
X156405970Y-132559329D01*
X156414235Y-132582429D01*
X156420196Y-132606227D01*
X156423796Y-132630496D01*
X156425000Y-132655000D01*
X156425000Y-133905000D01*
X156423796Y-133929504D01*
X156420196Y-133953773D01*
X156414235Y-133977571D01*
X156405970Y-134000671D01*
X156395480Y-134022849D01*
X156382867Y-134043893D01*
X156368253Y-134063598D01*
X156351777Y-134081777D01*
X156333598Y-134098253D01*
X156313893Y-134112867D01*
X156292849Y-134125480D01*
X156270671Y-134135970D01*
X156247571Y-134144235D01*
X156223773Y-134150196D01*
X156199504Y-134153796D01*
X156175000Y-134155000D01*
X155250000Y-134155000D01*
X155225496Y-134153796D01*
X155201227Y-134150196D01*
X155177429Y-134144235D01*
X155154329Y-134135970D01*
X155132151Y-134125480D01*
X155111107Y-134112867D01*
X155091402Y-134098253D01*
X155073223Y-134081777D01*
X155056747Y-134063598D01*
X155042133Y-134043893D01*
X155029520Y-134022849D01*
X155019030Y-134000671D01*
X155010765Y-133977571D01*
X155004804Y-133953773D01*
X155001204Y-133929504D01*
X155000000Y-133905000D01*
X155000000Y-132655000D01*
X155001204Y-132630496D01*
X155004804Y-132606227D01*
X155010765Y-132582429D01*
X155019030Y-132559329D01*
X155029520Y-132537151D01*
X155042133Y-132516107D01*
X155056747Y-132496402D01*
X155073223Y-132478223D01*
X155091402Y-132461747D01*
X155111107Y-132447133D01*
X155132151Y-132434520D01*
X155154329Y-132424030D01*
X155177429Y-132415765D01*
X155201227Y-132409804D01*
X155225496Y-132406204D01*
X155250000Y-132405000D01*
X156175000Y-132405000D01*
X156199504Y-132406204D01*
G37*
G04 #@! TD.AperFunction*
G04 #@! TA.AperFunction,SMDPad,CuDef*
G36*
X159174504Y-132406204D02*
G01*
X159198773Y-132409804D01*
X159222571Y-132415765D01*
X159245671Y-132424030D01*
X159267849Y-132434520D01*
X159288893Y-132447133D01*
X159308598Y-132461747D01*
X159326777Y-132478223D01*
X159343253Y-132496402D01*
X159357867Y-132516107D01*
X159370480Y-132537151D01*
X159380970Y-132559329D01*
X159389235Y-132582429D01*
X159395196Y-132606227D01*
X159398796Y-132630496D01*
X159400000Y-132655000D01*
X159400000Y-133905000D01*
X159398796Y-133929504D01*
X159395196Y-133953773D01*
X159389235Y-133977571D01*
X159380970Y-134000671D01*
X159370480Y-134022849D01*
X159357867Y-134043893D01*
X159343253Y-134063598D01*
X159326777Y-134081777D01*
X159308598Y-134098253D01*
X159288893Y-134112867D01*
X159267849Y-134125480D01*
X159245671Y-134135970D01*
X159222571Y-134144235D01*
X159198773Y-134150196D01*
X159174504Y-134153796D01*
X159150000Y-134155000D01*
X158225000Y-134155000D01*
X158200496Y-134153796D01*
X158176227Y-134150196D01*
X158152429Y-134144235D01*
X158129329Y-134135970D01*
X158107151Y-134125480D01*
X158086107Y-134112867D01*
X158066402Y-134098253D01*
X158048223Y-134081777D01*
X158031747Y-134063598D01*
X158017133Y-134043893D01*
X158004520Y-134022849D01*
X157994030Y-134000671D01*
X157985765Y-133977571D01*
X157979804Y-133953773D01*
X157976204Y-133929504D01*
X157975000Y-133905000D01*
X157975000Y-132655000D01*
X157976204Y-132630496D01*
X157979804Y-132606227D01*
X157985765Y-132582429D01*
X157994030Y-132559329D01*
X158004520Y-132537151D01*
X158017133Y-132516107D01*
X158031747Y-132496402D01*
X158048223Y-132478223D01*
X158066402Y-132461747D01*
X158086107Y-132447133D01*
X158107151Y-132434520D01*
X158129329Y-132424030D01*
X158152429Y-132415765D01*
X158176227Y-132409804D01*
X158200496Y-132406204D01*
X158225000Y-132405000D01*
X159150000Y-132405000D01*
X159174504Y-132406204D01*
G37*
G04 #@! TD.AperFunction*
G04 #@! TA.AperFunction,SMDPad,CuDef*
G36*
X156199504Y-128826204D02*
G01*
X156223773Y-128829804D01*
X156247571Y-128835765D01*
X156270671Y-128844030D01*
X156292849Y-128854520D01*
X156313893Y-128867133D01*
X156333598Y-128881747D01*
X156351777Y-128898223D01*
X156368253Y-128916402D01*
X156382867Y-128936107D01*
X156395480Y-128957151D01*
X156405970Y-128979329D01*
X156414235Y-129002429D01*
X156420196Y-129026227D01*
X156423796Y-129050496D01*
X156425000Y-129075000D01*
X156425000Y-130325000D01*
X156423796Y-130349504D01*
X156420196Y-130373773D01*
X156414235Y-130397571D01*
X156405970Y-130420671D01*
X156395480Y-130442849D01*
X156382867Y-130463893D01*
X156368253Y-130483598D01*
X156351777Y-130501777D01*
X156333598Y-130518253D01*
X156313893Y-130532867D01*
X156292849Y-130545480D01*
X156270671Y-130555970D01*
X156247571Y-130564235D01*
X156223773Y-130570196D01*
X156199504Y-130573796D01*
X156175000Y-130575000D01*
X155250000Y-130575000D01*
X155225496Y-130573796D01*
X155201227Y-130570196D01*
X155177429Y-130564235D01*
X155154329Y-130555970D01*
X155132151Y-130545480D01*
X155111107Y-130532867D01*
X155091402Y-130518253D01*
X155073223Y-130501777D01*
X155056747Y-130483598D01*
X155042133Y-130463893D01*
X155029520Y-130442849D01*
X155019030Y-130420671D01*
X155010765Y-130397571D01*
X155004804Y-130373773D01*
X155001204Y-130349504D01*
X155000000Y-130325000D01*
X155000000Y-129075000D01*
X155001204Y-129050496D01*
X155004804Y-129026227D01*
X155010765Y-129002429D01*
X155019030Y-128979329D01*
X155029520Y-128957151D01*
X155042133Y-128936107D01*
X155056747Y-128916402D01*
X155073223Y-128898223D01*
X155091402Y-128881747D01*
X155111107Y-128867133D01*
X155132151Y-128854520D01*
X155154329Y-128844030D01*
X155177429Y-128835765D01*
X155201227Y-128829804D01*
X155225496Y-128826204D01*
X155250000Y-128825000D01*
X156175000Y-128825000D01*
X156199504Y-128826204D01*
G37*
G04 #@! TD.AperFunction*
G04 #@! TA.AperFunction,SMDPad,CuDef*
G36*
X159174504Y-128826204D02*
G01*
X159198773Y-128829804D01*
X159222571Y-128835765D01*
X159245671Y-128844030D01*
X159267849Y-128854520D01*
X159288893Y-128867133D01*
X159308598Y-128881747D01*
X159326777Y-128898223D01*
X159343253Y-128916402D01*
X159357867Y-128936107D01*
X159370480Y-128957151D01*
X159380970Y-128979329D01*
X159389235Y-129002429D01*
X159395196Y-129026227D01*
X159398796Y-129050496D01*
X159400000Y-129075000D01*
X159400000Y-130325000D01*
X159398796Y-130349504D01*
X159395196Y-130373773D01*
X159389235Y-130397571D01*
X159380970Y-130420671D01*
X159370480Y-130442849D01*
X159357867Y-130463893D01*
X159343253Y-130483598D01*
X159326777Y-130501777D01*
X159308598Y-130518253D01*
X159288893Y-130532867D01*
X159267849Y-130545480D01*
X159245671Y-130555970D01*
X159222571Y-130564235D01*
X159198773Y-130570196D01*
X159174504Y-130573796D01*
X159150000Y-130575000D01*
X158225000Y-130575000D01*
X158200496Y-130573796D01*
X158176227Y-130570196D01*
X158152429Y-130564235D01*
X158129329Y-130555970D01*
X158107151Y-130545480D01*
X158086107Y-130532867D01*
X158066402Y-130518253D01*
X158048223Y-130501777D01*
X158031747Y-130483598D01*
X158017133Y-130463893D01*
X158004520Y-130442849D01*
X157994030Y-130420671D01*
X157985765Y-130397571D01*
X157979804Y-130373773D01*
X157976204Y-130349504D01*
X157975000Y-130325000D01*
X157975000Y-129075000D01*
X157976204Y-129050496D01*
X157979804Y-129026227D01*
X157985765Y-129002429D01*
X157994030Y-128979329D01*
X158004520Y-128957151D01*
X158017133Y-128936107D01*
X158031747Y-128916402D01*
X158048223Y-128898223D01*
X158066402Y-128881747D01*
X158086107Y-128867133D01*
X158107151Y-128854520D01*
X158129329Y-128844030D01*
X158152429Y-128835765D01*
X158176227Y-128829804D01*
X158200496Y-128826204D01*
X158225000Y-128825000D01*
X159150000Y-128825000D01*
X159174504Y-128826204D01*
G37*
G04 #@! TD.AperFunction*
G04 #@! TA.AperFunction,SMDPad,CuDef*
G36*
X156199504Y-125626204D02*
G01*
X156223773Y-125629804D01*
X156247571Y-125635765D01*
X156270671Y-125644030D01*
X156292849Y-125654520D01*
X156313893Y-125667133D01*
X156333598Y-125681747D01*
X156351777Y-125698223D01*
X156368253Y-125716402D01*
X156382867Y-125736107D01*
X156395480Y-125757151D01*
X156405970Y-125779329D01*
X156414235Y-125802429D01*
X156420196Y-125826227D01*
X156423796Y-125850496D01*
X156425000Y-125875000D01*
X156425000Y-127125000D01*
X156423796Y-127149504D01*
X156420196Y-127173773D01*
X156414235Y-127197571D01*
X156405970Y-127220671D01*
X156395480Y-127242849D01*
X156382867Y-127263893D01*
X156368253Y-127283598D01*
X156351777Y-127301777D01*
X156333598Y-127318253D01*
X156313893Y-127332867D01*
X156292849Y-127345480D01*
X156270671Y-127355970D01*
X156247571Y-127364235D01*
X156223773Y-127370196D01*
X156199504Y-127373796D01*
X156175000Y-127375000D01*
X155250000Y-127375000D01*
X155225496Y-127373796D01*
X155201227Y-127370196D01*
X155177429Y-127364235D01*
X155154329Y-127355970D01*
X155132151Y-127345480D01*
X155111107Y-127332867D01*
X155091402Y-127318253D01*
X155073223Y-127301777D01*
X155056747Y-127283598D01*
X155042133Y-127263893D01*
X155029520Y-127242849D01*
X155019030Y-127220671D01*
X155010765Y-127197571D01*
X155004804Y-127173773D01*
X155001204Y-127149504D01*
X155000000Y-127125000D01*
X155000000Y-125875000D01*
X155001204Y-125850496D01*
X155004804Y-125826227D01*
X155010765Y-125802429D01*
X155019030Y-125779329D01*
X155029520Y-125757151D01*
X155042133Y-125736107D01*
X155056747Y-125716402D01*
X155073223Y-125698223D01*
X155091402Y-125681747D01*
X155111107Y-125667133D01*
X155132151Y-125654520D01*
X155154329Y-125644030D01*
X155177429Y-125635765D01*
X155201227Y-125629804D01*
X155225496Y-125626204D01*
X155250000Y-125625000D01*
X156175000Y-125625000D01*
X156199504Y-125626204D01*
G37*
G04 #@! TD.AperFunction*
G04 #@! TA.AperFunction,SMDPad,CuDef*
G36*
X159174504Y-125626204D02*
G01*
X159198773Y-125629804D01*
X159222571Y-125635765D01*
X159245671Y-125644030D01*
X159267849Y-125654520D01*
X159288893Y-125667133D01*
X159308598Y-125681747D01*
X159326777Y-125698223D01*
X159343253Y-125716402D01*
X159357867Y-125736107D01*
X159370480Y-125757151D01*
X159380970Y-125779329D01*
X159389235Y-125802429D01*
X159395196Y-125826227D01*
X159398796Y-125850496D01*
X159400000Y-125875000D01*
X159400000Y-127125000D01*
X159398796Y-127149504D01*
X159395196Y-127173773D01*
X159389235Y-127197571D01*
X159380970Y-127220671D01*
X159370480Y-127242849D01*
X159357867Y-127263893D01*
X159343253Y-127283598D01*
X159326777Y-127301777D01*
X159308598Y-127318253D01*
X159288893Y-127332867D01*
X159267849Y-127345480D01*
X159245671Y-127355970D01*
X159222571Y-127364235D01*
X159198773Y-127370196D01*
X159174504Y-127373796D01*
X159150000Y-127375000D01*
X158225000Y-127375000D01*
X158200496Y-127373796D01*
X158176227Y-127370196D01*
X158152429Y-127364235D01*
X158129329Y-127355970D01*
X158107151Y-127345480D01*
X158086107Y-127332867D01*
X158066402Y-127318253D01*
X158048223Y-127301777D01*
X158031747Y-127283598D01*
X158017133Y-127263893D01*
X158004520Y-127242849D01*
X157994030Y-127220671D01*
X157985765Y-127197571D01*
X157979804Y-127173773D01*
X157976204Y-127149504D01*
X157975000Y-127125000D01*
X157975000Y-125875000D01*
X157976204Y-125850496D01*
X157979804Y-125826227D01*
X157985765Y-125802429D01*
X157994030Y-125779329D01*
X158004520Y-125757151D01*
X158017133Y-125736107D01*
X158031747Y-125716402D01*
X158048223Y-125698223D01*
X158066402Y-125681747D01*
X158086107Y-125667133D01*
X158107151Y-125654520D01*
X158129329Y-125644030D01*
X158152429Y-125635765D01*
X158176227Y-125629804D01*
X158200496Y-125626204D01*
X158225000Y-125625000D01*
X159150000Y-125625000D01*
X159174504Y-125626204D01*
G37*
G04 #@! TD.AperFunction*
G04 #@! TA.AperFunction,SMDPad,CuDef*
G36*
X156199504Y-135696204D02*
G01*
X156223773Y-135699804D01*
X156247571Y-135705765D01*
X156270671Y-135714030D01*
X156292849Y-135724520D01*
X156313893Y-135737133D01*
X156333598Y-135751747D01*
X156351777Y-135768223D01*
X156368253Y-135786402D01*
X156382867Y-135806107D01*
X156395480Y-135827151D01*
X156405970Y-135849329D01*
X156414235Y-135872429D01*
X156420196Y-135896227D01*
X156423796Y-135920496D01*
X156425000Y-135945000D01*
X156425000Y-137195000D01*
X156423796Y-137219504D01*
X156420196Y-137243773D01*
X156414235Y-137267571D01*
X156405970Y-137290671D01*
X156395480Y-137312849D01*
X156382867Y-137333893D01*
X156368253Y-137353598D01*
X156351777Y-137371777D01*
X156333598Y-137388253D01*
X156313893Y-137402867D01*
X156292849Y-137415480D01*
X156270671Y-137425970D01*
X156247571Y-137434235D01*
X156223773Y-137440196D01*
X156199504Y-137443796D01*
X156175000Y-137445000D01*
X155250000Y-137445000D01*
X155225496Y-137443796D01*
X155201227Y-137440196D01*
X155177429Y-137434235D01*
X155154329Y-137425970D01*
X155132151Y-137415480D01*
X155111107Y-137402867D01*
X155091402Y-137388253D01*
X155073223Y-137371777D01*
X155056747Y-137353598D01*
X155042133Y-137333893D01*
X155029520Y-137312849D01*
X155019030Y-137290671D01*
X155010765Y-137267571D01*
X155004804Y-137243773D01*
X155001204Y-137219504D01*
X155000000Y-137195000D01*
X155000000Y-135945000D01*
X155001204Y-135920496D01*
X155004804Y-135896227D01*
X155010765Y-135872429D01*
X155019030Y-135849329D01*
X155029520Y-135827151D01*
X155042133Y-135806107D01*
X155056747Y-135786402D01*
X155073223Y-135768223D01*
X155091402Y-135751747D01*
X155111107Y-135737133D01*
X155132151Y-135724520D01*
X155154329Y-135714030D01*
X155177429Y-135705765D01*
X155201227Y-135699804D01*
X155225496Y-135696204D01*
X155250000Y-135695000D01*
X156175000Y-135695000D01*
X156199504Y-135696204D01*
G37*
G04 #@! TD.AperFunction*
G04 #@! TA.AperFunction,SMDPad,CuDef*
G36*
X159174504Y-135696204D02*
G01*
X159198773Y-135699804D01*
X159222571Y-135705765D01*
X159245671Y-135714030D01*
X159267849Y-135724520D01*
X159288893Y-135737133D01*
X159308598Y-135751747D01*
X159326777Y-135768223D01*
X159343253Y-135786402D01*
X159357867Y-135806107D01*
X159370480Y-135827151D01*
X159380970Y-135849329D01*
X159389235Y-135872429D01*
X159395196Y-135896227D01*
X159398796Y-135920496D01*
X159400000Y-135945000D01*
X159400000Y-137195000D01*
X159398796Y-137219504D01*
X159395196Y-137243773D01*
X159389235Y-137267571D01*
X159380970Y-137290671D01*
X159370480Y-137312849D01*
X159357867Y-137333893D01*
X159343253Y-137353598D01*
X159326777Y-137371777D01*
X159308598Y-137388253D01*
X159288893Y-137402867D01*
X159267849Y-137415480D01*
X159245671Y-137425970D01*
X159222571Y-137434235D01*
X159198773Y-137440196D01*
X159174504Y-137443796D01*
X159150000Y-137445000D01*
X158225000Y-137445000D01*
X158200496Y-137443796D01*
X158176227Y-137440196D01*
X158152429Y-137434235D01*
X158129329Y-137425970D01*
X158107151Y-137415480D01*
X158086107Y-137402867D01*
X158066402Y-137388253D01*
X158048223Y-137371777D01*
X158031747Y-137353598D01*
X158017133Y-137333893D01*
X158004520Y-137312849D01*
X157994030Y-137290671D01*
X157985765Y-137267571D01*
X157979804Y-137243773D01*
X157976204Y-137219504D01*
X157975000Y-137195000D01*
X157975000Y-135945000D01*
X157976204Y-135920496D01*
X157979804Y-135896227D01*
X157985765Y-135872429D01*
X157994030Y-135849329D01*
X158004520Y-135827151D01*
X158017133Y-135806107D01*
X158031747Y-135786402D01*
X158048223Y-135768223D01*
X158066402Y-135751747D01*
X158086107Y-135737133D01*
X158107151Y-135724520D01*
X158129329Y-135714030D01*
X158152429Y-135705765D01*
X158176227Y-135699804D01*
X158200496Y-135696204D01*
X158225000Y-135695000D01*
X159150000Y-135695000D01*
X159174504Y-135696204D01*
G37*
G04 #@! TD.AperFunction*
G04 #@! TA.AperFunction,SMDPad,CuDef*
G36*
X149974505Y-141501204D02*
G01*
X149998773Y-141504804D01*
X150022572Y-141510765D01*
X150045671Y-141519030D01*
X150067850Y-141529520D01*
X150088893Y-141542132D01*
X150108599Y-141556747D01*
X150126777Y-141573223D01*
X150143253Y-141591401D01*
X150157868Y-141611107D01*
X150170480Y-141632150D01*
X150180970Y-141654329D01*
X150189235Y-141677428D01*
X150195196Y-141701227D01*
X150198796Y-141725495D01*
X150200000Y-141749999D01*
X150200000Y-142650001D01*
X150198796Y-142674505D01*
X150195196Y-142698773D01*
X150189235Y-142722572D01*
X150180970Y-142745671D01*
X150170480Y-142767850D01*
X150157868Y-142788893D01*
X150143253Y-142808599D01*
X150126777Y-142826777D01*
X150108599Y-142843253D01*
X150088893Y-142857868D01*
X150067850Y-142870480D01*
X150045671Y-142880970D01*
X150022572Y-142889235D01*
X149998773Y-142895196D01*
X149974505Y-142898796D01*
X149950001Y-142900000D01*
X149299999Y-142900000D01*
X149275495Y-142898796D01*
X149251227Y-142895196D01*
X149227428Y-142889235D01*
X149204329Y-142880970D01*
X149182150Y-142870480D01*
X149161107Y-142857868D01*
X149141401Y-142843253D01*
X149123223Y-142826777D01*
X149106747Y-142808599D01*
X149092132Y-142788893D01*
X149079520Y-142767850D01*
X149069030Y-142745671D01*
X149060765Y-142722572D01*
X149054804Y-142698773D01*
X149051204Y-142674505D01*
X149050000Y-142650001D01*
X149050000Y-141749999D01*
X149051204Y-141725495D01*
X149054804Y-141701227D01*
X149060765Y-141677428D01*
X149069030Y-141654329D01*
X149079520Y-141632150D01*
X149092132Y-141611107D01*
X149106747Y-141591401D01*
X149123223Y-141573223D01*
X149141401Y-141556747D01*
X149161107Y-141542132D01*
X149182150Y-141529520D01*
X149204329Y-141519030D01*
X149227428Y-141510765D01*
X149251227Y-141504804D01*
X149275495Y-141501204D01*
X149299999Y-141500000D01*
X149950001Y-141500000D01*
X149974505Y-141501204D01*
G37*
G04 #@! TD.AperFunction*
G04 #@! TA.AperFunction,SMDPad,CuDef*
G36*
X147924505Y-141501204D02*
G01*
X147948773Y-141504804D01*
X147972572Y-141510765D01*
X147995671Y-141519030D01*
X148017850Y-141529520D01*
X148038893Y-141542132D01*
X148058599Y-141556747D01*
X148076777Y-141573223D01*
X148093253Y-141591401D01*
X148107868Y-141611107D01*
X148120480Y-141632150D01*
X148130970Y-141654329D01*
X148139235Y-141677428D01*
X148145196Y-141701227D01*
X148148796Y-141725495D01*
X148150000Y-141749999D01*
X148150000Y-142650001D01*
X148148796Y-142674505D01*
X148145196Y-142698773D01*
X148139235Y-142722572D01*
X148130970Y-142745671D01*
X148120480Y-142767850D01*
X148107868Y-142788893D01*
X148093253Y-142808599D01*
X148076777Y-142826777D01*
X148058599Y-142843253D01*
X148038893Y-142857868D01*
X148017850Y-142870480D01*
X147995671Y-142880970D01*
X147972572Y-142889235D01*
X147948773Y-142895196D01*
X147924505Y-142898796D01*
X147900001Y-142900000D01*
X147249999Y-142900000D01*
X147225495Y-142898796D01*
X147201227Y-142895196D01*
X147177428Y-142889235D01*
X147154329Y-142880970D01*
X147132150Y-142870480D01*
X147111107Y-142857868D01*
X147091401Y-142843253D01*
X147073223Y-142826777D01*
X147056747Y-142808599D01*
X147042132Y-142788893D01*
X147029520Y-142767850D01*
X147019030Y-142745671D01*
X147010765Y-142722572D01*
X147004804Y-142698773D01*
X147001204Y-142674505D01*
X147000000Y-142650001D01*
X147000000Y-141749999D01*
X147001204Y-141725495D01*
X147004804Y-141701227D01*
X147010765Y-141677428D01*
X147019030Y-141654329D01*
X147029520Y-141632150D01*
X147042132Y-141611107D01*
X147056747Y-141591401D01*
X147073223Y-141573223D01*
X147091401Y-141556747D01*
X147111107Y-141542132D01*
X147132150Y-141529520D01*
X147154329Y-141519030D01*
X147177428Y-141510765D01*
X147201227Y-141504804D01*
X147225495Y-141501204D01*
X147249999Y-141500000D01*
X147900001Y-141500000D01*
X147924505Y-141501204D01*
G37*
G04 #@! TD.AperFunction*
G04 #@! TA.AperFunction,SMDPad,CuDef*
G36*
X149974505Y-139101204D02*
G01*
X149998773Y-139104804D01*
X150022572Y-139110765D01*
X150045671Y-139119030D01*
X150067850Y-139129520D01*
X150088893Y-139142132D01*
X150108599Y-139156747D01*
X150126777Y-139173223D01*
X150143253Y-139191401D01*
X150157868Y-139211107D01*
X150170480Y-139232150D01*
X150180970Y-139254329D01*
X150189235Y-139277428D01*
X150195196Y-139301227D01*
X150198796Y-139325495D01*
X150200000Y-139349999D01*
X150200000Y-140250001D01*
X150198796Y-140274505D01*
X150195196Y-140298773D01*
X150189235Y-140322572D01*
X150180970Y-140345671D01*
X150170480Y-140367850D01*
X150157868Y-140388893D01*
X150143253Y-140408599D01*
X150126777Y-140426777D01*
X150108599Y-140443253D01*
X150088893Y-140457868D01*
X150067850Y-140470480D01*
X150045671Y-140480970D01*
X150022572Y-140489235D01*
X149998773Y-140495196D01*
X149974505Y-140498796D01*
X149950001Y-140500000D01*
X149299999Y-140500000D01*
X149275495Y-140498796D01*
X149251227Y-140495196D01*
X149227428Y-140489235D01*
X149204329Y-140480970D01*
X149182150Y-140470480D01*
X149161107Y-140457868D01*
X149141401Y-140443253D01*
X149123223Y-140426777D01*
X149106747Y-140408599D01*
X149092132Y-140388893D01*
X149079520Y-140367850D01*
X149069030Y-140345671D01*
X149060765Y-140322572D01*
X149054804Y-140298773D01*
X149051204Y-140274505D01*
X149050000Y-140250001D01*
X149050000Y-139349999D01*
X149051204Y-139325495D01*
X149054804Y-139301227D01*
X149060765Y-139277428D01*
X149069030Y-139254329D01*
X149079520Y-139232150D01*
X149092132Y-139211107D01*
X149106747Y-139191401D01*
X149123223Y-139173223D01*
X149141401Y-139156747D01*
X149161107Y-139142132D01*
X149182150Y-139129520D01*
X149204329Y-139119030D01*
X149227428Y-139110765D01*
X149251227Y-139104804D01*
X149275495Y-139101204D01*
X149299999Y-139100000D01*
X149950001Y-139100000D01*
X149974505Y-139101204D01*
G37*
G04 #@! TD.AperFunction*
G04 #@! TA.AperFunction,SMDPad,CuDef*
G36*
X147924505Y-139101204D02*
G01*
X147948773Y-139104804D01*
X147972572Y-139110765D01*
X147995671Y-139119030D01*
X148017850Y-139129520D01*
X148038893Y-139142132D01*
X148058599Y-139156747D01*
X148076777Y-139173223D01*
X148093253Y-139191401D01*
X148107868Y-139211107D01*
X148120480Y-139232150D01*
X148130970Y-139254329D01*
X148139235Y-139277428D01*
X148145196Y-139301227D01*
X148148796Y-139325495D01*
X148150000Y-139349999D01*
X148150000Y-140250001D01*
X148148796Y-140274505D01*
X148145196Y-140298773D01*
X148139235Y-140322572D01*
X148130970Y-140345671D01*
X148120480Y-140367850D01*
X148107868Y-140388893D01*
X148093253Y-140408599D01*
X148076777Y-140426777D01*
X148058599Y-140443253D01*
X148038893Y-140457868D01*
X148017850Y-140470480D01*
X147995671Y-140480970D01*
X147972572Y-140489235D01*
X147948773Y-140495196D01*
X147924505Y-140498796D01*
X147900001Y-140500000D01*
X147249999Y-140500000D01*
X147225495Y-140498796D01*
X147201227Y-140495196D01*
X147177428Y-140489235D01*
X147154329Y-140480970D01*
X147132150Y-140470480D01*
X147111107Y-140457868D01*
X147091401Y-140443253D01*
X147073223Y-140426777D01*
X147056747Y-140408599D01*
X147042132Y-140388893D01*
X147029520Y-140367850D01*
X147019030Y-140345671D01*
X147010765Y-140322572D01*
X147004804Y-140298773D01*
X147001204Y-140274505D01*
X147000000Y-140250001D01*
X147000000Y-139349999D01*
X147001204Y-139325495D01*
X147004804Y-139301227D01*
X147010765Y-139277428D01*
X147019030Y-139254329D01*
X147029520Y-139232150D01*
X147042132Y-139211107D01*
X147056747Y-139191401D01*
X147073223Y-139173223D01*
X147091401Y-139156747D01*
X147111107Y-139142132D01*
X147132150Y-139129520D01*
X147154329Y-139119030D01*
X147177428Y-139110765D01*
X147201227Y-139104804D01*
X147225495Y-139101204D01*
X147249999Y-139100000D01*
X147900001Y-139100000D01*
X147924505Y-139101204D01*
G37*
G04 #@! TD.AperFunction*
G04 #@! TA.AperFunction,SMDPad,CuDef*
G36*
X126424505Y-147301204D02*
G01*
X126448773Y-147304804D01*
X126472572Y-147310765D01*
X126495671Y-147319030D01*
X126517850Y-147329520D01*
X126538893Y-147342132D01*
X126558599Y-147356747D01*
X126576777Y-147373223D01*
X126593253Y-147391401D01*
X126607868Y-147411107D01*
X126620480Y-147432150D01*
X126630970Y-147454329D01*
X126639235Y-147477428D01*
X126645196Y-147501227D01*
X126648796Y-147525495D01*
X126650000Y-147549999D01*
X126650000Y-148450001D01*
X126648796Y-148474505D01*
X126645196Y-148498773D01*
X126639235Y-148522572D01*
X126630970Y-148545671D01*
X126620480Y-148567850D01*
X126607868Y-148588893D01*
X126593253Y-148608599D01*
X126576777Y-148626777D01*
X126558599Y-148643253D01*
X126538893Y-148657868D01*
X126517850Y-148670480D01*
X126495671Y-148680970D01*
X126472572Y-148689235D01*
X126448773Y-148695196D01*
X126424505Y-148698796D01*
X126400001Y-148700000D01*
X125749999Y-148700000D01*
X125725495Y-148698796D01*
X125701227Y-148695196D01*
X125677428Y-148689235D01*
X125654329Y-148680970D01*
X125632150Y-148670480D01*
X125611107Y-148657868D01*
X125591401Y-148643253D01*
X125573223Y-148626777D01*
X125556747Y-148608599D01*
X125542132Y-148588893D01*
X125529520Y-148567850D01*
X125519030Y-148545671D01*
X125510765Y-148522572D01*
X125504804Y-148498773D01*
X125501204Y-148474505D01*
X125500000Y-148450001D01*
X125500000Y-147549999D01*
X125501204Y-147525495D01*
X125504804Y-147501227D01*
X125510765Y-147477428D01*
X125519030Y-147454329D01*
X125529520Y-147432150D01*
X125542132Y-147411107D01*
X125556747Y-147391401D01*
X125573223Y-147373223D01*
X125591401Y-147356747D01*
X125611107Y-147342132D01*
X125632150Y-147329520D01*
X125654329Y-147319030D01*
X125677428Y-147310765D01*
X125701227Y-147304804D01*
X125725495Y-147301204D01*
X125749999Y-147300000D01*
X126400001Y-147300000D01*
X126424505Y-147301204D01*
G37*
G04 #@! TD.AperFunction*
G04 #@! TA.AperFunction,SMDPad,CuDef*
G36*
X128474505Y-147301204D02*
G01*
X128498773Y-147304804D01*
X128522572Y-147310765D01*
X128545671Y-147319030D01*
X128567850Y-147329520D01*
X128588893Y-147342132D01*
X128608599Y-147356747D01*
X128626777Y-147373223D01*
X128643253Y-147391401D01*
X128657868Y-147411107D01*
X128670480Y-147432150D01*
X128680970Y-147454329D01*
X128689235Y-147477428D01*
X128695196Y-147501227D01*
X128698796Y-147525495D01*
X128700000Y-147549999D01*
X128700000Y-148450001D01*
X128698796Y-148474505D01*
X128695196Y-148498773D01*
X128689235Y-148522572D01*
X128680970Y-148545671D01*
X128670480Y-148567850D01*
X128657868Y-148588893D01*
X128643253Y-148608599D01*
X128626777Y-148626777D01*
X128608599Y-148643253D01*
X128588893Y-148657868D01*
X128567850Y-148670480D01*
X128545671Y-148680970D01*
X128522572Y-148689235D01*
X128498773Y-148695196D01*
X128474505Y-148698796D01*
X128450001Y-148700000D01*
X127799999Y-148700000D01*
X127775495Y-148698796D01*
X127751227Y-148695196D01*
X127727428Y-148689235D01*
X127704329Y-148680970D01*
X127682150Y-148670480D01*
X127661107Y-148657868D01*
X127641401Y-148643253D01*
X127623223Y-148626777D01*
X127606747Y-148608599D01*
X127592132Y-148588893D01*
X127579520Y-148567850D01*
X127569030Y-148545671D01*
X127560765Y-148522572D01*
X127554804Y-148498773D01*
X127551204Y-148474505D01*
X127550000Y-148450001D01*
X127550000Y-147549999D01*
X127551204Y-147525495D01*
X127554804Y-147501227D01*
X127560765Y-147477428D01*
X127569030Y-147454329D01*
X127579520Y-147432150D01*
X127592132Y-147411107D01*
X127606747Y-147391401D01*
X127623223Y-147373223D01*
X127641401Y-147356747D01*
X127661107Y-147342132D01*
X127682150Y-147329520D01*
X127704329Y-147319030D01*
X127727428Y-147310765D01*
X127751227Y-147304804D01*
X127775495Y-147301204D01*
X127799999Y-147300000D01*
X128450001Y-147300000D01*
X128474505Y-147301204D01*
G37*
G04 #@! TD.AperFunction*
G04 #@! TA.AperFunction,SMDPad,CuDef*
G36*
X128374505Y-132501204D02*
G01*
X128398773Y-132504804D01*
X128422572Y-132510765D01*
X128445671Y-132519030D01*
X128467850Y-132529520D01*
X128488893Y-132542132D01*
X128508599Y-132556747D01*
X128526777Y-132573223D01*
X128543253Y-132591401D01*
X128557868Y-132611107D01*
X128570480Y-132632150D01*
X128580970Y-132654329D01*
X128589235Y-132677428D01*
X128595196Y-132701227D01*
X128598796Y-132725495D01*
X128600000Y-132749999D01*
X128600000Y-133650001D01*
X128598796Y-133674505D01*
X128595196Y-133698773D01*
X128589235Y-133722572D01*
X128580970Y-133745671D01*
X128570480Y-133767850D01*
X128557868Y-133788893D01*
X128543253Y-133808599D01*
X128526777Y-133826777D01*
X128508599Y-133843253D01*
X128488893Y-133857868D01*
X128467850Y-133870480D01*
X128445671Y-133880970D01*
X128422572Y-133889235D01*
X128398773Y-133895196D01*
X128374505Y-133898796D01*
X128350001Y-133900000D01*
X127699999Y-133900000D01*
X127675495Y-133898796D01*
X127651227Y-133895196D01*
X127627428Y-133889235D01*
X127604329Y-133880970D01*
X127582150Y-133870480D01*
X127561107Y-133857868D01*
X127541401Y-133843253D01*
X127523223Y-133826777D01*
X127506747Y-133808599D01*
X127492132Y-133788893D01*
X127479520Y-133767850D01*
X127469030Y-133745671D01*
X127460765Y-133722572D01*
X127454804Y-133698773D01*
X127451204Y-133674505D01*
X127450000Y-133650001D01*
X127450000Y-132749999D01*
X127451204Y-132725495D01*
X127454804Y-132701227D01*
X127460765Y-132677428D01*
X127469030Y-132654329D01*
X127479520Y-132632150D01*
X127492132Y-132611107D01*
X127506747Y-132591401D01*
X127523223Y-132573223D01*
X127541401Y-132556747D01*
X127561107Y-132542132D01*
X127582150Y-132529520D01*
X127604329Y-132519030D01*
X127627428Y-132510765D01*
X127651227Y-132504804D01*
X127675495Y-132501204D01*
X127699999Y-132500000D01*
X128350001Y-132500000D01*
X128374505Y-132501204D01*
G37*
G04 #@! TD.AperFunction*
G04 #@! TA.AperFunction,SMDPad,CuDef*
G36*
X126324505Y-132501204D02*
G01*
X126348773Y-132504804D01*
X126372572Y-132510765D01*
X126395671Y-132519030D01*
X126417850Y-132529520D01*
X126438893Y-132542132D01*
X126458599Y-132556747D01*
X126476777Y-132573223D01*
X126493253Y-132591401D01*
X126507868Y-132611107D01*
X126520480Y-132632150D01*
X126530970Y-132654329D01*
X126539235Y-132677428D01*
X126545196Y-132701227D01*
X126548796Y-132725495D01*
X126550000Y-132749999D01*
X126550000Y-133650001D01*
X126548796Y-133674505D01*
X126545196Y-133698773D01*
X126539235Y-133722572D01*
X126530970Y-133745671D01*
X126520480Y-133767850D01*
X126507868Y-133788893D01*
X126493253Y-133808599D01*
X126476777Y-133826777D01*
X126458599Y-133843253D01*
X126438893Y-133857868D01*
X126417850Y-133870480D01*
X126395671Y-133880970D01*
X126372572Y-133889235D01*
X126348773Y-133895196D01*
X126324505Y-133898796D01*
X126300001Y-133900000D01*
X125649999Y-133900000D01*
X125625495Y-133898796D01*
X125601227Y-133895196D01*
X125577428Y-133889235D01*
X125554329Y-133880970D01*
X125532150Y-133870480D01*
X125511107Y-133857868D01*
X125491401Y-133843253D01*
X125473223Y-133826777D01*
X125456747Y-133808599D01*
X125442132Y-133788893D01*
X125429520Y-133767850D01*
X125419030Y-133745671D01*
X125410765Y-133722572D01*
X125404804Y-133698773D01*
X125401204Y-133674505D01*
X125400000Y-133650001D01*
X125400000Y-132749999D01*
X125401204Y-132725495D01*
X125404804Y-132701227D01*
X125410765Y-132677428D01*
X125419030Y-132654329D01*
X125429520Y-132632150D01*
X125442132Y-132611107D01*
X125456747Y-132591401D01*
X125473223Y-132573223D01*
X125491401Y-132556747D01*
X125511107Y-132542132D01*
X125532150Y-132529520D01*
X125554329Y-132519030D01*
X125577428Y-132510765D01*
X125601227Y-132504804D01*
X125625495Y-132501204D01*
X125649999Y-132500000D01*
X126300001Y-132500000D01*
X126324505Y-132501204D01*
G37*
G04 #@! TD.AperFunction*
D20*
X157300000Y-141900000D03*
D21*
X157300000Y-146980000D03*
D20*
X139700000Y-126700000D03*
D21*
X144780000Y-126700000D03*
X149860000Y-126700000D03*
G04 #@! TA.AperFunction,SMDPad,CuDef*
D11*
G36*
X138024505Y-143901204D02*
G01*
X138048773Y-143904804D01*
X138072572Y-143910765D01*
X138095671Y-143919030D01*
X138117850Y-143929520D01*
X138138893Y-143942132D01*
X138158599Y-143956747D01*
X138176777Y-143973223D01*
X138193253Y-143991401D01*
X138207868Y-144011107D01*
X138220480Y-144032150D01*
X138230970Y-144054329D01*
X138239235Y-144077428D01*
X138245196Y-144101227D01*
X138248796Y-144125495D01*
X138250000Y-144149999D01*
X138250000Y-145050001D01*
X138248796Y-145074505D01*
X138245196Y-145098773D01*
X138239235Y-145122572D01*
X138230970Y-145145671D01*
X138220480Y-145167850D01*
X138207868Y-145188893D01*
X138193253Y-145208599D01*
X138176777Y-145226777D01*
X138158599Y-145243253D01*
X138138893Y-145257868D01*
X138117850Y-145270480D01*
X138095671Y-145280970D01*
X138072572Y-145289235D01*
X138048773Y-145295196D01*
X138024505Y-145298796D01*
X138000001Y-145300000D01*
X137349999Y-145300000D01*
X137325495Y-145298796D01*
X137301227Y-145295196D01*
X137277428Y-145289235D01*
X137254329Y-145280970D01*
X137232150Y-145270480D01*
X137211107Y-145257868D01*
X137191401Y-145243253D01*
X137173223Y-145226777D01*
X137156747Y-145208599D01*
X137142132Y-145188893D01*
X137129520Y-145167850D01*
X137119030Y-145145671D01*
X137110765Y-145122572D01*
X137104804Y-145098773D01*
X137101204Y-145074505D01*
X137100000Y-145050001D01*
X137100000Y-144149999D01*
X137101204Y-144125495D01*
X137104804Y-144101227D01*
X137110765Y-144077428D01*
X137119030Y-144054329D01*
X137129520Y-144032150D01*
X137142132Y-144011107D01*
X137156747Y-143991401D01*
X137173223Y-143973223D01*
X137191401Y-143956747D01*
X137211107Y-143942132D01*
X137232150Y-143929520D01*
X137254329Y-143919030D01*
X137277428Y-143910765D01*
X137301227Y-143904804D01*
X137325495Y-143901204D01*
X137349999Y-143900000D01*
X138000001Y-143900000D01*
X138024505Y-143901204D01*
G37*
G04 #@! TD.AperFunction*
G04 #@! TA.AperFunction,SMDPad,CuDef*
G36*
X140074505Y-143901204D02*
G01*
X140098773Y-143904804D01*
X140122572Y-143910765D01*
X140145671Y-143919030D01*
X140167850Y-143929520D01*
X140188893Y-143942132D01*
X140208599Y-143956747D01*
X140226777Y-143973223D01*
X140243253Y-143991401D01*
X140257868Y-144011107D01*
X140270480Y-144032150D01*
X140280970Y-144054329D01*
X140289235Y-144077428D01*
X140295196Y-144101227D01*
X140298796Y-144125495D01*
X140300000Y-144149999D01*
X140300000Y-145050001D01*
X140298796Y-145074505D01*
X140295196Y-145098773D01*
X140289235Y-145122572D01*
X140280970Y-145145671D01*
X140270480Y-145167850D01*
X140257868Y-145188893D01*
X140243253Y-145208599D01*
X140226777Y-145226777D01*
X140208599Y-145243253D01*
X140188893Y-145257868D01*
X140167850Y-145270480D01*
X140145671Y-145280970D01*
X140122572Y-145289235D01*
X140098773Y-145295196D01*
X140074505Y-145298796D01*
X140050001Y-145300000D01*
X139399999Y-145300000D01*
X139375495Y-145298796D01*
X139351227Y-145295196D01*
X139327428Y-145289235D01*
X139304329Y-145280970D01*
X139282150Y-145270480D01*
X139261107Y-145257868D01*
X139241401Y-145243253D01*
X139223223Y-145226777D01*
X139206747Y-145208599D01*
X139192132Y-145188893D01*
X139179520Y-145167850D01*
X139169030Y-145145671D01*
X139160765Y-145122572D01*
X139154804Y-145098773D01*
X139151204Y-145074505D01*
X139150000Y-145050001D01*
X139150000Y-144149999D01*
X139151204Y-144125495D01*
X139154804Y-144101227D01*
X139160765Y-144077428D01*
X139169030Y-144054329D01*
X139179520Y-144032150D01*
X139192132Y-144011107D01*
X139206747Y-143991401D01*
X139223223Y-143973223D01*
X139241401Y-143956747D01*
X139261107Y-143942132D01*
X139282150Y-143929520D01*
X139304329Y-143919030D01*
X139327428Y-143910765D01*
X139351227Y-143904804D01*
X139375495Y-143901204D01*
X139399999Y-143900000D01*
X140050001Y-143900000D01*
X140074505Y-143901204D01*
G37*
G04 #@! TD.AperFunction*
G04 #@! TA.AperFunction,SMDPad,CuDef*
G36*
X138024505Y-141501204D02*
G01*
X138048773Y-141504804D01*
X138072572Y-141510765D01*
X138095671Y-141519030D01*
X138117850Y-141529520D01*
X138138893Y-141542132D01*
X138158599Y-141556747D01*
X138176777Y-141573223D01*
X138193253Y-141591401D01*
X138207868Y-141611107D01*
X138220480Y-141632150D01*
X138230970Y-141654329D01*
X138239235Y-141677428D01*
X138245196Y-141701227D01*
X138248796Y-141725495D01*
X138250000Y-141749999D01*
X138250000Y-142650001D01*
X138248796Y-142674505D01*
X138245196Y-142698773D01*
X138239235Y-142722572D01*
X138230970Y-142745671D01*
X138220480Y-142767850D01*
X138207868Y-142788893D01*
X138193253Y-142808599D01*
X138176777Y-142826777D01*
X138158599Y-142843253D01*
X138138893Y-142857868D01*
X138117850Y-142870480D01*
X138095671Y-142880970D01*
X138072572Y-142889235D01*
X138048773Y-142895196D01*
X138024505Y-142898796D01*
X138000001Y-142900000D01*
X137349999Y-142900000D01*
X137325495Y-142898796D01*
X137301227Y-142895196D01*
X137277428Y-142889235D01*
X137254329Y-142880970D01*
X137232150Y-142870480D01*
X137211107Y-142857868D01*
X137191401Y-142843253D01*
X137173223Y-142826777D01*
X137156747Y-142808599D01*
X137142132Y-142788893D01*
X137129520Y-142767850D01*
X137119030Y-142745671D01*
X137110765Y-142722572D01*
X137104804Y-142698773D01*
X137101204Y-142674505D01*
X137100000Y-142650001D01*
X137100000Y-141749999D01*
X137101204Y-141725495D01*
X137104804Y-141701227D01*
X137110765Y-141677428D01*
X137119030Y-141654329D01*
X137129520Y-141632150D01*
X137142132Y-141611107D01*
X137156747Y-141591401D01*
X137173223Y-141573223D01*
X137191401Y-141556747D01*
X137211107Y-141542132D01*
X137232150Y-141529520D01*
X137254329Y-141519030D01*
X137277428Y-141510765D01*
X137301227Y-141504804D01*
X137325495Y-141501204D01*
X137349999Y-141500000D01*
X138000001Y-141500000D01*
X138024505Y-141501204D01*
G37*
G04 #@! TD.AperFunction*
G04 #@! TA.AperFunction,SMDPad,CuDef*
G36*
X140074505Y-141501204D02*
G01*
X140098773Y-141504804D01*
X140122572Y-141510765D01*
X140145671Y-141519030D01*
X140167850Y-141529520D01*
X140188893Y-141542132D01*
X140208599Y-141556747D01*
X140226777Y-141573223D01*
X140243253Y-141591401D01*
X140257868Y-141611107D01*
X140270480Y-141632150D01*
X140280970Y-141654329D01*
X140289235Y-141677428D01*
X140295196Y-141701227D01*
X140298796Y-141725495D01*
X140300000Y-141749999D01*
X140300000Y-142650001D01*
X140298796Y-142674505D01*
X140295196Y-142698773D01*
X140289235Y-142722572D01*
X140280970Y-142745671D01*
X140270480Y-142767850D01*
X140257868Y-142788893D01*
X140243253Y-142808599D01*
X140226777Y-142826777D01*
X140208599Y-142843253D01*
X140188893Y-142857868D01*
X140167850Y-142870480D01*
X140145671Y-142880970D01*
X140122572Y-142889235D01*
X140098773Y-142895196D01*
X140074505Y-142898796D01*
X140050001Y-142900000D01*
X139399999Y-142900000D01*
X139375495Y-142898796D01*
X139351227Y-142895196D01*
X139327428Y-142889235D01*
X139304329Y-142880970D01*
X139282150Y-142870480D01*
X139261107Y-142857868D01*
X139241401Y-142843253D01*
X139223223Y-142826777D01*
X139206747Y-142808599D01*
X139192132Y-142788893D01*
X139179520Y-142767850D01*
X139169030Y-142745671D01*
X139160765Y-142722572D01*
X139154804Y-142698773D01*
X139151204Y-142674505D01*
X139150000Y-142650001D01*
X139150000Y-141749999D01*
X139151204Y-141725495D01*
X139154804Y-141701227D01*
X139160765Y-141677428D01*
X139169030Y-141654329D01*
X139179520Y-141632150D01*
X139192132Y-141611107D01*
X139206747Y-141591401D01*
X139223223Y-141573223D01*
X139241401Y-141556747D01*
X139261107Y-141542132D01*
X139282150Y-141529520D01*
X139304329Y-141519030D01*
X139327428Y-141510765D01*
X139351227Y-141504804D01*
X139375495Y-141501204D01*
X139399999Y-141500000D01*
X140050001Y-141500000D01*
X140074505Y-141501204D01*
G37*
G04 #@! TD.AperFunction*
G04 #@! TA.AperFunction,SMDPad,CuDef*
G36*
X140074505Y-136801204D02*
G01*
X140098773Y-136804804D01*
X140122572Y-136810765D01*
X140145671Y-136819030D01*
X140167850Y-136829520D01*
X140188893Y-136842132D01*
X140208599Y-136856747D01*
X140226777Y-136873223D01*
X140243253Y-136891401D01*
X140257868Y-136911107D01*
X140270480Y-136932150D01*
X140280970Y-136954329D01*
X140289235Y-136977428D01*
X140295196Y-137001227D01*
X140298796Y-137025495D01*
X140300000Y-137049999D01*
X140300000Y-137950001D01*
X140298796Y-137974505D01*
X140295196Y-137998773D01*
X140289235Y-138022572D01*
X140280970Y-138045671D01*
X140270480Y-138067850D01*
X140257868Y-138088893D01*
X140243253Y-138108599D01*
X140226777Y-138126777D01*
X140208599Y-138143253D01*
X140188893Y-138157868D01*
X140167850Y-138170480D01*
X140145671Y-138180970D01*
X140122572Y-138189235D01*
X140098773Y-138195196D01*
X140074505Y-138198796D01*
X140050001Y-138200000D01*
X139399999Y-138200000D01*
X139375495Y-138198796D01*
X139351227Y-138195196D01*
X139327428Y-138189235D01*
X139304329Y-138180970D01*
X139282150Y-138170480D01*
X139261107Y-138157868D01*
X139241401Y-138143253D01*
X139223223Y-138126777D01*
X139206747Y-138108599D01*
X139192132Y-138088893D01*
X139179520Y-138067850D01*
X139169030Y-138045671D01*
X139160765Y-138022572D01*
X139154804Y-137998773D01*
X139151204Y-137974505D01*
X139150000Y-137950001D01*
X139150000Y-137049999D01*
X139151204Y-137025495D01*
X139154804Y-137001227D01*
X139160765Y-136977428D01*
X139169030Y-136954329D01*
X139179520Y-136932150D01*
X139192132Y-136911107D01*
X139206747Y-136891401D01*
X139223223Y-136873223D01*
X139241401Y-136856747D01*
X139261107Y-136842132D01*
X139282150Y-136829520D01*
X139304329Y-136819030D01*
X139327428Y-136810765D01*
X139351227Y-136804804D01*
X139375495Y-136801204D01*
X139399999Y-136800000D01*
X140050001Y-136800000D01*
X140074505Y-136801204D01*
G37*
G04 #@! TD.AperFunction*
G04 #@! TA.AperFunction,SMDPad,CuDef*
G36*
X138024505Y-136801204D02*
G01*
X138048773Y-136804804D01*
X138072572Y-136810765D01*
X138095671Y-136819030D01*
X138117850Y-136829520D01*
X138138893Y-136842132D01*
X138158599Y-136856747D01*
X138176777Y-136873223D01*
X138193253Y-136891401D01*
X138207868Y-136911107D01*
X138220480Y-136932150D01*
X138230970Y-136954329D01*
X138239235Y-136977428D01*
X138245196Y-137001227D01*
X138248796Y-137025495D01*
X138250000Y-137049999D01*
X138250000Y-137950001D01*
X138248796Y-137974505D01*
X138245196Y-137998773D01*
X138239235Y-138022572D01*
X138230970Y-138045671D01*
X138220480Y-138067850D01*
X138207868Y-138088893D01*
X138193253Y-138108599D01*
X138176777Y-138126777D01*
X138158599Y-138143253D01*
X138138893Y-138157868D01*
X138117850Y-138170480D01*
X138095671Y-138180970D01*
X138072572Y-138189235D01*
X138048773Y-138195196D01*
X138024505Y-138198796D01*
X138000001Y-138200000D01*
X137349999Y-138200000D01*
X137325495Y-138198796D01*
X137301227Y-138195196D01*
X137277428Y-138189235D01*
X137254329Y-138180970D01*
X137232150Y-138170480D01*
X137211107Y-138157868D01*
X137191401Y-138143253D01*
X137173223Y-138126777D01*
X137156747Y-138108599D01*
X137142132Y-138088893D01*
X137129520Y-138067850D01*
X137119030Y-138045671D01*
X137110765Y-138022572D01*
X137104804Y-137998773D01*
X137101204Y-137974505D01*
X137100000Y-137950001D01*
X137100000Y-137049999D01*
X137101204Y-137025495D01*
X137104804Y-137001227D01*
X137110765Y-136977428D01*
X137119030Y-136954329D01*
X137129520Y-136932150D01*
X137142132Y-136911107D01*
X137156747Y-136891401D01*
X137173223Y-136873223D01*
X137191401Y-136856747D01*
X137211107Y-136842132D01*
X137232150Y-136829520D01*
X137254329Y-136819030D01*
X137277428Y-136810765D01*
X137301227Y-136804804D01*
X137325495Y-136801204D01*
X137349999Y-136800000D01*
X138000001Y-136800000D01*
X138024505Y-136801204D01*
G37*
G04 #@! TD.AperFunction*
G04 #@! TA.AperFunction,SMDPad,CuDef*
G36*
X140074505Y-139101204D02*
G01*
X140098773Y-139104804D01*
X140122572Y-139110765D01*
X140145671Y-139119030D01*
X140167850Y-139129520D01*
X140188893Y-139142132D01*
X140208599Y-139156747D01*
X140226777Y-139173223D01*
X140243253Y-139191401D01*
X140257868Y-139211107D01*
X140270480Y-139232150D01*
X140280970Y-139254329D01*
X140289235Y-139277428D01*
X140295196Y-139301227D01*
X140298796Y-139325495D01*
X140300000Y-139349999D01*
X140300000Y-140250001D01*
X140298796Y-140274505D01*
X140295196Y-140298773D01*
X140289235Y-140322572D01*
X140280970Y-140345671D01*
X140270480Y-140367850D01*
X140257868Y-140388893D01*
X140243253Y-140408599D01*
X140226777Y-140426777D01*
X140208599Y-140443253D01*
X140188893Y-140457868D01*
X140167850Y-140470480D01*
X140145671Y-140480970D01*
X140122572Y-140489235D01*
X140098773Y-140495196D01*
X140074505Y-140498796D01*
X140050001Y-140500000D01*
X139399999Y-140500000D01*
X139375495Y-140498796D01*
X139351227Y-140495196D01*
X139327428Y-140489235D01*
X139304329Y-140480970D01*
X139282150Y-140470480D01*
X139261107Y-140457868D01*
X139241401Y-140443253D01*
X139223223Y-140426777D01*
X139206747Y-140408599D01*
X139192132Y-140388893D01*
X139179520Y-140367850D01*
X139169030Y-140345671D01*
X139160765Y-140322572D01*
X139154804Y-140298773D01*
X139151204Y-140274505D01*
X139150000Y-140250001D01*
X139150000Y-139349999D01*
X139151204Y-139325495D01*
X139154804Y-139301227D01*
X139160765Y-139277428D01*
X139169030Y-139254329D01*
X139179520Y-139232150D01*
X139192132Y-139211107D01*
X139206747Y-139191401D01*
X139223223Y-139173223D01*
X139241401Y-139156747D01*
X139261107Y-139142132D01*
X139282150Y-139129520D01*
X139304329Y-139119030D01*
X139327428Y-139110765D01*
X139351227Y-139104804D01*
X139375495Y-139101204D01*
X139399999Y-139100000D01*
X140050001Y-139100000D01*
X140074505Y-139101204D01*
G37*
G04 #@! TD.AperFunction*
G04 #@! TA.AperFunction,SMDPad,CuDef*
G36*
X138024505Y-139101204D02*
G01*
X138048773Y-139104804D01*
X138072572Y-139110765D01*
X138095671Y-139119030D01*
X138117850Y-139129520D01*
X138138893Y-139142132D01*
X138158599Y-139156747D01*
X138176777Y-139173223D01*
X138193253Y-139191401D01*
X138207868Y-139211107D01*
X138220480Y-139232150D01*
X138230970Y-139254329D01*
X138239235Y-139277428D01*
X138245196Y-139301227D01*
X138248796Y-139325495D01*
X138250000Y-139349999D01*
X138250000Y-140250001D01*
X138248796Y-140274505D01*
X138245196Y-140298773D01*
X138239235Y-140322572D01*
X138230970Y-140345671D01*
X138220480Y-140367850D01*
X138207868Y-140388893D01*
X138193253Y-140408599D01*
X138176777Y-140426777D01*
X138158599Y-140443253D01*
X138138893Y-140457868D01*
X138117850Y-140470480D01*
X138095671Y-140480970D01*
X138072572Y-140489235D01*
X138048773Y-140495196D01*
X138024505Y-140498796D01*
X138000001Y-140500000D01*
X137349999Y-140500000D01*
X137325495Y-140498796D01*
X137301227Y-140495196D01*
X137277428Y-140489235D01*
X137254329Y-140480970D01*
X137232150Y-140470480D01*
X137211107Y-140457868D01*
X137191401Y-140443253D01*
X137173223Y-140426777D01*
X137156747Y-140408599D01*
X137142132Y-140388893D01*
X137129520Y-140367850D01*
X137119030Y-140345671D01*
X137110765Y-140322572D01*
X137104804Y-140298773D01*
X137101204Y-140274505D01*
X137100000Y-140250001D01*
X137100000Y-139349999D01*
X137101204Y-139325495D01*
X137104804Y-139301227D01*
X137110765Y-139277428D01*
X137119030Y-139254329D01*
X137129520Y-139232150D01*
X137142132Y-139211107D01*
X137156747Y-139191401D01*
X137173223Y-139173223D01*
X137191401Y-139156747D01*
X137211107Y-139142132D01*
X137232150Y-139129520D01*
X137254329Y-139119030D01*
X137277428Y-139110765D01*
X137301227Y-139104804D01*
X137325495Y-139101204D01*
X137349999Y-139100000D01*
X138000001Y-139100000D01*
X138024505Y-139101204D01*
G37*
G04 #@! TD.AperFunction*
D22*
X136300000Y-137500000D03*
X136300000Y-139800000D03*
X136300000Y-142200000D03*
X136300000Y-144600000D03*
X132334000Y-148725000D03*
X127889000Y-127635000D03*
X147320000Y-149860000D03*
X141124909Y-139493527D03*
X140970000Y-142367000D03*
X138500000Y-135300000D03*
X140800000Y-135300000D03*
X146177014Y-142113000D03*
X146177000Y-144013022D03*
D23*
X137700000Y-141000000D02*
X142025000Y-141000000D01*
X137675000Y-141025000D02*
X137700000Y-141000000D01*
X137675000Y-141025000D02*
X137675000Y-137500000D01*
X137675000Y-144600000D02*
X137675000Y-141025000D01*
D24*
X137675000Y-137500000D02*
X136300000Y-137500000D01*
X137675000Y-139800000D02*
X136300000Y-139800000D01*
D25*
X137675000Y-142200000D02*
X136300000Y-142200000D01*
X137675000Y-144600000D02*
X136300000Y-144600000D01*
X155712500Y-136570000D02*
X155712500Y-133280000D01*
X155712500Y-129700000D02*
X155712500Y-133280000D01*
X155712500Y-126500000D02*
X155712500Y-129700000D01*
X146279999Y-125200001D02*
X144780000Y-126700000D01*
X147230001Y-124249999D02*
X146279999Y-125200001D01*
X154337499Y-124249999D02*
X147230001Y-124249999D01*
X155712500Y-125625000D02*
X154337499Y-124249999D01*
X155712500Y-126500000D02*
X155712500Y-125625000D01*
D23*
X132343000Y-149860000D02*
X132343000Y-148734000D01*
X132343000Y-148734000D02*
X132334000Y-148725000D01*
X127875000Y-129032000D02*
X127875000Y-127649000D01*
X127875000Y-127649000D02*
X127889000Y-127635000D01*
X147329000Y-148463000D02*
X147329000Y-149851000D01*
X147329000Y-149851000D02*
X147320000Y-149860000D01*
X141350000Y-140500000D02*
X142025000Y-140500000D01*
X141000000Y-140500000D02*
X141350000Y-140500000D01*
X140300000Y-139800000D02*
X141000000Y-140500000D01*
X139725000Y-139800000D02*
X140300000Y-139800000D01*
D26*
X139700000Y-137475000D02*
X139725000Y-137500000D01*
X139700000Y-126700000D02*
X139700000Y-137475000D01*
X139725000Y-137500000D02*
X139725000Y-139800000D01*
D23*
X139700000Y-128450000D02*
X139700000Y-126700000D01*
X134950000Y-133200000D02*
X139700000Y-128450000D01*
X128025000Y-130937000D02*
X128025000Y-133200000D01*
X134770000Y-133200000D02*
X134950000Y-133200000D01*
X128025000Y-133200000D02*
X134770000Y-133200000D01*
X139725000Y-137500000D02*
X140300000Y-137500000D01*
X141124909Y-138324909D02*
X141124909Y-138927842D01*
X141124909Y-138927842D02*
X141124909Y-139493527D01*
X140300000Y-137500000D02*
X141124909Y-138324909D01*
X140031473Y-139493527D02*
X139725000Y-139800000D01*
X141124909Y-139493527D02*
X140031473Y-139493527D01*
X140716000Y-142621000D02*
X140970000Y-142367000D01*
X140716000Y-148463000D02*
X140716000Y-142621000D01*
X133985000Y-132957000D02*
X133985000Y-132207000D01*
X134228000Y-133200000D02*
X133985000Y-132957000D01*
X134770000Y-133200000D02*
X134228000Y-133200000D01*
X140425000Y-141500000D02*
X139725000Y-142200000D01*
X142025000Y-141500000D02*
X140425000Y-141500000D01*
X139725000Y-142200000D02*
X139725000Y-144600000D01*
X143250000Y-133310000D02*
X143250000Y-139370000D01*
X149860000Y-126700000D02*
X143250000Y-133310000D01*
X143000000Y-141500000D02*
X143500000Y-141000000D01*
X142025000Y-141500000D02*
X143000000Y-141500000D01*
D24*
X143750000Y-132810000D02*
X149860000Y-126700000D01*
X143750000Y-139370000D02*
X143750000Y-132810000D01*
D23*
X143050000Y-140070000D02*
X143750000Y-139370000D01*
X143050000Y-140365000D02*
X143050000Y-140070000D01*
X143500000Y-139620000D02*
X143750000Y-139370000D01*
X143500000Y-141000000D02*
X143500000Y-139620000D01*
X143050000Y-142430000D02*
X143250000Y-142630000D01*
X143050000Y-141635000D02*
X143050000Y-142430000D01*
X144000000Y-141750000D02*
X144000000Y-142285000D01*
X143750000Y-142535000D02*
X143750000Y-142550000D01*
X144000000Y-142285000D02*
X143750000Y-142535000D01*
X139725000Y-144600000D02*
X139725000Y-145300000D01*
X137025000Y-148000000D02*
X128700000Y-148000000D01*
X128700000Y-148000000D02*
X128125000Y-148000000D01*
X126379000Y-149512000D02*
X126379000Y-149987000D01*
X126379000Y-149284190D02*
X126379000Y-149512000D01*
X127663190Y-148000000D02*
X126379000Y-149284190D01*
X128125000Y-148000000D02*
X127663190Y-148000000D01*
X136779000Y-148246000D02*
X136779000Y-149225000D01*
X137178500Y-147846500D02*
X136779000Y-148246000D01*
X137178500Y-147846500D02*
X137025000Y-148000000D01*
X139725000Y-145300000D02*
X137178500Y-147846500D01*
X149625000Y-139800000D02*
X149625000Y-142200000D01*
D25*
X154405000Y-146980000D02*
X149625000Y-142200000D01*
X157300000Y-146980000D02*
X154405000Y-146980000D01*
D23*
X153998000Y-146980000D02*
X154405000Y-146980000D01*
X152261000Y-148717000D02*
X153998000Y-146980000D01*
X151511000Y-148717000D02*
X152261000Y-148717000D01*
D25*
X158687500Y-136570000D02*
X158687500Y-126500000D01*
X158687500Y-140512500D02*
X157300000Y-141900000D01*
X158687500Y-136570000D02*
X158687500Y-140512500D01*
X154300000Y-141900000D02*
X152000000Y-139600000D01*
X157300000Y-141900000D02*
X154300000Y-141900000D01*
X152000000Y-139600000D02*
X152000000Y-138700000D01*
X151449990Y-138149990D02*
X146050010Y-138149990D01*
X152000000Y-138700000D02*
X151449990Y-138149990D01*
D27*
X145065010Y-139909990D02*
X144975000Y-139909990D01*
X146050010Y-138149990D02*
X146050010Y-138924990D01*
X146050010Y-138924990D02*
X145065010Y-139909990D01*
D24*
X145200010Y-138898990D02*
X145200010Y-139534990D01*
X146050010Y-138149990D02*
X145949010Y-138149990D01*
X145949010Y-138149990D02*
X145200010Y-138898990D01*
D23*
X150495000Y-137021000D02*
X151449990Y-137975990D01*
X151449990Y-137975990D02*
X151449990Y-138149990D01*
X150495000Y-136271000D02*
X150495000Y-137021000D01*
X125975000Y-137825000D02*
X125800000Y-138000000D01*
X125975000Y-133200000D02*
X125975000Y-137825000D01*
X126075000Y-143355000D02*
X125800000Y-143080000D01*
X126075000Y-148000000D02*
X126075000Y-143355000D01*
X146300000Y-140500000D02*
X145650000Y-140500000D01*
X145650000Y-140500000D02*
X144975000Y-140500000D01*
X147000000Y-139800000D02*
X146300000Y-140500000D01*
X147575000Y-139800000D02*
X147000000Y-139800000D01*
X148475010Y-140125010D02*
X148475010Y-142888180D01*
X142025000Y-142675000D02*
X142025000Y-142390000D01*
X148150000Y-139800000D02*
X148475010Y-140125010D01*
X148075178Y-143288012D02*
X142638012Y-143288012D01*
X142638012Y-143288012D02*
X142025000Y-142675000D01*
X142025000Y-142390000D02*
X142025000Y-142000000D01*
X148475010Y-142888180D02*
X148075178Y-143288012D01*
X147575000Y-139800000D02*
X148150000Y-139800000D01*
X144975000Y-142000000D02*
X144975000Y-141500000D01*
X146936999Y-142838001D02*
X145423001Y-142838001D01*
X144975000Y-142390000D02*
X144975000Y-142000000D01*
X145423001Y-142838001D02*
X144975000Y-142390000D01*
X147575000Y-142200000D02*
X146936999Y-142838001D01*
X136607000Y-135300000D02*
X138500000Y-135300000D01*
X131367000Y-140540000D02*
X136607000Y-135300000D01*
X131318000Y-140716000D02*
X131318000Y-143129000D01*
X131142000Y-140540000D02*
X131367000Y-140540000D01*
X131142000Y-140540000D02*
X131318000Y-140716000D01*
X128340000Y-140540000D02*
X131142000Y-140540000D01*
X142025000Y-136525000D02*
X140800000Y-135300000D01*
X142025000Y-140000000D02*
X142025000Y-136525000D01*
D26*
X142766000Y-148463000D02*
X145279000Y-148463000D01*
D23*
X145777001Y-144413021D02*
X146177000Y-144013022D01*
X145279000Y-148463000D02*
X145279000Y-144911022D01*
X146177014Y-141527014D02*
X146177014Y-142113000D01*
X144975000Y-141000000D02*
X145650000Y-141000000D01*
X145650000Y-141000000D02*
X146177014Y-141527014D01*
X145279000Y-144911022D02*
X145777001Y-144413021D01*
X125975000Y-129182000D02*
X126125000Y-129032000D01*
X125975000Y-130937000D02*
X125975000Y-129182000D01*
X130166000Y-149987000D02*
X130293000Y-149860000D01*
X128129000Y-149987000D02*
X130166000Y-149987000D01*
D28*
G36*
X160630000Y-151740000D02*
G01*
X123850000Y-151740000D01*
X123850000Y-137866544D01*
X124445000Y-137866544D01*
X124445000Y-138133456D01*
X124497072Y-138395239D01*
X124599215Y-138641833D01*
X124747503Y-138863762D01*
X124936238Y-139052497D01*
X125158167Y-139200785D01*
X125404761Y-139302928D01*
X125666544Y-139355000D01*
X125933456Y-139355000D01*
X126195239Y-139302928D01*
X126441833Y-139200785D01*
X126663762Y-139052497D01*
X126852497Y-138863762D01*
X127000785Y-138641833D01*
X127102928Y-138395239D01*
X127155000Y-138133456D01*
X127155000Y-137866544D01*
X127102928Y-137604761D01*
X127000785Y-137358167D01*
X126852497Y-137136238D01*
X126735000Y-137018741D01*
X126735000Y-134419614D01*
X126793387Y-134388405D01*
X126927962Y-134277962D01*
X127000000Y-134190184D01*
X127072038Y-134277962D01*
X127206613Y-134388405D01*
X127360149Y-134470472D01*
X127526745Y-134521008D01*
X127699999Y-134538072D01*
X128350001Y-134538072D01*
X128523255Y-134521008D01*
X128689851Y-134470472D01*
X128843387Y-134388405D01*
X128977962Y-134277962D01*
X129088405Y-134143387D01*
X129170472Y-133989851D01*
X129179527Y-133960000D01*
X134190677Y-133960000D01*
X134228000Y-133963676D01*
X134265323Y-133960000D01*
X134912678Y-133960000D01*
X134950000Y-133963676D01*
X134987322Y-133960000D01*
X134987333Y-133960000D01*
X135098986Y-133949003D01*
X135242247Y-133905546D01*
X135374276Y-133834974D01*
X135490001Y-133740001D01*
X135513804Y-133710997D01*
X138565000Y-130659802D01*
X138565001Y-134265000D01*
X138398061Y-134265000D01*
X138198102Y-134304774D01*
X138009744Y-134382795D01*
X137840226Y-134496063D01*
X137796289Y-134540000D01*
X136644322Y-134540000D01*
X136606999Y-134536324D01*
X136569676Y-134540000D01*
X136569667Y-134540000D01*
X136458014Y-134550997D01*
X136314753Y-134594454D01*
X136182723Y-134665026D01*
X136157731Y-134685537D01*
X136066999Y-134759999D01*
X136043201Y-134788997D01*
X131052199Y-139780000D01*
X129461828Y-139780000D01*
X129392497Y-139676238D01*
X129203762Y-139487503D01*
X128981833Y-139339215D01*
X128735239Y-139237072D01*
X128473456Y-139185000D01*
X128206544Y-139185000D01*
X127944761Y-139237072D01*
X127698167Y-139339215D01*
X127476238Y-139487503D01*
X127287503Y-139676238D01*
X127139215Y-139898167D01*
X127037072Y-140144761D01*
X126985000Y-140406544D01*
X126985000Y-140673456D01*
X127037072Y-140935239D01*
X127139215Y-141181833D01*
X127287503Y-141403762D01*
X127476238Y-141592497D01*
X127698167Y-141740785D01*
X127944761Y-141842928D01*
X128206544Y-141895000D01*
X128473456Y-141895000D01*
X128735239Y-141842928D01*
X128981833Y-141740785D01*
X129203762Y-141592497D01*
X129392497Y-141403762D01*
X129461828Y-141300000D01*
X130558000Y-141300000D01*
X130558001Y-142047954D01*
X130463506Y-142098463D01*
X130366815Y-142177815D01*
X130287463Y-142274506D01*
X130228498Y-142384820D01*
X130192188Y-142504518D01*
X130179928Y-142629000D01*
X130179928Y-143629000D01*
X130192188Y-143753482D01*
X130228498Y-143873180D01*
X130287463Y-143983494D01*
X130366815Y-144080185D01*
X130463506Y-144159537D01*
X130573820Y-144218502D01*
X130693518Y-144254812D01*
X130818000Y-144267072D01*
X131818000Y-144267072D01*
X131942482Y-144254812D01*
X132062180Y-144218502D01*
X132172494Y-144159537D01*
X132269185Y-144080185D01*
X132348537Y-143983494D01*
X132407502Y-143873180D01*
X132443812Y-143753482D01*
X132456072Y-143629000D01*
X132456072Y-142900000D01*
X136461928Y-142900000D01*
X136474188Y-143024482D01*
X136510498Y-143144180D01*
X136569463Y-143254494D01*
X136648815Y-143351185D01*
X136708296Y-143400000D01*
X136648815Y-143448815D01*
X136569463Y-143545506D01*
X136510498Y-143655820D01*
X136474188Y-143775518D01*
X136461928Y-143900000D01*
X136465000Y-144314250D01*
X136623750Y-144473000D01*
X137548000Y-144473000D01*
X137548000Y-143423750D01*
X137524250Y-143400000D01*
X137548000Y-143376250D01*
X137548000Y-142327000D01*
X136623750Y-142327000D01*
X136465000Y-142485750D01*
X136461928Y-142900000D01*
X132456072Y-142900000D01*
X132456072Y-142629000D01*
X132443812Y-142504518D01*
X132407502Y-142384820D01*
X132348537Y-142274506D01*
X132269185Y-142177815D01*
X132172494Y-142098463D01*
X132078000Y-142047954D01*
X132078000Y-140903801D01*
X132481801Y-140500000D01*
X136461928Y-140500000D01*
X136474188Y-140624482D01*
X136510498Y-140744180D01*
X136569463Y-140854494D01*
X136648815Y-140951185D01*
X136708296Y-141000000D01*
X136648815Y-141048815D01*
X136569463Y-141145506D01*
X136510498Y-141255820D01*
X136474188Y-141375518D01*
X136461928Y-141500000D01*
X136465000Y-141914250D01*
X136623750Y-142073000D01*
X137548000Y-142073000D01*
X137548000Y-141023750D01*
X137524250Y-141000000D01*
X137548000Y-140976250D01*
X137548000Y-139927000D01*
X136623750Y-139927000D01*
X136465000Y-140085750D01*
X136461928Y-140500000D01*
X132481801Y-140500000D01*
X134781801Y-138200000D01*
X136461928Y-138200000D01*
X136474188Y-138324482D01*
X136510498Y-138444180D01*
X136569463Y-138554494D01*
X136647842Y-138650000D01*
X136569463Y-138745506D01*
X136510498Y-138855820D01*
X136474188Y-138975518D01*
X136461928Y-139100000D01*
X136465000Y-139514250D01*
X136623750Y-139673000D01*
X137548000Y-139673000D01*
X137548000Y-137627000D01*
X136623750Y-137627000D01*
X136465000Y-137785750D01*
X136461928Y-138200000D01*
X134781801Y-138200000D01*
X136181801Y-136800000D01*
X136461928Y-136800000D01*
X136465000Y-137214250D01*
X136623750Y-137373000D01*
X137548000Y-137373000D01*
X137548000Y-136323750D01*
X137389250Y-136165000D01*
X137100000Y-136161928D01*
X136975518Y-136174188D01*
X136855820Y-136210498D01*
X136745506Y-136269463D01*
X136648815Y-136348815D01*
X136569463Y-136445506D01*
X136510498Y-136555820D01*
X136474188Y-136675518D01*
X136461928Y-136800000D01*
X136181801Y-136800000D01*
X136921802Y-136060000D01*
X137796289Y-136060000D01*
X137840226Y-136103937D01*
X137949080Y-136176670D01*
X137802000Y-136323750D01*
X137802000Y-137373000D01*
X137822000Y-137373000D01*
X137822000Y-137627000D01*
X137802000Y-137627000D01*
X137802000Y-139673000D01*
X137822000Y-139673000D01*
X137822000Y-139927000D01*
X137802000Y-139927000D01*
X137802000Y-140976250D01*
X137825750Y-141000000D01*
X137802000Y-141023750D01*
X137802000Y-142073000D01*
X137822000Y-142073000D01*
X137822000Y-142327000D01*
X137802000Y-142327000D01*
X137802000Y-143376250D01*
X137825750Y-143400000D01*
X137802000Y-143423750D01*
X137802000Y-144473000D01*
X137822000Y-144473000D01*
X137822000Y-144727000D01*
X137802000Y-144727000D01*
X137802000Y-145776250D01*
X137960750Y-145935000D01*
X138014626Y-145935572D01*
X136710199Y-147240000D01*
X129279527Y-147240000D01*
X129270472Y-147210149D01*
X129188405Y-147056613D01*
X129077962Y-146922038D01*
X128943387Y-146811595D01*
X128789851Y-146729528D01*
X128623255Y-146678992D01*
X128450001Y-146661928D01*
X127799999Y-146661928D01*
X127626745Y-146678992D01*
X127460149Y-146729528D01*
X127306613Y-146811595D01*
X127172038Y-146922038D01*
X127100000Y-147009816D01*
X127027962Y-146922038D01*
X126893387Y-146811595D01*
X126835000Y-146780386D01*
X126835000Y-145300000D01*
X136461928Y-145300000D01*
X136474188Y-145424482D01*
X136510498Y-145544180D01*
X136569463Y-145654494D01*
X136648815Y-145751185D01*
X136745506Y-145830537D01*
X136855820Y-145889502D01*
X136975518Y-145925812D01*
X137100000Y-145938072D01*
X137389250Y-145935000D01*
X137548000Y-145776250D01*
X137548000Y-144727000D01*
X136623750Y-144727000D01*
X136465000Y-144885750D01*
X136461928Y-145300000D01*
X126835000Y-145300000D01*
X126835000Y-143961259D01*
X126852497Y-143943762D01*
X127000785Y-143721833D01*
X127102928Y-143475239D01*
X127155000Y-143213456D01*
X127155000Y-142946544D01*
X127102928Y-142684761D01*
X127000785Y-142438167D01*
X126852497Y-142216238D01*
X126663762Y-142027503D01*
X126441833Y-141879215D01*
X126195239Y-141777072D01*
X125933456Y-141725000D01*
X125666544Y-141725000D01*
X125404761Y-141777072D01*
X125158167Y-141879215D01*
X124936238Y-142027503D01*
X124747503Y-142216238D01*
X124599215Y-142438167D01*
X124497072Y-142684761D01*
X124445000Y-142946544D01*
X124445000Y-143213456D01*
X124497072Y-143475239D01*
X124599215Y-143721833D01*
X124747503Y-143943762D01*
X124936238Y-144132497D01*
X125158167Y-144280785D01*
X125315001Y-144345748D01*
X125315000Y-146780386D01*
X125256613Y-146811595D01*
X125122038Y-146922038D01*
X125011595Y-147056613D01*
X124929528Y-147210149D01*
X124878992Y-147376745D01*
X124861928Y-147549999D01*
X124861928Y-148450001D01*
X124878992Y-148623255D01*
X124929528Y-148789851D01*
X125011595Y-148943387D01*
X125122038Y-149077962D01*
X125256613Y-149188405D01*
X125373486Y-149250875D01*
X125363488Y-149263058D01*
X125282577Y-149414433D01*
X125232752Y-149578684D01*
X125215928Y-149749500D01*
X125215928Y-150224500D01*
X125232752Y-150395316D01*
X125282577Y-150559567D01*
X125363488Y-150710942D01*
X125472377Y-150843623D01*
X125605058Y-150952512D01*
X125756433Y-151033423D01*
X125920684Y-151083248D01*
X126091500Y-151100072D01*
X126666500Y-151100072D01*
X126837316Y-151083248D01*
X127001567Y-151033423D01*
X127152942Y-150952512D01*
X127254000Y-150869575D01*
X127355058Y-150952512D01*
X127506433Y-151033423D01*
X127670684Y-151083248D01*
X127841500Y-151100072D01*
X128416500Y-151100072D01*
X128587316Y-151083248D01*
X128751567Y-151033423D01*
X128902942Y-150952512D01*
X129035623Y-150843623D01*
X129114920Y-150747000D01*
X129199455Y-150747000D01*
X129229595Y-150803387D01*
X129340038Y-150937962D01*
X129474613Y-151048405D01*
X129628149Y-151130472D01*
X129794745Y-151181008D01*
X129967999Y-151198072D01*
X130618001Y-151198072D01*
X130791255Y-151181008D01*
X130957851Y-151130472D01*
X131111387Y-151048405D01*
X131245962Y-150937962D01*
X131251342Y-150931406D01*
X131316815Y-151011185D01*
X131413506Y-151090537D01*
X131523820Y-151149502D01*
X131643518Y-151185812D01*
X131768000Y-151198072D01*
X132057250Y-151195000D01*
X132216000Y-151036250D01*
X132216000Y-149987000D01*
X132470000Y-149987000D01*
X132470000Y-151036250D01*
X132628750Y-151195000D01*
X132918000Y-151198072D01*
X133042482Y-151185812D01*
X133162180Y-151149502D01*
X133272494Y-151090537D01*
X133369185Y-151011185D01*
X133448537Y-150914494D01*
X133507502Y-150804180D01*
X133543812Y-150684482D01*
X133556072Y-150560000D01*
X133553000Y-150145750D01*
X133394250Y-149987000D01*
X132470000Y-149987000D01*
X132216000Y-149987000D01*
X132196000Y-149987000D01*
X132196000Y-149733000D01*
X132216000Y-149733000D01*
X132216000Y-149713000D01*
X132470000Y-149713000D01*
X132470000Y-149733000D01*
X133394250Y-149733000D01*
X133553000Y-149574250D01*
X133556072Y-149160000D01*
X133543812Y-149035518D01*
X133507502Y-148915820D01*
X133448537Y-148805506D01*
X133411191Y-148760000D01*
X135640928Y-148760000D01*
X135640928Y-149725000D01*
X135653188Y-149849482D01*
X135689498Y-149969180D01*
X135748463Y-150079494D01*
X135827815Y-150176185D01*
X135924506Y-150255537D01*
X136034820Y-150314502D01*
X136154518Y-150350812D01*
X136279000Y-150363072D01*
X137279000Y-150363072D01*
X137403482Y-150350812D01*
X137523180Y-150314502D01*
X137633494Y-150255537D01*
X137730185Y-150176185D01*
X137809537Y-150079494D01*
X137868502Y-149969180D01*
X137904812Y-149849482D01*
X137917072Y-149725000D01*
X137917072Y-148725000D01*
X137904812Y-148600518D01*
X137868502Y-148480820D01*
X137809537Y-148370506D01*
X137773368Y-148326433D01*
X139956000Y-146143801D01*
X139956000Y-147243386D01*
X139897613Y-147274595D01*
X139763038Y-147385038D01*
X139652595Y-147519613D01*
X139570528Y-147673149D01*
X139519992Y-147839745D01*
X139502928Y-148012999D01*
X139502928Y-148913001D01*
X139519992Y-149086255D01*
X139570528Y-149252851D01*
X139652595Y-149406387D01*
X139763038Y-149540962D01*
X139897613Y-149651405D01*
X140051149Y-149733472D01*
X140217745Y-149784008D01*
X140390999Y-149801072D01*
X141041001Y-149801072D01*
X141214255Y-149784008D01*
X141380851Y-149733472D01*
X141534387Y-149651405D01*
X141668962Y-149540962D01*
X141741000Y-149453184D01*
X141813038Y-149540962D01*
X141947613Y-149651405D01*
X142101149Y-149733472D01*
X142267745Y-149784008D01*
X142440999Y-149801072D01*
X143091001Y-149801072D01*
X143264255Y-149784008D01*
X143430851Y-149733472D01*
X143584387Y-149651405D01*
X143649461Y-149598000D01*
X144395539Y-149598000D01*
X144460613Y-149651405D01*
X144614149Y-149733472D01*
X144780745Y-149784008D01*
X144953999Y-149801072D01*
X145604001Y-149801072D01*
X145777255Y-149784008D01*
X145943851Y-149733472D01*
X146097387Y-149651405D01*
X146231962Y-149540962D01*
X146237342Y-149534406D01*
X146302815Y-149614185D01*
X146399506Y-149693537D01*
X146509820Y-149752502D01*
X146629518Y-149788812D01*
X146754000Y-149801072D01*
X147043250Y-149798000D01*
X147202000Y-149639250D01*
X147202000Y-148590000D01*
X147456000Y-148590000D01*
X147456000Y-149639250D01*
X147614750Y-149798000D01*
X147904000Y-149801072D01*
X148028482Y-149788812D01*
X148148180Y-149752502D01*
X148258494Y-149693537D01*
X148355185Y-149614185D01*
X148434537Y-149517494D01*
X148493502Y-149407180D01*
X148529812Y-149287482D01*
X148542072Y-149163000D01*
X148539000Y-148748750D01*
X148380250Y-148590000D01*
X147456000Y-148590000D01*
X147202000Y-148590000D01*
X147182000Y-148590000D01*
X147182000Y-148336000D01*
X147202000Y-148336000D01*
X147202000Y-147286750D01*
X147456000Y-147286750D01*
X147456000Y-148336000D01*
X148380250Y-148336000D01*
X148539000Y-148177250D01*
X148542072Y-147763000D01*
X148529812Y-147638518D01*
X148493502Y-147518820D01*
X148434537Y-147408506D01*
X148355185Y-147311815D01*
X148258494Y-147232463D01*
X148148180Y-147173498D01*
X148028482Y-147137188D01*
X147904000Y-147124928D01*
X147614750Y-147128000D01*
X147456000Y-147286750D01*
X147202000Y-147286750D01*
X147043250Y-147128000D01*
X146754000Y-147124928D01*
X146629518Y-147137188D01*
X146509820Y-147173498D01*
X146399506Y-147232463D01*
X146302815Y-147311815D01*
X146237342Y-147391594D01*
X146231962Y-147385038D01*
X146097387Y-147274595D01*
X146039000Y-147243386D01*
X146039000Y-145225823D01*
X146216801Y-145048022D01*
X146278939Y-145048022D01*
X146478898Y-145008248D01*
X146667256Y-144930227D01*
X146836774Y-144816959D01*
X146980937Y-144672796D01*
X147094205Y-144503278D01*
X147172226Y-144314920D01*
X147212000Y-144114961D01*
X147212000Y-144048012D01*
X148037856Y-144048012D01*
X148075178Y-144051688D01*
X148112500Y-144048012D01*
X148112511Y-144048012D01*
X148224164Y-144037015D01*
X148367425Y-143993558D01*
X148499454Y-143922986D01*
X148615179Y-143828013D01*
X148638982Y-143799009D01*
X148952153Y-143485838D01*
X152684756Y-147218442D01*
X152268553Y-147634646D01*
X152255180Y-147627498D01*
X152135482Y-147591188D01*
X152011000Y-147578928D01*
X151011000Y-147578928D01*
X150886518Y-147591188D01*
X150766820Y-147627498D01*
X150656506Y-147686463D01*
X150559815Y-147765815D01*
X150480463Y-147862506D01*
X150421498Y-147972820D01*
X150385188Y-148092518D01*
X150372928Y-148217000D01*
X150372928Y-149217000D01*
X150385188Y-149341482D01*
X150421498Y-149461180D01*
X150480463Y-149571494D01*
X150559815Y-149668185D01*
X150656506Y-149747537D01*
X150766820Y-149806502D01*
X150886518Y-149842812D01*
X151011000Y-149855072D01*
X152011000Y-149855072D01*
X152135482Y-149842812D01*
X152255180Y-149806502D01*
X152365494Y-149747537D01*
X152462185Y-149668185D01*
X152541537Y-149571494D01*
X152600502Y-149461180D01*
X152623634Y-149384923D01*
X152685276Y-149351974D01*
X152801001Y-149257001D01*
X152824804Y-149227997D01*
X153816778Y-148236023D01*
X153872419Y-148265764D01*
X154133493Y-148344960D01*
X154336963Y-148365000D01*
X154336971Y-148365000D01*
X154405000Y-148371700D01*
X154473029Y-148365000D01*
X155665654Y-148365000D01*
X155939017Y-148638363D01*
X156288698Y-148872012D01*
X156677244Y-149032953D01*
X157089721Y-149115000D01*
X157510279Y-149115000D01*
X157922756Y-149032953D01*
X158311302Y-148872012D01*
X158660983Y-148638363D01*
X158958363Y-148340983D01*
X159192012Y-147991302D01*
X159352953Y-147602756D01*
X159435000Y-147190279D01*
X159435000Y-146769721D01*
X159352953Y-146357244D01*
X159192012Y-145968698D01*
X158958363Y-145619017D01*
X158660983Y-145321637D01*
X158311302Y-145087988D01*
X157922756Y-144927047D01*
X157510279Y-144845000D01*
X157089721Y-144845000D01*
X156677244Y-144927047D01*
X156288698Y-145087988D01*
X155939017Y-145321637D01*
X155665654Y-145595000D01*
X154978686Y-145595000D01*
X150743646Y-141359961D01*
X150688405Y-141256613D01*
X150577962Y-141122038D01*
X150443387Y-141011595D01*
X150421694Y-141000000D01*
X150443387Y-140988405D01*
X150577962Y-140877962D01*
X150688405Y-140743387D01*
X150770472Y-140589851D01*
X150821008Y-140423255D01*
X150828569Y-140346483D01*
X150842843Y-140373187D01*
X150879010Y-140417256D01*
X150970328Y-140528527D01*
X151015919Y-140584080D01*
X151068765Y-140627450D01*
X153272550Y-142831236D01*
X153315919Y-142884081D01*
X153368764Y-142927450D01*
X153368766Y-142927452D01*
X153478851Y-143017796D01*
X153526812Y-143057157D01*
X153767419Y-143185764D01*
X154028493Y-143264960D01*
X154231963Y-143285000D01*
X154231972Y-143285000D01*
X154299999Y-143291700D01*
X154368026Y-143285000D01*
X155161928Y-143285000D01*
X155161928Y-143400000D01*
X155174188Y-143524482D01*
X155210498Y-143644180D01*
X155269463Y-143754494D01*
X155348815Y-143851185D01*
X155445506Y-143930537D01*
X155555820Y-143989502D01*
X155675518Y-144025812D01*
X155800000Y-144038072D01*
X158800000Y-144038072D01*
X158924482Y-144025812D01*
X159044180Y-143989502D01*
X159154494Y-143930537D01*
X159251185Y-143851185D01*
X159330537Y-143754494D01*
X159389502Y-143644180D01*
X159425812Y-143524482D01*
X159438072Y-143400000D01*
X159438072Y-141720614D01*
X159618736Y-141539950D01*
X159671581Y-141496581D01*
X159728840Y-141426812D01*
X159812418Y-141324971D01*
X159844657Y-141285688D01*
X159973264Y-141045081D01*
X160052460Y-140784007D01*
X160072500Y-140580537D01*
X160072500Y-140580528D01*
X160079200Y-140512501D01*
X160072500Y-140444474D01*
X160072500Y-126431963D01*
X160052460Y-126228493D01*
X160038072Y-126181062D01*
X160038072Y-125875000D01*
X160021008Y-125701746D01*
X159970472Y-125535150D01*
X159888405Y-125381614D01*
X159777962Y-125247038D01*
X159643386Y-125136595D01*
X159489850Y-125054528D01*
X159323254Y-125003992D01*
X159150000Y-124986928D01*
X158225000Y-124986928D01*
X158051746Y-125003992D01*
X157885150Y-125054528D01*
X157731614Y-125136595D01*
X157597038Y-125247038D01*
X157486595Y-125381614D01*
X157404528Y-125535150D01*
X157353992Y-125701746D01*
X157336928Y-125875000D01*
X157336928Y-126181065D01*
X157322541Y-126228493D01*
X157302501Y-126431963D01*
X157302500Y-136501963D01*
X157302500Y-136501964D01*
X157302501Y-139761928D01*
X155800000Y-139761928D01*
X155675518Y-139774188D01*
X155555820Y-139810498D01*
X155445506Y-139869463D01*
X155348815Y-139948815D01*
X155269463Y-140045506D01*
X155210498Y-140155820D01*
X155174188Y-140275518D01*
X155161928Y-140400000D01*
X155161928Y-140515000D01*
X154873686Y-140515000D01*
X153385000Y-139026315D01*
X153385000Y-138768029D01*
X153391700Y-138700000D01*
X153385000Y-138631971D01*
X153385000Y-138631964D01*
X153364960Y-138428493D01*
X153285764Y-138167419D01*
X153157157Y-137926812D01*
X152984081Y-137715919D01*
X152931231Y-137672546D01*
X152703685Y-137445000D01*
X154361928Y-137445000D01*
X154374188Y-137569482D01*
X154410498Y-137689180D01*
X154469463Y-137799494D01*
X154548815Y-137896185D01*
X154645506Y-137975537D01*
X154755820Y-138034502D01*
X154875518Y-138070812D01*
X155000000Y-138083072D01*
X155426750Y-138080000D01*
X155585500Y-137921250D01*
X155585500Y-136697000D01*
X155839500Y-136697000D01*
X155839500Y-137921250D01*
X155998250Y-138080000D01*
X156425000Y-138083072D01*
X156549482Y-138070812D01*
X156669180Y-138034502D01*
X156779494Y-137975537D01*
X156876185Y-137896185D01*
X156955537Y-137799494D01*
X157014502Y-137689180D01*
X157050812Y-137569482D01*
X157063072Y-137445000D01*
X157060000Y-136855750D01*
X156901250Y-136697000D01*
X155839500Y-136697000D01*
X155585500Y-136697000D01*
X154523750Y-136697000D01*
X154365000Y-136855750D01*
X154361928Y-137445000D01*
X152703685Y-137445000D01*
X152477444Y-137218759D01*
X152434071Y-137165909D01*
X152223178Y-136992833D01*
X151982571Y-136864226D01*
X151721497Y-136785030D01*
X151632553Y-136776270D01*
X151633072Y-136771000D01*
X151633072Y-135771000D01*
X151625587Y-135695000D01*
X154361928Y-135695000D01*
X154365000Y-136284250D01*
X154523750Y-136443000D01*
X155585500Y-136443000D01*
X155585500Y-135218750D01*
X155839500Y-135218750D01*
X155839500Y-136443000D01*
X156901250Y-136443000D01*
X157060000Y-136284250D01*
X157063072Y-135695000D01*
X157050812Y-135570518D01*
X157014502Y-135450820D01*
X156955537Y-135340506D01*
X156876185Y-135243815D01*
X156779494Y-135164463D01*
X156669180Y-135105498D01*
X156549482Y-135069188D01*
X156425000Y-135056928D01*
X155998250Y-135060000D01*
X155839500Y-135218750D01*
X155585500Y-135218750D01*
X155426750Y-135060000D01*
X155000000Y-135056928D01*
X154875518Y-135069188D01*
X154755820Y-135105498D01*
X154645506Y-135164463D01*
X154548815Y-135243815D01*
X154469463Y-135340506D01*
X154410498Y-135450820D01*
X154374188Y-135570518D01*
X154361928Y-135695000D01*
X151625587Y-135695000D01*
X151620812Y-135646518D01*
X151584502Y-135526820D01*
X151525537Y-135416506D01*
X151446185Y-135319815D01*
X151349494Y-135240463D01*
X151239180Y-135181498D01*
X151119482Y-135145188D01*
X150995000Y-135132928D01*
X149995000Y-135132928D01*
X149870518Y-135145188D01*
X149750820Y-135181498D01*
X149640506Y-135240463D01*
X149543815Y-135319815D01*
X149464463Y-135416506D01*
X149405498Y-135526820D01*
X149369188Y-135646518D01*
X149356928Y-135771000D01*
X149356928Y-136764990D01*
X145981973Y-136764990D01*
X145778503Y-136785030D01*
X145517429Y-136864226D01*
X145276822Y-136992833D01*
X145065929Y-137165909D01*
X145010000Y-137234058D01*
X145010000Y-134155000D01*
X154361928Y-134155000D01*
X154374188Y-134279482D01*
X154410498Y-134399180D01*
X154469463Y-134509494D01*
X154548815Y-134606185D01*
X154645506Y-134685537D01*
X154755820Y-134744502D01*
X154875518Y-134780812D01*
X155000000Y-134793072D01*
X155426750Y-134790000D01*
X155585500Y-134631250D01*
X155585500Y-133407000D01*
X155839500Y-133407000D01*
X155839500Y-134631250D01*
X155998250Y-134790000D01*
X156425000Y-134793072D01*
X156549482Y-134780812D01*
X156669180Y-134744502D01*
X156779494Y-134685537D01*
X156876185Y-134606185D01*
X156955537Y-134509494D01*
X157014502Y-134399180D01*
X157050812Y-134279482D01*
X157063072Y-134155000D01*
X157060000Y-133565750D01*
X156901250Y-133407000D01*
X155839500Y-133407000D01*
X155585500Y-133407000D01*
X154523750Y-133407000D01*
X154365000Y-133565750D01*
X154361928Y-134155000D01*
X145010000Y-134155000D01*
X145010000Y-133331908D01*
X145936908Y-132405000D01*
X154361928Y-132405000D01*
X154365000Y-132994250D01*
X154523750Y-133153000D01*
X155585500Y-133153000D01*
X155585500Y-131928750D01*
X155839500Y-131928750D01*
X155839500Y-133153000D01*
X156901250Y-133153000D01*
X157060000Y-132994250D01*
X157063072Y-132405000D01*
X157050812Y-132280518D01*
X157014502Y-132160820D01*
X156955537Y-132050506D01*
X156876185Y-131953815D01*
X156779494Y-131874463D01*
X156669180Y-131815498D01*
X156549482Y-131779188D01*
X156425000Y-131766928D01*
X155998250Y-131770000D01*
X155839500Y-131928750D01*
X155585500Y-131928750D01*
X155426750Y-131770000D01*
X155000000Y-131766928D01*
X154875518Y-131779188D01*
X154755820Y-131815498D01*
X154645506Y-131874463D01*
X154548815Y-131953815D01*
X154469463Y-132050506D01*
X154410498Y-132160820D01*
X154374188Y-132280518D01*
X154361928Y-132405000D01*
X145936908Y-132405000D01*
X147766908Y-130575000D01*
X154361928Y-130575000D01*
X154374188Y-130699482D01*
X154410498Y-130819180D01*
X154469463Y-130929494D01*
X154548815Y-131026185D01*
X154645506Y-131105537D01*
X154755820Y-131164502D01*
X154875518Y-131200812D01*
X155000000Y-131213072D01*
X155426750Y-131210000D01*
X155585500Y-131051250D01*
X155585500Y-129827000D01*
X155839500Y-129827000D01*
X155839500Y-131051250D01*
X155998250Y-131210000D01*
X156425000Y-131213072D01*
X156549482Y-131200812D01*
X156669180Y-131164502D01*
X156779494Y-131105537D01*
X156876185Y-131026185D01*
X156955537Y-130929494D01*
X157014502Y-130819180D01*
X157050812Y-130699482D01*
X157063072Y-130575000D01*
X157060000Y-129985750D01*
X156901250Y-129827000D01*
X155839500Y-129827000D01*
X155585500Y-129827000D01*
X154523750Y-129827000D01*
X154365000Y-129985750D01*
X154361928Y-130575000D01*
X147766908Y-130575000D01*
X149530603Y-128811306D01*
X149649721Y-128835000D01*
X150070279Y-128835000D01*
X150120552Y-128825000D01*
X154361928Y-128825000D01*
X154365000Y-129414250D01*
X154523750Y-129573000D01*
X155585500Y-129573000D01*
X155585500Y-128348750D01*
X155839500Y-128348750D01*
X155839500Y-129573000D01*
X156901250Y-129573000D01*
X157060000Y-129414250D01*
X157063072Y-128825000D01*
X157050812Y-128700518D01*
X157014502Y-128580820D01*
X156955537Y-128470506D01*
X156876185Y-128373815D01*
X156779494Y-128294463D01*
X156669180Y-128235498D01*
X156549482Y-128199188D01*
X156425000Y-128186928D01*
X155998250Y-128190000D01*
X155839500Y-128348750D01*
X155585500Y-128348750D01*
X155426750Y-128190000D01*
X155000000Y-128186928D01*
X154875518Y-128199188D01*
X154755820Y-128235498D01*
X154645506Y-128294463D01*
X154548815Y-128373815D01*
X154469463Y-128470506D01*
X154410498Y-128580820D01*
X154374188Y-128700518D01*
X154361928Y-128825000D01*
X150120552Y-128825000D01*
X150482756Y-128752953D01*
X150871302Y-128592012D01*
X151220983Y-128358363D01*
X151518363Y-128060983D01*
X151752012Y-127711302D01*
X151891312Y-127375000D01*
X154361928Y-127375000D01*
X154374188Y-127499482D01*
X154410498Y-127619180D01*
X154469463Y-127729494D01*
X154548815Y-127826185D01*
X154645506Y-127905537D01*
X154755820Y-127964502D01*
X154875518Y-128000812D01*
X155000000Y-128013072D01*
X155426750Y-128010000D01*
X155585500Y-127851250D01*
X155585500Y-126627000D01*
X155839500Y-126627000D01*
X155839500Y-127851250D01*
X155998250Y-128010000D01*
X156425000Y-128013072D01*
X156549482Y-128000812D01*
X156669180Y-127964502D01*
X156779494Y-127905537D01*
X156876185Y-127826185D01*
X156955537Y-127729494D01*
X157014502Y-127619180D01*
X157050812Y-127499482D01*
X157063072Y-127375000D01*
X157060000Y-126785750D01*
X156901250Y-126627000D01*
X155839500Y-126627000D01*
X155585500Y-126627000D01*
X154523750Y-126627000D01*
X154365000Y-126785750D01*
X154361928Y-127375000D01*
X151891312Y-127375000D01*
X151912953Y-127322756D01*
X151995000Y-126910279D01*
X151995000Y-126489721D01*
X151912953Y-126077244D01*
X151752012Y-125688698D01*
X151709451Y-125625000D01*
X154361928Y-125625000D01*
X154365000Y-126214250D01*
X154523750Y-126373000D01*
X155585500Y-126373000D01*
X155585500Y-125148750D01*
X155839500Y-125148750D01*
X155839500Y-126373000D01*
X156901250Y-126373000D01*
X157060000Y-126214250D01*
X157063072Y-125625000D01*
X157050812Y-125500518D01*
X157014502Y-125380820D01*
X156955537Y-125270506D01*
X156876185Y-125173815D01*
X156779494Y-125094463D01*
X156669180Y-125035498D01*
X156549482Y-124999188D01*
X156425000Y-124986928D01*
X155998250Y-124990000D01*
X155839500Y-125148750D01*
X155585500Y-125148750D01*
X155426750Y-124990000D01*
X155000000Y-124986928D01*
X154875518Y-124999188D01*
X154755820Y-125035498D01*
X154645506Y-125094463D01*
X154548815Y-125173815D01*
X154469463Y-125270506D01*
X154410498Y-125380820D01*
X154374188Y-125500518D01*
X154361928Y-125625000D01*
X151709451Y-125625000D01*
X151518363Y-125339017D01*
X151220983Y-125041637D01*
X150871302Y-124807988D01*
X150482756Y-124647047D01*
X150070279Y-124565000D01*
X149649721Y-124565000D01*
X149237244Y-124647047D01*
X148848698Y-124807988D01*
X148499017Y-125041637D01*
X148201637Y-125339017D01*
X147967988Y-125688698D01*
X147807047Y-126077244D01*
X147725000Y-126489721D01*
X147725000Y-126910279D01*
X147748694Y-127029397D01*
X142902811Y-131875281D01*
X142854736Y-131914735D01*
X142815282Y-131962810D01*
X142815281Y-131962811D01*
X142697280Y-132106595D01*
X142580280Y-132325487D01*
X142508233Y-132562997D01*
X142483905Y-132810000D01*
X142490001Y-132871893D01*
X142490001Y-133272659D01*
X142490000Y-133272668D01*
X142490000Y-133272678D01*
X142486324Y-133310000D01*
X142490000Y-133347323D01*
X142490000Y-135915199D01*
X141835000Y-135260199D01*
X141835000Y-135198061D01*
X141795226Y-134998102D01*
X141717205Y-134809744D01*
X141603937Y-134640226D01*
X141459774Y-134496063D01*
X141290256Y-134382795D01*
X141101898Y-134304774D01*
X140901939Y-134265000D01*
X140835000Y-134265000D01*
X140835000Y-128838072D01*
X141200000Y-128838072D01*
X141324482Y-128825812D01*
X141444180Y-128789502D01*
X141554494Y-128730537D01*
X141651185Y-128651185D01*
X141730537Y-128554494D01*
X141789502Y-128444180D01*
X141825812Y-128324482D01*
X141838072Y-128200000D01*
X141838072Y-128191653D01*
X143467952Y-128191653D01*
X143623962Y-128507214D01*
X143998745Y-128698020D01*
X144403551Y-128812044D01*
X144822824Y-128844902D01*
X145240451Y-128795334D01*
X145640383Y-128665243D01*
X145936038Y-128507214D01*
X146092048Y-128191653D01*
X144780000Y-126879605D01*
X143467952Y-128191653D01*
X141838072Y-128191653D01*
X141838072Y-126742824D01*
X142635098Y-126742824D01*
X142684666Y-127160451D01*
X142814757Y-127560383D01*
X142972786Y-127856038D01*
X143288347Y-128012048D01*
X144600395Y-126700000D01*
X144959605Y-126700000D01*
X146271653Y-128012048D01*
X146587214Y-127856038D01*
X146778020Y-127481255D01*
X146892044Y-127076449D01*
X146924902Y-126657176D01*
X146875334Y-126239549D01*
X146745243Y-125839617D01*
X146587214Y-125543962D01*
X146271653Y-125387952D01*
X144959605Y-126700000D01*
X144600395Y-126700000D01*
X143288347Y-125387952D01*
X142972786Y-125543962D01*
X142781980Y-125918745D01*
X142667956Y-126323551D01*
X142635098Y-126742824D01*
X141838072Y-126742824D01*
X141838072Y-125208347D01*
X143467952Y-125208347D01*
X144780000Y-126520395D01*
X146092048Y-125208347D01*
X145936038Y-124892786D01*
X145561255Y-124701980D01*
X145156449Y-124587956D01*
X144737176Y-124555098D01*
X144319549Y-124604666D01*
X143919617Y-124734757D01*
X143623962Y-124892786D01*
X143467952Y-125208347D01*
X141838072Y-125208347D01*
X141838072Y-125200000D01*
X141825812Y-125075518D01*
X141789502Y-124955820D01*
X141730537Y-124845506D01*
X141651185Y-124748815D01*
X141554494Y-124669463D01*
X141444180Y-124610498D01*
X141324482Y-124574188D01*
X141200000Y-124561928D01*
X138200000Y-124561928D01*
X138075518Y-124574188D01*
X137955820Y-124610498D01*
X137845506Y-124669463D01*
X137748815Y-124748815D01*
X137669463Y-124845506D01*
X137610498Y-124955820D01*
X137574188Y-125075518D01*
X137561928Y-125200000D01*
X137561928Y-128200000D01*
X137574188Y-128324482D01*
X137610498Y-128444180D01*
X137669463Y-128554494D01*
X137748815Y-128651185D01*
X137845506Y-128730537D01*
X137955820Y-128789502D01*
X138075518Y-128825812D01*
X138200000Y-128838072D01*
X138237125Y-128838072D01*
X135123072Y-131952127D01*
X135123072Y-131707000D01*
X135110812Y-131582518D01*
X135074502Y-131462820D01*
X135015537Y-131352506D01*
X134936185Y-131255815D01*
X134839494Y-131176463D01*
X134729180Y-131117498D01*
X134609482Y-131081188D01*
X134485000Y-131068928D01*
X133485000Y-131068928D01*
X133360518Y-131081188D01*
X133240820Y-131117498D01*
X133130506Y-131176463D01*
X133033815Y-131255815D01*
X132954463Y-131352506D01*
X132895498Y-131462820D01*
X132859188Y-131582518D01*
X132846928Y-131707000D01*
X132846928Y-132440000D01*
X129179527Y-132440000D01*
X129170472Y-132410149D01*
X129088405Y-132256613D01*
X128977962Y-132122038D01*
X128912726Y-132068500D01*
X128977962Y-132014962D01*
X129088405Y-131880387D01*
X129170472Y-131726851D01*
X129221008Y-131560255D01*
X129238072Y-131387001D01*
X129238072Y-130486999D01*
X129221008Y-130313745D01*
X129170472Y-130147149D01*
X129088405Y-129993613D01*
X128977962Y-129859038D01*
X128945910Y-129832734D01*
X128989502Y-129751180D01*
X129025812Y-129631482D01*
X129038072Y-129507000D01*
X129035000Y-129317750D01*
X128876250Y-129159000D01*
X128002000Y-129159000D01*
X128002000Y-129179000D01*
X127748000Y-129179000D01*
X127748000Y-129159000D01*
X127728000Y-129159000D01*
X127728000Y-128905000D01*
X127748000Y-128905000D01*
X127748000Y-128080750D01*
X128002000Y-128080750D01*
X128002000Y-128905000D01*
X128876250Y-128905000D01*
X129035000Y-128746250D01*
X129038072Y-128557000D01*
X129025812Y-128432518D01*
X128989502Y-128312820D01*
X128930537Y-128202506D01*
X128851185Y-128105815D01*
X128754494Y-128026463D01*
X128644180Y-127967498D01*
X128524482Y-127931188D01*
X128400000Y-127918928D01*
X128160750Y-127922000D01*
X128002000Y-128080750D01*
X127748000Y-128080750D01*
X127589250Y-127922000D01*
X127350000Y-127918928D01*
X127225518Y-127931188D01*
X127105820Y-127967498D01*
X126995506Y-128026463D01*
X126922839Y-128086099D01*
X126898942Y-128066488D01*
X126747567Y-127985577D01*
X126583316Y-127935752D01*
X126412500Y-127918928D01*
X125837500Y-127918928D01*
X125666684Y-127935752D01*
X125502433Y-127985577D01*
X125351058Y-128066488D01*
X125218377Y-128175377D01*
X125109488Y-128308058D01*
X125028577Y-128459433D01*
X124978752Y-128623684D01*
X124961928Y-128794500D01*
X124961928Y-129269500D01*
X124978752Y-129440316D01*
X125028577Y-129604567D01*
X125109488Y-129755942D01*
X125124851Y-129774662D01*
X125022038Y-129859038D01*
X124911595Y-129993613D01*
X124829528Y-130147149D01*
X124778992Y-130313745D01*
X124761928Y-130486999D01*
X124761928Y-131387001D01*
X124778992Y-131560255D01*
X124829528Y-131726851D01*
X124911595Y-131880387D01*
X125022038Y-132014962D01*
X125087274Y-132068500D01*
X125022038Y-132122038D01*
X124911595Y-132256613D01*
X124829528Y-132410149D01*
X124778992Y-132576745D01*
X124761928Y-132749999D01*
X124761928Y-133650001D01*
X124778992Y-133823255D01*
X124829528Y-133989851D01*
X124911595Y-134143387D01*
X125022038Y-134277962D01*
X125156613Y-134388405D01*
X125215000Y-134419614D01*
X125215001Y-136775674D01*
X125158167Y-136799215D01*
X124936238Y-136947503D01*
X124747503Y-137136238D01*
X124599215Y-137358167D01*
X124497072Y-137604761D01*
X124445000Y-137866544D01*
X123850000Y-137866544D01*
X123850000Y-122580000D01*
X160630001Y-122580000D01*
X160630000Y-151740000D01*
G37*
X160630000Y-151740000D02*
X123850000Y-151740000D01*
X123850000Y-137866544D01*
X124445000Y-137866544D01*
X124445000Y-138133456D01*
X124497072Y-138395239D01*
X124599215Y-138641833D01*
X124747503Y-138863762D01*
X124936238Y-139052497D01*
X125158167Y-139200785D01*
X125404761Y-139302928D01*
X125666544Y-139355000D01*
X125933456Y-139355000D01*
X126195239Y-139302928D01*
X126441833Y-139200785D01*
X126663762Y-139052497D01*
X126852497Y-138863762D01*
X127000785Y-138641833D01*
X127102928Y-138395239D01*
X127155000Y-138133456D01*
X127155000Y-137866544D01*
X127102928Y-137604761D01*
X127000785Y-137358167D01*
X126852497Y-137136238D01*
X126735000Y-137018741D01*
X126735000Y-134419614D01*
X126793387Y-134388405D01*
X126927962Y-134277962D01*
X127000000Y-134190184D01*
X127072038Y-134277962D01*
X127206613Y-134388405D01*
X127360149Y-134470472D01*
X127526745Y-134521008D01*
X127699999Y-134538072D01*
X128350001Y-134538072D01*
X128523255Y-134521008D01*
X128689851Y-134470472D01*
X128843387Y-134388405D01*
X128977962Y-134277962D01*
X129088405Y-134143387D01*
X129170472Y-133989851D01*
X129179527Y-133960000D01*
X134190677Y-133960000D01*
X134228000Y-133963676D01*
X134265323Y-133960000D01*
X134912678Y-133960000D01*
X134950000Y-133963676D01*
X134987322Y-133960000D01*
X134987333Y-133960000D01*
X135098986Y-133949003D01*
X135242247Y-133905546D01*
X135374276Y-133834974D01*
X135490001Y-133740001D01*
X135513804Y-133710997D01*
X138565000Y-130659802D01*
X138565001Y-134265000D01*
X138398061Y-134265000D01*
X138198102Y-134304774D01*
X138009744Y-134382795D01*
X137840226Y-134496063D01*
X137796289Y-134540000D01*
X136644322Y-134540000D01*
X136606999Y-134536324D01*
X136569676Y-134540000D01*
X136569667Y-134540000D01*
X136458014Y-134550997D01*
X136314753Y-134594454D01*
X136182723Y-134665026D01*
X136157731Y-134685537D01*
X136066999Y-134759999D01*
X136043201Y-134788997D01*
X131052199Y-139780000D01*
X129461828Y-139780000D01*
X129392497Y-139676238D01*
X129203762Y-139487503D01*
X128981833Y-139339215D01*
X128735239Y-139237072D01*
X128473456Y-139185000D01*
X128206544Y-139185000D01*
X127944761Y-139237072D01*
X127698167Y-139339215D01*
X127476238Y-139487503D01*
X127287503Y-139676238D01*
X127139215Y-139898167D01*
X127037072Y-140144761D01*
X126985000Y-140406544D01*
X126985000Y-140673456D01*
X127037072Y-140935239D01*
X127139215Y-141181833D01*
X127287503Y-141403762D01*
X127476238Y-141592497D01*
X127698167Y-141740785D01*
X127944761Y-141842928D01*
X128206544Y-141895000D01*
X128473456Y-141895000D01*
X128735239Y-141842928D01*
X128981833Y-141740785D01*
X129203762Y-141592497D01*
X129392497Y-141403762D01*
X129461828Y-141300000D01*
X130558000Y-141300000D01*
X130558001Y-142047954D01*
X130463506Y-142098463D01*
X130366815Y-142177815D01*
X130287463Y-142274506D01*
X130228498Y-142384820D01*
X130192188Y-142504518D01*
X130179928Y-142629000D01*
X130179928Y-143629000D01*
X130192188Y-143753482D01*
X130228498Y-143873180D01*
X130287463Y-143983494D01*
X130366815Y-144080185D01*
X130463506Y-144159537D01*
X130573820Y-144218502D01*
X130693518Y-144254812D01*
X130818000Y-144267072D01*
X131818000Y-144267072D01*
X131942482Y-144254812D01*
X132062180Y-144218502D01*
X132172494Y-144159537D01*
X132269185Y-144080185D01*
X132348537Y-143983494D01*
X132407502Y-143873180D01*
X132443812Y-143753482D01*
X132456072Y-143629000D01*
X132456072Y-142900000D01*
X136461928Y-142900000D01*
X136474188Y-143024482D01*
X136510498Y-143144180D01*
X136569463Y-143254494D01*
X136648815Y-143351185D01*
X136708296Y-143400000D01*
X136648815Y-143448815D01*
X136569463Y-143545506D01*
X136510498Y-143655820D01*
X136474188Y-143775518D01*
X136461928Y-143900000D01*
X136465000Y-144314250D01*
X136623750Y-144473000D01*
X137548000Y-144473000D01*
X137548000Y-143423750D01*
X137524250Y-143400000D01*
X137548000Y-143376250D01*
X137548000Y-142327000D01*
X136623750Y-142327000D01*
X136465000Y-142485750D01*
X136461928Y-142900000D01*
X132456072Y-142900000D01*
X132456072Y-142629000D01*
X132443812Y-142504518D01*
X132407502Y-142384820D01*
X132348537Y-142274506D01*
X132269185Y-142177815D01*
X132172494Y-142098463D01*
X132078000Y-142047954D01*
X132078000Y-140903801D01*
X132481801Y-140500000D01*
X136461928Y-140500000D01*
X136474188Y-140624482D01*
X136510498Y-140744180D01*
X136569463Y-140854494D01*
X136648815Y-140951185D01*
X136708296Y-141000000D01*
X136648815Y-141048815D01*
X136569463Y-141145506D01*
X136510498Y-141255820D01*
X136474188Y-141375518D01*
X136461928Y-141500000D01*
X136465000Y-141914250D01*
X136623750Y-142073000D01*
X137548000Y-142073000D01*
X137548000Y-141023750D01*
X137524250Y-141000000D01*
X137548000Y-140976250D01*
X137548000Y-139927000D01*
X136623750Y-139927000D01*
X136465000Y-140085750D01*
X136461928Y-140500000D01*
X132481801Y-140500000D01*
X134781801Y-138200000D01*
X136461928Y-138200000D01*
X136474188Y-138324482D01*
X136510498Y-138444180D01*
X136569463Y-138554494D01*
X136647842Y-138650000D01*
X136569463Y-138745506D01*
X136510498Y-138855820D01*
X136474188Y-138975518D01*
X136461928Y-139100000D01*
X136465000Y-139514250D01*
X136623750Y-139673000D01*
X137548000Y-139673000D01*
X137548000Y-137627000D01*
X136623750Y-137627000D01*
X136465000Y-137785750D01*
X136461928Y-138200000D01*
X134781801Y-138200000D01*
X136181801Y-136800000D01*
X136461928Y-136800000D01*
X136465000Y-137214250D01*
X136623750Y-137373000D01*
X137548000Y-137373000D01*
X137548000Y-136323750D01*
X137389250Y-136165000D01*
X137100000Y-136161928D01*
X136975518Y-136174188D01*
X136855820Y-136210498D01*
X136745506Y-136269463D01*
X136648815Y-136348815D01*
X136569463Y-136445506D01*
X136510498Y-136555820D01*
X136474188Y-136675518D01*
X136461928Y-136800000D01*
X136181801Y-136800000D01*
X136921802Y-136060000D01*
X137796289Y-136060000D01*
X137840226Y-136103937D01*
X137949080Y-136176670D01*
X137802000Y-136323750D01*
X137802000Y-137373000D01*
X137822000Y-137373000D01*
X137822000Y-137627000D01*
X137802000Y-137627000D01*
X137802000Y-139673000D01*
X137822000Y-139673000D01*
X137822000Y-139927000D01*
X137802000Y-139927000D01*
X137802000Y-140976250D01*
X137825750Y-141000000D01*
X137802000Y-141023750D01*
X137802000Y-142073000D01*
X137822000Y-142073000D01*
X137822000Y-142327000D01*
X137802000Y-142327000D01*
X137802000Y-143376250D01*
X137825750Y-143400000D01*
X137802000Y-143423750D01*
X137802000Y-144473000D01*
X137822000Y-144473000D01*
X137822000Y-144727000D01*
X137802000Y-144727000D01*
X137802000Y-145776250D01*
X137960750Y-145935000D01*
X138014626Y-145935572D01*
X136710199Y-147240000D01*
X129279527Y-147240000D01*
X129270472Y-147210149D01*
X129188405Y-147056613D01*
X129077962Y-146922038D01*
X128943387Y-146811595D01*
X128789851Y-146729528D01*
X128623255Y-146678992D01*
X128450001Y-146661928D01*
X127799999Y-146661928D01*
X127626745Y-146678992D01*
X127460149Y-146729528D01*
X127306613Y-146811595D01*
X127172038Y-146922038D01*
X127100000Y-147009816D01*
X127027962Y-146922038D01*
X126893387Y-146811595D01*
X126835000Y-146780386D01*
X126835000Y-145300000D01*
X136461928Y-145300000D01*
X136474188Y-145424482D01*
X136510498Y-145544180D01*
X136569463Y-145654494D01*
X136648815Y-145751185D01*
X136745506Y-145830537D01*
X136855820Y-145889502D01*
X136975518Y-145925812D01*
X137100000Y-145938072D01*
X137389250Y-145935000D01*
X137548000Y-145776250D01*
X137548000Y-144727000D01*
X136623750Y-144727000D01*
X136465000Y-144885750D01*
X136461928Y-145300000D01*
X126835000Y-145300000D01*
X126835000Y-143961259D01*
X126852497Y-143943762D01*
X127000785Y-143721833D01*
X127102928Y-143475239D01*
X127155000Y-143213456D01*
X127155000Y-142946544D01*
X127102928Y-142684761D01*
X127000785Y-142438167D01*
X126852497Y-142216238D01*
X126663762Y-142027503D01*
X126441833Y-141879215D01*
X126195239Y-141777072D01*
X125933456Y-141725000D01*
X125666544Y-141725000D01*
X125404761Y-141777072D01*
X125158167Y-141879215D01*
X124936238Y-142027503D01*
X124747503Y-142216238D01*
X124599215Y-142438167D01*
X124497072Y-142684761D01*
X124445000Y-142946544D01*
X124445000Y-143213456D01*
X124497072Y-143475239D01*
X124599215Y-143721833D01*
X124747503Y-143943762D01*
X124936238Y-144132497D01*
X125158167Y-144280785D01*
X125315001Y-144345748D01*
X125315000Y-146780386D01*
X125256613Y-146811595D01*
X125122038Y-146922038D01*
X125011595Y-147056613D01*
X124929528Y-147210149D01*
X124878992Y-147376745D01*
X124861928Y-147549999D01*
X124861928Y-148450001D01*
X124878992Y-148623255D01*
X124929528Y-148789851D01*
X125011595Y-148943387D01*
X125122038Y-149077962D01*
X125256613Y-149188405D01*
X125373486Y-149250875D01*
X125363488Y-149263058D01*
X125282577Y-149414433D01*
X125232752Y-149578684D01*
X125215928Y-149749500D01*
X125215928Y-150224500D01*
X125232752Y-150395316D01*
X125282577Y-150559567D01*
X125363488Y-150710942D01*
X125472377Y-150843623D01*
X125605058Y-150952512D01*
X125756433Y-151033423D01*
X125920684Y-151083248D01*
X126091500Y-151100072D01*
X126666500Y-151100072D01*
X126837316Y-151083248D01*
X127001567Y-151033423D01*
X127152942Y-150952512D01*
X127254000Y-150869575D01*
X127355058Y-150952512D01*
X127506433Y-151033423D01*
X127670684Y-151083248D01*
X127841500Y-151100072D01*
X128416500Y-151100072D01*
X128587316Y-151083248D01*
X128751567Y-151033423D01*
X128902942Y-150952512D01*
X129035623Y-150843623D01*
X129114920Y-150747000D01*
X129199455Y-150747000D01*
X129229595Y-150803387D01*
X129340038Y-150937962D01*
X129474613Y-151048405D01*
X129628149Y-151130472D01*
X129794745Y-151181008D01*
X129967999Y-151198072D01*
X130618001Y-151198072D01*
X130791255Y-151181008D01*
X130957851Y-151130472D01*
X131111387Y-151048405D01*
X131245962Y-150937962D01*
X131251342Y-150931406D01*
X131316815Y-151011185D01*
X131413506Y-151090537D01*
X131523820Y-151149502D01*
X131643518Y-151185812D01*
X131768000Y-151198072D01*
X132057250Y-151195000D01*
X132216000Y-151036250D01*
X132216000Y-149987000D01*
X132470000Y-149987000D01*
X132470000Y-151036250D01*
X132628750Y-151195000D01*
X132918000Y-151198072D01*
X133042482Y-151185812D01*
X133162180Y-151149502D01*
X133272494Y-151090537D01*
X133369185Y-151011185D01*
X133448537Y-150914494D01*
X133507502Y-150804180D01*
X133543812Y-150684482D01*
X133556072Y-150560000D01*
X133553000Y-150145750D01*
X133394250Y-149987000D01*
X132470000Y-149987000D01*
X132216000Y-149987000D01*
X132196000Y-149987000D01*
X132196000Y-149733000D01*
X132216000Y-149733000D01*
X132216000Y-149713000D01*
X132470000Y-149713000D01*
X132470000Y-149733000D01*
X133394250Y-149733000D01*
X133553000Y-149574250D01*
X133556072Y-149160000D01*
X133543812Y-149035518D01*
X133507502Y-148915820D01*
X133448537Y-148805506D01*
X133411191Y-148760000D01*
X135640928Y-148760000D01*
X135640928Y-149725000D01*
X135653188Y-149849482D01*
X135689498Y-149969180D01*
X135748463Y-150079494D01*
X135827815Y-150176185D01*
X135924506Y-150255537D01*
X136034820Y-150314502D01*
X136154518Y-150350812D01*
X136279000Y-150363072D01*
X137279000Y-150363072D01*
X137403482Y-150350812D01*
X137523180Y-150314502D01*
X137633494Y-150255537D01*
X137730185Y-150176185D01*
X137809537Y-150079494D01*
X137868502Y-149969180D01*
X137904812Y-149849482D01*
X137917072Y-149725000D01*
X137917072Y-148725000D01*
X137904812Y-148600518D01*
X137868502Y-148480820D01*
X137809537Y-148370506D01*
X137773368Y-148326433D01*
X139956000Y-146143801D01*
X139956000Y-147243386D01*
X139897613Y-147274595D01*
X139763038Y-147385038D01*
X139652595Y-147519613D01*
X139570528Y-147673149D01*
X139519992Y-147839745D01*
X139502928Y-148012999D01*
X139502928Y-148913001D01*
X139519992Y-149086255D01*
X139570528Y-149252851D01*
X139652595Y-149406387D01*
X139763038Y-149540962D01*
X139897613Y-149651405D01*
X140051149Y-149733472D01*
X140217745Y-149784008D01*
X140390999Y-149801072D01*
X141041001Y-149801072D01*
X141214255Y-149784008D01*
X141380851Y-149733472D01*
X141534387Y-149651405D01*
X141668962Y-149540962D01*
X141741000Y-149453184D01*
X141813038Y-149540962D01*
X141947613Y-149651405D01*
X142101149Y-149733472D01*
X142267745Y-149784008D01*
X142440999Y-149801072D01*
X143091001Y-149801072D01*
X143264255Y-149784008D01*
X143430851Y-149733472D01*
X143584387Y-149651405D01*
X143649461Y-149598000D01*
X144395539Y-149598000D01*
X144460613Y-149651405D01*
X144614149Y-149733472D01*
X144780745Y-149784008D01*
X144953999Y-149801072D01*
X145604001Y-149801072D01*
X145777255Y-149784008D01*
X145943851Y-149733472D01*
X146097387Y-149651405D01*
X146231962Y-149540962D01*
X146237342Y-149534406D01*
X146302815Y-149614185D01*
X146399506Y-149693537D01*
X146509820Y-149752502D01*
X146629518Y-149788812D01*
X146754000Y-149801072D01*
X147043250Y-149798000D01*
X147202000Y-149639250D01*
X147202000Y-148590000D01*
X147456000Y-148590000D01*
X147456000Y-149639250D01*
X147614750Y-149798000D01*
X147904000Y-149801072D01*
X148028482Y-149788812D01*
X148148180Y-149752502D01*
X148258494Y-149693537D01*
X148355185Y-149614185D01*
X148434537Y-149517494D01*
X148493502Y-149407180D01*
X148529812Y-149287482D01*
X148542072Y-149163000D01*
X148539000Y-148748750D01*
X148380250Y-148590000D01*
X147456000Y-148590000D01*
X147202000Y-148590000D01*
X147182000Y-148590000D01*
X147182000Y-148336000D01*
X147202000Y-148336000D01*
X147202000Y-147286750D01*
X147456000Y-147286750D01*
X147456000Y-148336000D01*
X148380250Y-148336000D01*
X148539000Y-148177250D01*
X148542072Y-147763000D01*
X148529812Y-147638518D01*
X148493502Y-147518820D01*
X148434537Y-147408506D01*
X148355185Y-147311815D01*
X148258494Y-147232463D01*
X148148180Y-147173498D01*
X148028482Y-147137188D01*
X147904000Y-147124928D01*
X147614750Y-147128000D01*
X147456000Y-147286750D01*
X147202000Y-147286750D01*
X147043250Y-147128000D01*
X146754000Y-147124928D01*
X146629518Y-147137188D01*
X146509820Y-147173498D01*
X146399506Y-147232463D01*
X146302815Y-147311815D01*
X146237342Y-147391594D01*
X146231962Y-147385038D01*
X146097387Y-147274595D01*
X146039000Y-147243386D01*
X146039000Y-145225823D01*
X146216801Y-145048022D01*
X146278939Y-145048022D01*
X146478898Y-145008248D01*
X146667256Y-144930227D01*
X146836774Y-144816959D01*
X146980937Y-144672796D01*
X147094205Y-144503278D01*
X147172226Y-144314920D01*
X147212000Y-144114961D01*
X147212000Y-144048012D01*
X148037856Y-144048012D01*
X148075178Y-144051688D01*
X148112500Y-144048012D01*
X148112511Y-144048012D01*
X148224164Y-144037015D01*
X148367425Y-143993558D01*
X148499454Y-143922986D01*
X148615179Y-143828013D01*
X148638982Y-143799009D01*
X148952153Y-143485838D01*
X152684756Y-147218442D01*
X152268553Y-147634646D01*
X152255180Y-147627498D01*
X152135482Y-147591188D01*
X152011000Y-147578928D01*
X151011000Y-147578928D01*
X150886518Y-147591188D01*
X150766820Y-147627498D01*
X150656506Y-147686463D01*
X150559815Y-147765815D01*
X150480463Y-147862506D01*
X150421498Y-147972820D01*
X150385188Y-148092518D01*
X150372928Y-148217000D01*
X150372928Y-149217000D01*
X150385188Y-149341482D01*
X150421498Y-149461180D01*
X150480463Y-149571494D01*
X150559815Y-149668185D01*
X150656506Y-149747537D01*
X150766820Y-149806502D01*
X150886518Y-149842812D01*
X151011000Y-149855072D01*
X152011000Y-149855072D01*
X152135482Y-149842812D01*
X152255180Y-149806502D01*
X152365494Y-149747537D01*
X152462185Y-149668185D01*
X152541537Y-149571494D01*
X152600502Y-149461180D01*
X152623634Y-149384923D01*
X152685276Y-149351974D01*
X152801001Y-149257001D01*
X152824804Y-149227997D01*
X153816778Y-148236023D01*
X153872419Y-148265764D01*
X154133493Y-148344960D01*
X154336963Y-148365000D01*
X154336971Y-148365000D01*
X154405000Y-148371700D01*
X154473029Y-148365000D01*
X155665654Y-148365000D01*
X155939017Y-148638363D01*
X156288698Y-148872012D01*
X156677244Y-149032953D01*
X157089721Y-149115000D01*
X157510279Y-149115000D01*
X157922756Y-149032953D01*
X158311302Y-148872012D01*
X158660983Y-148638363D01*
X158958363Y-148340983D01*
X159192012Y-147991302D01*
X159352953Y-147602756D01*
X159435000Y-147190279D01*
X159435000Y-146769721D01*
X159352953Y-146357244D01*
X159192012Y-145968698D01*
X158958363Y-145619017D01*
X158660983Y-145321637D01*
X158311302Y-145087988D01*
X157922756Y-144927047D01*
X157510279Y-144845000D01*
X157089721Y-144845000D01*
X156677244Y-144927047D01*
X156288698Y-145087988D01*
X155939017Y-145321637D01*
X155665654Y-145595000D01*
X154978686Y-145595000D01*
X150743646Y-141359961D01*
X150688405Y-141256613D01*
X150577962Y-141122038D01*
X150443387Y-141011595D01*
X150421694Y-141000000D01*
X150443387Y-140988405D01*
X150577962Y-140877962D01*
X150688405Y-140743387D01*
X150770472Y-140589851D01*
X150821008Y-140423255D01*
X150828569Y-140346483D01*
X150842843Y-140373187D01*
X150879010Y-140417256D01*
X150970328Y-140528527D01*
X151015919Y-140584080D01*
X151068765Y-140627450D01*
X153272550Y-142831236D01*
X153315919Y-142884081D01*
X153368764Y-142927450D01*
X153368766Y-142927452D01*
X153478851Y-143017796D01*
X153526812Y-143057157D01*
X153767419Y-143185764D01*
X154028493Y-143264960D01*
X154231963Y-143285000D01*
X154231972Y-143285000D01*
X154299999Y-143291700D01*
X154368026Y-143285000D01*
X155161928Y-143285000D01*
X155161928Y-143400000D01*
X155174188Y-143524482D01*
X155210498Y-143644180D01*
X155269463Y-143754494D01*
X155348815Y-143851185D01*
X155445506Y-143930537D01*
X155555820Y-143989502D01*
X155675518Y-144025812D01*
X155800000Y-144038072D01*
X158800000Y-144038072D01*
X158924482Y-144025812D01*
X159044180Y-143989502D01*
X159154494Y-143930537D01*
X159251185Y-143851185D01*
X159330537Y-143754494D01*
X159389502Y-143644180D01*
X159425812Y-143524482D01*
X159438072Y-143400000D01*
X159438072Y-141720614D01*
X159618736Y-141539950D01*
X159671581Y-141496581D01*
X159728840Y-141426812D01*
X159812418Y-141324971D01*
X159844657Y-141285688D01*
X159973264Y-141045081D01*
X160052460Y-140784007D01*
X160072500Y-140580537D01*
X160072500Y-140580528D01*
X160079200Y-140512501D01*
X160072500Y-140444474D01*
X160072500Y-126431963D01*
X160052460Y-126228493D01*
X160038072Y-126181062D01*
X160038072Y-125875000D01*
X160021008Y-125701746D01*
X159970472Y-125535150D01*
X159888405Y-125381614D01*
X159777962Y-125247038D01*
X159643386Y-125136595D01*
X159489850Y-125054528D01*
X159323254Y-125003992D01*
X159150000Y-124986928D01*
X158225000Y-124986928D01*
X158051746Y-125003992D01*
X157885150Y-125054528D01*
X157731614Y-125136595D01*
X157597038Y-125247038D01*
X157486595Y-125381614D01*
X157404528Y-125535150D01*
X157353992Y-125701746D01*
X157336928Y-125875000D01*
X157336928Y-126181065D01*
X157322541Y-126228493D01*
X157302501Y-126431963D01*
X157302500Y-136501963D01*
X157302500Y-136501964D01*
X157302501Y-139761928D01*
X155800000Y-139761928D01*
X155675518Y-139774188D01*
X155555820Y-139810498D01*
X155445506Y-139869463D01*
X155348815Y-139948815D01*
X155269463Y-140045506D01*
X155210498Y-140155820D01*
X155174188Y-140275518D01*
X155161928Y-140400000D01*
X155161928Y-140515000D01*
X154873686Y-140515000D01*
X153385000Y-139026315D01*
X153385000Y-138768029D01*
X153391700Y-138700000D01*
X153385000Y-138631971D01*
X153385000Y-138631964D01*
X153364960Y-138428493D01*
X153285764Y-138167419D01*
X153157157Y-137926812D01*
X152984081Y-137715919D01*
X152931231Y-137672546D01*
X152703685Y-137445000D01*
X154361928Y-137445000D01*
X154374188Y-137569482D01*
X154410498Y-137689180D01*
X154469463Y-137799494D01*
X154548815Y-137896185D01*
X154645506Y-137975537D01*
X154755820Y-138034502D01*
X154875518Y-138070812D01*
X155000000Y-138083072D01*
X155426750Y-138080000D01*
X155585500Y-137921250D01*
X155585500Y-136697000D01*
X155839500Y-136697000D01*
X155839500Y-137921250D01*
X155998250Y-138080000D01*
X156425000Y-138083072D01*
X156549482Y-138070812D01*
X156669180Y-138034502D01*
X156779494Y-137975537D01*
X156876185Y-137896185D01*
X156955537Y-137799494D01*
X157014502Y-137689180D01*
X157050812Y-137569482D01*
X157063072Y-137445000D01*
X157060000Y-136855750D01*
X156901250Y-136697000D01*
X155839500Y-136697000D01*
X155585500Y-136697000D01*
X154523750Y-136697000D01*
X154365000Y-136855750D01*
X154361928Y-137445000D01*
X152703685Y-137445000D01*
X152477444Y-137218759D01*
X152434071Y-137165909D01*
X152223178Y-136992833D01*
X151982571Y-136864226D01*
X151721497Y-136785030D01*
X151632553Y-136776270D01*
X151633072Y-136771000D01*
X151633072Y-135771000D01*
X151625587Y-135695000D01*
X154361928Y-135695000D01*
X154365000Y-136284250D01*
X154523750Y-136443000D01*
X155585500Y-136443000D01*
X155585500Y-135218750D01*
X155839500Y-135218750D01*
X155839500Y-136443000D01*
X156901250Y-136443000D01*
X157060000Y-136284250D01*
X157063072Y-135695000D01*
X157050812Y-135570518D01*
X157014502Y-135450820D01*
X156955537Y-135340506D01*
X156876185Y-135243815D01*
X156779494Y-135164463D01*
X156669180Y-135105498D01*
X156549482Y-135069188D01*
X156425000Y-135056928D01*
X155998250Y-135060000D01*
X155839500Y-135218750D01*
X155585500Y-135218750D01*
X155426750Y-135060000D01*
X155000000Y-135056928D01*
X154875518Y-135069188D01*
X154755820Y-135105498D01*
X154645506Y-135164463D01*
X154548815Y-135243815D01*
X154469463Y-135340506D01*
X154410498Y-135450820D01*
X154374188Y-135570518D01*
X154361928Y-135695000D01*
X151625587Y-135695000D01*
X151620812Y-135646518D01*
X151584502Y-135526820D01*
X151525537Y-135416506D01*
X151446185Y-135319815D01*
X151349494Y-135240463D01*
X151239180Y-135181498D01*
X151119482Y-135145188D01*
X150995000Y-135132928D01*
X149995000Y-135132928D01*
X149870518Y-135145188D01*
X149750820Y-135181498D01*
X149640506Y-135240463D01*
X149543815Y-135319815D01*
X149464463Y-135416506D01*
X149405498Y-135526820D01*
X149369188Y-135646518D01*
X149356928Y-135771000D01*
X149356928Y-136764990D01*
X145981973Y-136764990D01*
X145778503Y-136785030D01*
X145517429Y-136864226D01*
X145276822Y-136992833D01*
X145065929Y-137165909D01*
X145010000Y-137234058D01*
X145010000Y-134155000D01*
X154361928Y-134155000D01*
X154374188Y-134279482D01*
X154410498Y-134399180D01*
X154469463Y-134509494D01*
X154548815Y-134606185D01*
X154645506Y-134685537D01*
X154755820Y-134744502D01*
X154875518Y-134780812D01*
X155000000Y-134793072D01*
X155426750Y-134790000D01*
X155585500Y-134631250D01*
X155585500Y-133407000D01*
X155839500Y-133407000D01*
X155839500Y-134631250D01*
X155998250Y-134790000D01*
X156425000Y-134793072D01*
X156549482Y-134780812D01*
X156669180Y-134744502D01*
X156779494Y-134685537D01*
X156876185Y-134606185D01*
X156955537Y-134509494D01*
X157014502Y-134399180D01*
X157050812Y-134279482D01*
X157063072Y-134155000D01*
X157060000Y-133565750D01*
X156901250Y-133407000D01*
X155839500Y-133407000D01*
X155585500Y-133407000D01*
X154523750Y-133407000D01*
X154365000Y-133565750D01*
X154361928Y-134155000D01*
X145010000Y-134155000D01*
X145010000Y-133331908D01*
X145936908Y-132405000D01*
X154361928Y-132405000D01*
X154365000Y-132994250D01*
X154523750Y-133153000D01*
X155585500Y-133153000D01*
X155585500Y-131928750D01*
X155839500Y-131928750D01*
X155839500Y-133153000D01*
X156901250Y-133153000D01*
X157060000Y-132994250D01*
X157063072Y-132405000D01*
X157050812Y-132280518D01*
X157014502Y-132160820D01*
X156955537Y-132050506D01*
X156876185Y-131953815D01*
X156779494Y-131874463D01*
X156669180Y-131815498D01*
X156549482Y-131779188D01*
X156425000Y-131766928D01*
X155998250Y-131770000D01*
X155839500Y-131928750D01*
X155585500Y-131928750D01*
X155426750Y-131770000D01*
X155000000Y-131766928D01*
X154875518Y-131779188D01*
X154755820Y-131815498D01*
X154645506Y-131874463D01*
X154548815Y-131953815D01*
X154469463Y-132050506D01*
X154410498Y-132160820D01*
X154374188Y-132280518D01*
X154361928Y-132405000D01*
X145936908Y-132405000D01*
X147766908Y-130575000D01*
X154361928Y-130575000D01*
X154374188Y-130699482D01*
X154410498Y-130819180D01*
X154469463Y-130929494D01*
X154548815Y-131026185D01*
X154645506Y-131105537D01*
X154755820Y-131164502D01*
X154875518Y-131200812D01*
X155000000Y-131213072D01*
X155426750Y-131210000D01*
X155585500Y-131051250D01*
X155585500Y-129827000D01*
X155839500Y-129827000D01*
X155839500Y-131051250D01*
X155998250Y-131210000D01*
X156425000Y-131213072D01*
X156549482Y-131200812D01*
X156669180Y-131164502D01*
X156779494Y-131105537D01*
X156876185Y-131026185D01*
X156955537Y-130929494D01*
X157014502Y-130819180D01*
X157050812Y-130699482D01*
X157063072Y-130575000D01*
X157060000Y-129985750D01*
X156901250Y-129827000D01*
X155839500Y-129827000D01*
X155585500Y-129827000D01*
X154523750Y-129827000D01*
X154365000Y-129985750D01*
X154361928Y-130575000D01*
X147766908Y-130575000D01*
X149530603Y-128811306D01*
X149649721Y-128835000D01*
X150070279Y-128835000D01*
X150120552Y-128825000D01*
X154361928Y-128825000D01*
X154365000Y-129414250D01*
X154523750Y-129573000D01*
X155585500Y-129573000D01*
X155585500Y-128348750D01*
X155839500Y-128348750D01*
X155839500Y-129573000D01*
X156901250Y-129573000D01*
X157060000Y-129414250D01*
X157063072Y-128825000D01*
X157050812Y-128700518D01*
X157014502Y-128580820D01*
X156955537Y-128470506D01*
X156876185Y-128373815D01*
X156779494Y-128294463D01*
X156669180Y-128235498D01*
X156549482Y-128199188D01*
X156425000Y-128186928D01*
X155998250Y-128190000D01*
X155839500Y-128348750D01*
X155585500Y-128348750D01*
X155426750Y-128190000D01*
X155000000Y-128186928D01*
X154875518Y-128199188D01*
X154755820Y-128235498D01*
X154645506Y-128294463D01*
X154548815Y-128373815D01*
X154469463Y-128470506D01*
X154410498Y-128580820D01*
X154374188Y-128700518D01*
X154361928Y-128825000D01*
X150120552Y-128825000D01*
X150482756Y-128752953D01*
X150871302Y-128592012D01*
X151220983Y-128358363D01*
X151518363Y-128060983D01*
X151752012Y-127711302D01*
X151891312Y-127375000D01*
X154361928Y-127375000D01*
X154374188Y-127499482D01*
X154410498Y-127619180D01*
X154469463Y-127729494D01*
X154548815Y-127826185D01*
X154645506Y-127905537D01*
X154755820Y-127964502D01*
X154875518Y-128000812D01*
X155000000Y-128013072D01*
X155426750Y-128010000D01*
X155585500Y-127851250D01*
X155585500Y-126627000D01*
X155839500Y-126627000D01*
X155839500Y-127851250D01*
X155998250Y-128010000D01*
X156425000Y-128013072D01*
X156549482Y-128000812D01*
X156669180Y-127964502D01*
X156779494Y-127905537D01*
X156876185Y-127826185D01*
X156955537Y-127729494D01*
X157014502Y-127619180D01*
X157050812Y-127499482D01*
X157063072Y-127375000D01*
X157060000Y-126785750D01*
X156901250Y-126627000D01*
X155839500Y-126627000D01*
X155585500Y-126627000D01*
X154523750Y-126627000D01*
X154365000Y-126785750D01*
X154361928Y-127375000D01*
X151891312Y-127375000D01*
X151912953Y-127322756D01*
X151995000Y-126910279D01*
X151995000Y-126489721D01*
X151912953Y-126077244D01*
X151752012Y-125688698D01*
X151709451Y-125625000D01*
X154361928Y-125625000D01*
X154365000Y-126214250D01*
X154523750Y-126373000D01*
X155585500Y-126373000D01*
X155585500Y-125148750D01*
X155839500Y-125148750D01*
X155839500Y-126373000D01*
X156901250Y-126373000D01*
X157060000Y-126214250D01*
X157063072Y-125625000D01*
X157050812Y-125500518D01*
X157014502Y-125380820D01*
X156955537Y-125270506D01*
X156876185Y-125173815D01*
X156779494Y-125094463D01*
X156669180Y-125035498D01*
X156549482Y-124999188D01*
X156425000Y-124986928D01*
X155998250Y-124990000D01*
X155839500Y-125148750D01*
X155585500Y-125148750D01*
X155426750Y-124990000D01*
X155000000Y-124986928D01*
X154875518Y-124999188D01*
X154755820Y-125035498D01*
X154645506Y-125094463D01*
X154548815Y-125173815D01*
X154469463Y-125270506D01*
X154410498Y-125380820D01*
X154374188Y-125500518D01*
X154361928Y-125625000D01*
X151709451Y-125625000D01*
X151518363Y-125339017D01*
X151220983Y-125041637D01*
X150871302Y-124807988D01*
X150482756Y-124647047D01*
X150070279Y-124565000D01*
X149649721Y-124565000D01*
X149237244Y-124647047D01*
X148848698Y-124807988D01*
X148499017Y-125041637D01*
X148201637Y-125339017D01*
X147967988Y-125688698D01*
X147807047Y-126077244D01*
X147725000Y-126489721D01*
X147725000Y-126910279D01*
X147748694Y-127029397D01*
X142902811Y-131875281D01*
X142854736Y-131914735D01*
X142815282Y-131962810D01*
X142815281Y-131962811D01*
X142697280Y-132106595D01*
X142580280Y-132325487D01*
X142508233Y-132562997D01*
X142483905Y-132810000D01*
X142490001Y-132871893D01*
X142490001Y-133272659D01*
X142490000Y-133272668D01*
X142490000Y-133272678D01*
X142486324Y-133310000D01*
X142490000Y-133347323D01*
X142490000Y-135915199D01*
X141835000Y-135260199D01*
X141835000Y-135198061D01*
X141795226Y-134998102D01*
X141717205Y-134809744D01*
X141603937Y-134640226D01*
X141459774Y-134496063D01*
X141290256Y-134382795D01*
X141101898Y-134304774D01*
X140901939Y-134265000D01*
X140835000Y-134265000D01*
X140835000Y-128838072D01*
X141200000Y-128838072D01*
X141324482Y-128825812D01*
X141444180Y-128789502D01*
X141554494Y-128730537D01*
X141651185Y-128651185D01*
X141730537Y-128554494D01*
X141789502Y-128444180D01*
X141825812Y-128324482D01*
X141838072Y-128200000D01*
X141838072Y-128191653D01*
X143467952Y-128191653D01*
X143623962Y-128507214D01*
X143998745Y-128698020D01*
X144403551Y-128812044D01*
X144822824Y-128844902D01*
X145240451Y-128795334D01*
X145640383Y-128665243D01*
X145936038Y-128507214D01*
X146092048Y-128191653D01*
X144780000Y-126879605D01*
X143467952Y-128191653D01*
X141838072Y-128191653D01*
X141838072Y-126742824D01*
X142635098Y-126742824D01*
X142684666Y-127160451D01*
X142814757Y-127560383D01*
X142972786Y-127856038D01*
X143288347Y-128012048D01*
X144600395Y-126700000D01*
X144959605Y-126700000D01*
X146271653Y-128012048D01*
X146587214Y-127856038D01*
X146778020Y-127481255D01*
X146892044Y-127076449D01*
X146924902Y-126657176D01*
X146875334Y-126239549D01*
X146745243Y-125839617D01*
X146587214Y-125543962D01*
X146271653Y-125387952D01*
X144959605Y-126700000D01*
X144600395Y-126700000D01*
X143288347Y-125387952D01*
X142972786Y-125543962D01*
X142781980Y-125918745D01*
X142667956Y-126323551D01*
X142635098Y-126742824D01*
X141838072Y-126742824D01*
X141838072Y-125208347D01*
X143467952Y-125208347D01*
X144780000Y-126520395D01*
X146092048Y-125208347D01*
X145936038Y-124892786D01*
X145561255Y-124701980D01*
X145156449Y-124587956D01*
X144737176Y-124555098D01*
X144319549Y-124604666D01*
X143919617Y-124734757D01*
X143623962Y-124892786D01*
X143467952Y-125208347D01*
X141838072Y-125208347D01*
X141838072Y-125200000D01*
X141825812Y-125075518D01*
X141789502Y-124955820D01*
X141730537Y-124845506D01*
X141651185Y-124748815D01*
X141554494Y-124669463D01*
X141444180Y-124610498D01*
X141324482Y-124574188D01*
X141200000Y-124561928D01*
X138200000Y-124561928D01*
X138075518Y-124574188D01*
X137955820Y-124610498D01*
X137845506Y-124669463D01*
X137748815Y-124748815D01*
X137669463Y-124845506D01*
X137610498Y-124955820D01*
X137574188Y-125075518D01*
X137561928Y-125200000D01*
X137561928Y-128200000D01*
X137574188Y-128324482D01*
X137610498Y-128444180D01*
X137669463Y-128554494D01*
X137748815Y-128651185D01*
X137845506Y-128730537D01*
X137955820Y-128789502D01*
X138075518Y-128825812D01*
X138200000Y-128838072D01*
X138237125Y-128838072D01*
X135123072Y-131952127D01*
X135123072Y-131707000D01*
X135110812Y-131582518D01*
X135074502Y-131462820D01*
X135015537Y-131352506D01*
X134936185Y-131255815D01*
X134839494Y-131176463D01*
X134729180Y-131117498D01*
X134609482Y-131081188D01*
X134485000Y-131068928D01*
X133485000Y-131068928D01*
X133360518Y-131081188D01*
X133240820Y-131117498D01*
X133130506Y-131176463D01*
X133033815Y-131255815D01*
X132954463Y-131352506D01*
X132895498Y-131462820D01*
X132859188Y-131582518D01*
X132846928Y-131707000D01*
X132846928Y-132440000D01*
X129179527Y-132440000D01*
X129170472Y-132410149D01*
X129088405Y-132256613D01*
X128977962Y-132122038D01*
X128912726Y-132068500D01*
X128977962Y-132014962D01*
X129088405Y-131880387D01*
X129170472Y-131726851D01*
X129221008Y-131560255D01*
X129238072Y-131387001D01*
X129238072Y-130486999D01*
X129221008Y-130313745D01*
X129170472Y-130147149D01*
X129088405Y-129993613D01*
X128977962Y-129859038D01*
X128945910Y-129832734D01*
X128989502Y-129751180D01*
X129025812Y-129631482D01*
X129038072Y-129507000D01*
X129035000Y-129317750D01*
X128876250Y-129159000D01*
X128002000Y-129159000D01*
X128002000Y-129179000D01*
X127748000Y-129179000D01*
X127748000Y-129159000D01*
X127728000Y-129159000D01*
X127728000Y-128905000D01*
X127748000Y-128905000D01*
X127748000Y-128080750D01*
X128002000Y-128080750D01*
X128002000Y-128905000D01*
X128876250Y-128905000D01*
X129035000Y-128746250D01*
X129038072Y-128557000D01*
X129025812Y-128432518D01*
X128989502Y-128312820D01*
X128930537Y-128202506D01*
X128851185Y-128105815D01*
X128754494Y-128026463D01*
X128644180Y-127967498D01*
X128524482Y-127931188D01*
X128400000Y-127918928D01*
X128160750Y-127922000D01*
X128002000Y-128080750D01*
X127748000Y-128080750D01*
X127589250Y-127922000D01*
X127350000Y-127918928D01*
X127225518Y-127931188D01*
X127105820Y-127967498D01*
X126995506Y-128026463D01*
X126922839Y-128086099D01*
X126898942Y-128066488D01*
X126747567Y-127985577D01*
X126583316Y-127935752D01*
X126412500Y-127918928D01*
X125837500Y-127918928D01*
X125666684Y-127935752D01*
X125502433Y-127985577D01*
X125351058Y-128066488D01*
X125218377Y-128175377D01*
X125109488Y-128308058D01*
X125028577Y-128459433D01*
X124978752Y-128623684D01*
X124961928Y-128794500D01*
X124961928Y-129269500D01*
X124978752Y-129440316D01*
X125028577Y-129604567D01*
X125109488Y-129755942D01*
X125124851Y-129774662D01*
X125022038Y-129859038D01*
X124911595Y-129993613D01*
X124829528Y-130147149D01*
X124778992Y-130313745D01*
X124761928Y-130486999D01*
X124761928Y-131387001D01*
X124778992Y-131560255D01*
X124829528Y-131726851D01*
X124911595Y-131880387D01*
X125022038Y-132014962D01*
X125087274Y-132068500D01*
X125022038Y-132122038D01*
X124911595Y-132256613D01*
X124829528Y-132410149D01*
X124778992Y-132576745D01*
X124761928Y-132749999D01*
X124761928Y-133650001D01*
X124778992Y-133823255D01*
X124829528Y-133989851D01*
X124911595Y-134143387D01*
X125022038Y-134277962D01*
X125156613Y-134388405D01*
X125215000Y-134419614D01*
X125215001Y-136775674D01*
X125158167Y-136799215D01*
X124936238Y-136947503D01*
X124747503Y-137136238D01*
X124599215Y-137358167D01*
X124497072Y-137604761D01*
X124445000Y-137866544D01*
X123850000Y-137866544D01*
X123850000Y-122580000D01*
X160630001Y-122580000D01*
X160630000Y-151740000D01*
M02*
