G04 #@! TF.GenerationSoftware,KiCad,Pcbnew,(5.1.5)-2*
G04 #@! TF.CreationDate,2020-02-05T11:48:52+00:00*
G04 #@! TF.ProjectId,OPA1622_eval,4f504131-3632-4325-9f65-76616c2e6b69,rev?*
G04 #@! TF.SameCoordinates,Original*
G04 #@! TF.FileFunction,Soldermask,Bot*
G04 #@! TF.FilePolarity,Negative*
%FSLAX46Y46*%
G04 Gerber Fmt 4.6, Leading zero omitted, Abs format (unit mm)*
G04 Created by KiCad (PCBNEW (5.1.5)-2) date 2020-02-05 11:48:52*
%MOMM*%
%LPD*%
G04 APERTURE LIST*
%ADD10C,0.100000*%
G04 APERTURE END LIST*
D10*
G36*
X137330000Y-149776000D02*
G01*
X136228000Y-149776000D01*
X136228000Y-148674000D01*
X137330000Y-148674000D01*
X137330000Y-149776000D01*
G37*
G36*
X152062000Y-149268000D02*
G01*
X150960000Y-149268000D01*
X150960000Y-148166000D01*
X152062000Y-148166000D01*
X152062000Y-149268000D01*
G37*
G36*
X157602585Y-145458802D02*
G01*
X157752410Y-145488604D01*
X158034674Y-145605521D01*
X158288705Y-145775259D01*
X158504741Y-145991295D01*
X158674479Y-146245326D01*
X158791396Y-146527590D01*
X158851000Y-146827240D01*
X158851000Y-147132760D01*
X158791396Y-147432410D01*
X158674479Y-147714674D01*
X158504741Y-147968705D01*
X158288705Y-148184741D01*
X158034674Y-148354479D01*
X157752410Y-148471396D01*
X157602585Y-148501198D01*
X157452761Y-148531000D01*
X157147239Y-148531000D01*
X156997415Y-148501198D01*
X156847590Y-148471396D01*
X156565326Y-148354479D01*
X156311295Y-148184741D01*
X156095259Y-147968705D01*
X155925521Y-147714674D01*
X155808604Y-147432410D01*
X155749000Y-147132760D01*
X155749000Y-146827240D01*
X155808604Y-146527590D01*
X155925521Y-146245326D01*
X156095259Y-145991295D01*
X156311295Y-145775259D01*
X156565326Y-145605521D01*
X156847590Y-145488604D01*
X156997415Y-145458802D01*
X157147239Y-145429000D01*
X157452761Y-145429000D01*
X157602585Y-145458802D01*
G37*
G36*
X125925589Y-142318876D02*
G01*
X126024893Y-142338629D01*
X126165206Y-142396748D01*
X126291484Y-142481125D01*
X126398875Y-142588516D01*
X126483252Y-142714794D01*
X126541371Y-142855107D01*
X126571000Y-143004063D01*
X126571000Y-143155937D01*
X126541371Y-143304893D01*
X126483252Y-143445206D01*
X126398875Y-143571484D01*
X126291484Y-143678875D01*
X126165206Y-143763252D01*
X126024893Y-143821371D01*
X125925589Y-143841124D01*
X125875938Y-143851000D01*
X125724062Y-143851000D01*
X125674411Y-143841124D01*
X125575107Y-143821371D01*
X125434794Y-143763252D01*
X125308516Y-143678875D01*
X125201125Y-143571484D01*
X125116748Y-143445206D01*
X125058629Y-143304893D01*
X125029000Y-143155937D01*
X125029000Y-143004063D01*
X125058629Y-142855107D01*
X125116748Y-142714794D01*
X125201125Y-142588516D01*
X125308516Y-142481125D01*
X125434794Y-142396748D01*
X125575107Y-142338629D01*
X125674411Y-142318876D01*
X125724062Y-142309000D01*
X125875938Y-142309000D01*
X125925589Y-142318876D01*
G37*
G36*
X131869000Y-143680000D02*
G01*
X130767000Y-143680000D01*
X130767000Y-142578000D01*
X131869000Y-142578000D01*
X131869000Y-143680000D01*
G37*
G36*
X158851000Y-143451000D02*
G01*
X155749000Y-143451000D01*
X155749000Y-140349000D01*
X158851000Y-140349000D01*
X158851000Y-143451000D01*
G37*
G36*
X143102383Y-139912489D02*
G01*
X143102386Y-139912490D01*
X143102385Y-139912490D01*
X143166258Y-139938946D01*
X143223748Y-139977360D01*
X143272640Y-140026252D01*
X143311054Y-140083742D01*
X143332624Y-140135818D01*
X143337511Y-140147617D01*
X143351000Y-140215430D01*
X143351000Y-140284570D01*
X143337511Y-140352383D01*
X143337510Y-140352385D01*
X143311054Y-140416258D01*
X143275697Y-140469173D01*
X143264146Y-140490784D01*
X143257033Y-140514233D01*
X143254631Y-140538619D01*
X143257033Y-140563005D01*
X143264146Y-140586454D01*
X143275697Y-140608065D01*
X143291242Y-140627006D01*
X143310184Y-140642552D01*
X143331795Y-140654103D01*
X143355244Y-140661216D01*
X143379630Y-140663618D01*
X143404017Y-140661216D01*
X143465430Y-140649000D01*
X143534570Y-140649000D01*
X143595983Y-140661216D01*
X143620369Y-140663618D01*
X143644756Y-140661216D01*
X143668205Y-140654103D01*
X143689815Y-140642552D01*
X143708757Y-140627007D01*
X143724303Y-140608065D01*
X143735854Y-140586455D01*
X143742967Y-140563006D01*
X143745369Y-140538620D01*
X143742967Y-140514233D01*
X143735854Y-140490784D01*
X143724303Y-140469173D01*
X143688946Y-140416258D01*
X143662490Y-140352385D01*
X143662489Y-140352383D01*
X143649000Y-140284570D01*
X143649000Y-140215430D01*
X143662489Y-140147617D01*
X143667376Y-140135818D01*
X143688946Y-140083742D01*
X143727360Y-140026252D01*
X143776252Y-139977360D01*
X143833742Y-139938946D01*
X143897615Y-139912490D01*
X143897614Y-139912490D01*
X143897617Y-139912489D01*
X143965430Y-139899000D01*
X144034570Y-139899000D01*
X144102383Y-139912489D01*
X144102386Y-139912490D01*
X144102385Y-139912490D01*
X144166258Y-139938946D01*
X144223748Y-139977360D01*
X144272640Y-140026252D01*
X144311054Y-140083742D01*
X144332624Y-140135818D01*
X144337511Y-140147617D01*
X144351000Y-140215430D01*
X144351000Y-140284570D01*
X144337511Y-140352383D01*
X144337510Y-140352385D01*
X144311054Y-140416258D01*
X144272640Y-140473748D01*
X144223748Y-140522640D01*
X144166258Y-140561054D01*
X144114182Y-140582624D01*
X144102383Y-140587511D01*
X144034570Y-140601000D01*
X143965430Y-140601000D01*
X143904016Y-140588784D01*
X143879631Y-140586382D01*
X143855244Y-140588784D01*
X143831795Y-140595897D01*
X143810185Y-140607448D01*
X143791243Y-140622993D01*
X143775697Y-140641935D01*
X143764146Y-140663545D01*
X143757033Y-140686994D01*
X143754631Y-140711380D01*
X143757033Y-140735767D01*
X143764146Y-140759216D01*
X143775697Y-140780827D01*
X143811054Y-140833742D01*
X143832624Y-140885818D01*
X143837511Y-140897617D01*
X143851000Y-140965430D01*
X143851000Y-141034570D01*
X143837511Y-141102383D01*
X143837510Y-141102385D01*
X143811054Y-141166258D01*
X143775697Y-141219173D01*
X143764146Y-141240784D01*
X143757033Y-141264233D01*
X143754631Y-141288619D01*
X143757033Y-141313005D01*
X143764146Y-141336454D01*
X143775697Y-141358065D01*
X143791242Y-141377006D01*
X143810184Y-141392552D01*
X143831795Y-141404103D01*
X143855244Y-141411216D01*
X143879630Y-141413618D01*
X143904017Y-141411216D01*
X143965430Y-141399000D01*
X144034570Y-141399000D01*
X144102383Y-141412489D01*
X144114182Y-141417376D01*
X144166258Y-141438946D01*
X144223748Y-141477360D01*
X144272640Y-141526252D01*
X144311054Y-141583742D01*
X144332624Y-141635818D01*
X144337511Y-141647617D01*
X144351000Y-141715430D01*
X144351000Y-141784570D01*
X144337511Y-141852383D01*
X144337510Y-141852385D01*
X144311054Y-141916258D01*
X144272640Y-141973748D01*
X144223748Y-142022640D01*
X144166258Y-142061054D01*
X144114182Y-142082624D01*
X144102383Y-142087511D01*
X144034570Y-142101000D01*
X143965430Y-142101000D01*
X143897617Y-142087511D01*
X143885818Y-142082624D01*
X143833742Y-142061054D01*
X143776252Y-142022640D01*
X143727360Y-141973748D01*
X143688946Y-141916258D01*
X143662490Y-141852385D01*
X143662489Y-141852383D01*
X143649000Y-141784570D01*
X143649000Y-141715430D01*
X143662489Y-141647617D01*
X143667376Y-141635818D01*
X143688946Y-141583742D01*
X143724303Y-141530827D01*
X143735854Y-141509216D01*
X143742967Y-141485767D01*
X143745369Y-141461381D01*
X143742967Y-141436995D01*
X143735854Y-141413546D01*
X143724303Y-141391935D01*
X143708758Y-141372994D01*
X143689816Y-141357448D01*
X143668205Y-141345897D01*
X143644756Y-141338784D01*
X143620370Y-141336382D01*
X143595984Y-141338784D01*
X143534570Y-141351000D01*
X143465430Y-141351000D01*
X143404016Y-141338784D01*
X143379631Y-141336382D01*
X143355244Y-141338784D01*
X143331795Y-141345897D01*
X143310185Y-141357448D01*
X143291243Y-141372993D01*
X143275697Y-141391935D01*
X143264146Y-141413545D01*
X143257033Y-141436994D01*
X143254631Y-141461380D01*
X143257033Y-141485767D01*
X143264146Y-141509216D01*
X143275697Y-141530827D01*
X143311054Y-141583742D01*
X143332624Y-141635818D01*
X143337511Y-141647617D01*
X143351000Y-141715430D01*
X143351000Y-141784570D01*
X143337511Y-141852383D01*
X143337510Y-141852385D01*
X143311054Y-141916258D01*
X143272640Y-141973748D01*
X143223748Y-142022640D01*
X143166258Y-142061054D01*
X143114182Y-142082624D01*
X143102383Y-142087511D01*
X143034570Y-142101000D01*
X142965430Y-142101000D01*
X142897617Y-142087511D01*
X142885818Y-142082624D01*
X142833742Y-142061054D01*
X142776252Y-142022640D01*
X142727360Y-141973748D01*
X142688946Y-141916258D01*
X142662490Y-141852385D01*
X142662489Y-141852383D01*
X142649000Y-141784570D01*
X142649000Y-141715430D01*
X142662489Y-141647617D01*
X142667376Y-141635818D01*
X142688946Y-141583742D01*
X142727360Y-141526252D01*
X142776252Y-141477360D01*
X142833742Y-141438946D01*
X142885818Y-141417376D01*
X142897617Y-141412489D01*
X142965430Y-141399000D01*
X143034570Y-141399000D01*
X143095983Y-141411216D01*
X143120369Y-141413618D01*
X143144756Y-141411216D01*
X143168205Y-141404103D01*
X143189815Y-141392552D01*
X143208757Y-141377007D01*
X143224303Y-141358065D01*
X143235854Y-141336455D01*
X143242967Y-141313006D01*
X143245369Y-141288620D01*
X143242967Y-141264233D01*
X143235854Y-141240784D01*
X143224303Y-141219173D01*
X143188946Y-141166258D01*
X143162490Y-141102385D01*
X143162489Y-141102383D01*
X143149000Y-141034570D01*
X143149000Y-140965430D01*
X143162489Y-140897617D01*
X143167376Y-140885818D01*
X143188946Y-140833742D01*
X143224303Y-140780827D01*
X143235854Y-140759216D01*
X143242967Y-140735767D01*
X143245369Y-140711381D01*
X143242967Y-140686995D01*
X143235854Y-140663546D01*
X143224303Y-140641935D01*
X143208758Y-140622994D01*
X143189816Y-140607448D01*
X143168205Y-140595897D01*
X143144756Y-140588784D01*
X143120370Y-140586382D01*
X143095984Y-140588784D01*
X143034570Y-140601000D01*
X142965430Y-140601000D01*
X142897617Y-140587511D01*
X142885818Y-140582624D01*
X142833742Y-140561054D01*
X142776252Y-140522640D01*
X142727360Y-140473748D01*
X142688946Y-140416258D01*
X142662490Y-140352385D01*
X142662489Y-140352383D01*
X142649000Y-140284570D01*
X142649000Y-140215430D01*
X142662489Y-140147617D01*
X142667376Y-140135818D01*
X142688946Y-140083742D01*
X142727360Y-140026252D01*
X142776252Y-139977360D01*
X142833742Y-139938946D01*
X142897615Y-139912490D01*
X142897614Y-139912490D01*
X142897617Y-139912489D01*
X142965430Y-139899000D01*
X143034570Y-139899000D01*
X143102383Y-139912489D01*
G37*
G36*
X128465589Y-139778876D02*
G01*
X128564893Y-139798629D01*
X128705206Y-139856748D01*
X128831484Y-139941125D01*
X128938875Y-140048516D01*
X129023252Y-140174794D01*
X129081371Y-140315107D01*
X129088786Y-140352385D01*
X129111000Y-140464062D01*
X129111000Y-140615938D01*
X129109596Y-140622994D01*
X129081371Y-140764893D01*
X129023252Y-140905206D01*
X128938875Y-141031484D01*
X128831484Y-141138875D01*
X128705206Y-141223252D01*
X128564893Y-141281371D01*
X128465589Y-141301124D01*
X128415938Y-141311000D01*
X128264062Y-141311000D01*
X128214411Y-141301124D01*
X128115107Y-141281371D01*
X127974794Y-141223252D01*
X127848516Y-141138875D01*
X127741125Y-141031484D01*
X127656748Y-140905206D01*
X127598629Y-140764893D01*
X127570404Y-140622994D01*
X127569000Y-140615938D01*
X127569000Y-140464062D01*
X127591214Y-140352385D01*
X127598629Y-140315107D01*
X127656748Y-140174794D01*
X127741125Y-140048516D01*
X127848516Y-139941125D01*
X127974794Y-139856748D01*
X128115107Y-139798629D01*
X128214411Y-139778876D01*
X128264062Y-139769000D01*
X128415938Y-139769000D01*
X128465589Y-139778876D01*
G37*
G36*
X125925589Y-137238876D02*
G01*
X126024893Y-137258629D01*
X126165206Y-137316748D01*
X126291484Y-137401125D01*
X126398875Y-137508516D01*
X126483252Y-137634794D01*
X126541371Y-137775107D01*
X126571000Y-137924063D01*
X126571000Y-138075937D01*
X126541371Y-138224893D01*
X126483252Y-138365206D01*
X126398875Y-138491484D01*
X126291484Y-138598875D01*
X126165206Y-138683252D01*
X126024893Y-138741371D01*
X125925589Y-138761124D01*
X125875938Y-138771000D01*
X125724062Y-138771000D01*
X125674411Y-138761124D01*
X125575107Y-138741371D01*
X125434794Y-138683252D01*
X125308516Y-138598875D01*
X125201125Y-138491484D01*
X125116748Y-138365206D01*
X125058629Y-138224893D01*
X125029000Y-138075937D01*
X125029000Y-137924063D01*
X125058629Y-137775107D01*
X125116748Y-137634794D01*
X125201125Y-137508516D01*
X125308516Y-137401125D01*
X125434794Y-137316748D01*
X125575107Y-137258629D01*
X125674411Y-137238876D01*
X125724062Y-137229000D01*
X125875938Y-137229000D01*
X125925589Y-137238876D01*
G37*
G36*
X151046000Y-136822000D02*
G01*
X149944000Y-136822000D01*
X149944000Y-135720000D01*
X151046000Y-135720000D01*
X151046000Y-136822000D01*
G37*
G36*
X134536000Y-132758000D02*
G01*
X133434000Y-132758000D01*
X133434000Y-131656000D01*
X134536000Y-131656000D01*
X134536000Y-132758000D01*
G37*
G36*
X150162585Y-125178802D02*
G01*
X150312410Y-125208604D01*
X150594674Y-125325521D01*
X150848705Y-125495259D01*
X151064741Y-125711295D01*
X151234479Y-125965326D01*
X151351396Y-126247590D01*
X151411000Y-126547240D01*
X151411000Y-126852760D01*
X151351396Y-127152410D01*
X151234479Y-127434674D01*
X151064741Y-127688705D01*
X150848705Y-127904741D01*
X150594674Y-128074479D01*
X150312410Y-128191396D01*
X150162585Y-128221198D01*
X150012761Y-128251000D01*
X149707239Y-128251000D01*
X149557415Y-128221198D01*
X149407590Y-128191396D01*
X149125326Y-128074479D01*
X148871295Y-127904741D01*
X148655259Y-127688705D01*
X148485521Y-127434674D01*
X148368604Y-127152410D01*
X148309000Y-126852760D01*
X148309000Y-126547240D01*
X148368604Y-126247590D01*
X148485521Y-125965326D01*
X148655259Y-125711295D01*
X148871295Y-125495259D01*
X149125326Y-125325521D01*
X149407590Y-125208604D01*
X149557415Y-125178802D01*
X149707239Y-125149000D01*
X150012761Y-125149000D01*
X150162585Y-125178802D01*
G37*
G36*
X141251000Y-128251000D02*
G01*
X138149000Y-128251000D01*
X138149000Y-125149000D01*
X141251000Y-125149000D01*
X141251000Y-128251000D01*
G37*
G36*
X145082585Y-125178802D02*
G01*
X145232410Y-125208604D01*
X145514674Y-125325521D01*
X145768705Y-125495259D01*
X145984741Y-125711295D01*
X146154479Y-125965326D01*
X146271396Y-126247590D01*
X146331000Y-126547240D01*
X146331000Y-126852760D01*
X146271396Y-127152410D01*
X146154479Y-127434674D01*
X145984741Y-127688705D01*
X145768705Y-127904741D01*
X145514674Y-128074479D01*
X145232410Y-128191396D01*
X145082585Y-128221198D01*
X144932761Y-128251000D01*
X144627239Y-128251000D01*
X144477415Y-128221198D01*
X144327590Y-128191396D01*
X144045326Y-128074479D01*
X143791295Y-127904741D01*
X143575259Y-127688705D01*
X143405521Y-127434674D01*
X143288604Y-127152410D01*
X143229000Y-126852760D01*
X143229000Y-126547240D01*
X143288604Y-126247590D01*
X143405521Y-125965326D01*
X143575259Y-125711295D01*
X143791295Y-125495259D01*
X144045326Y-125325521D01*
X144327590Y-125208604D01*
X144477415Y-125178802D01*
X144627239Y-125149000D01*
X144932761Y-125149000D01*
X145082585Y-125178802D01*
G37*
M02*
